<?xml version="1.0" encoding="utf-8" ?>
<svg baseProfile="full" height="200mm" version="1.1" viewBox="0,0,200,200" width="200mm" xmlns="http://www.w3.org/2000/svg" xmlns:ev="http://www.w3.org/2001/xml-events" xmlns:xlink="http://www.w3.org/1999/xlink"><defs /><rect fill="#1a1a1a" height="200" width="200" x="0" y="0" /><text alignment-baseline="middle" fill="#e1ed5e" style="dominant-baseline: central; font-size:9.0px; font-family:Arial;" text-anchor="middle" x="100.0" y="100.0">2021</text><line stroke="#e1ed5e" stroke-width="0.3" x1="100.0" x2="100.0" y1="15.0" y2="10.0" /><path d="M 100.0 14.0 a86.0,86.0 0 0,1 42.46469731375804,11.215312516191453" fill="none" id="id85" stroke="none" /><text fill="#e1ed5e" style="font-size:6.75px; font-family:Arial;" text-anchor="middle"><textPath startOffset="22.20632615414155" xlink:href="#id85">January</textPath></text><path d="M 100.0 79.0 l 0.0 -10.925240418844712 a31.925240418844712,31.925240418844712 0 0,0 0.5495405336902229,0.004730068869610075 l -0.18806005441769452 10.923621726583661" fill="#ff750a" stroke="none" /><path d="M 100.36148047927253 79.00311137660856 l 0.10900562010270459 -6.33168039731032 a27.332618643096847,27.332618643096847 0 0,0 0.4703466841900664,0.012147667194744706 l -0.2179789394876388 6.328865937973216" fill="#ff3304" stroke="none" /><path d="M 100.72285384407766 79.0124445844662 l 1.0511159893152107 -30.518417041905554 a51.536512956895805,51.536512956895805 0 0,0 0.8863278152889962,0.038167140166429685 l -1.5762846369935384 30.49580217521493" fill="#92ff23" stroke="none" /><path d="M 101.44485096284872 79.0497635885617 l 0.5017853921835542 -7.275852571897726 a28.293135075384217,28.293135075384217 0 0,0 0.48557730737452043,0.03769014455239198 l -0.6269528889204158 7.266137165156869" fill="#ff4106" stroke="none" /><path d="M 104.307194497241 79.44645832069477 l 2.0786000341889035 -9.918890931132335 a31.13434632355878,31.13434632355878 0 0,0 0.5235867110899353,0.1144357753231998 l -2.2490294694323665 9.881641657713264" fill="#ff6a09" stroke="none" /><path d="M 104.66035177308747 79.52364482259891 l 2.247581279058861 -9.875278691590486 a31.1278206363737,31.1278206363737 0 0,0 0.5214299988740674,0.12340563400590181 l -2.417234964895452 9.835127145443716" fill="#ff6a09" stroke="none" /><line stroke="#e1ed5e" stroke-width="0.3" x1="143.23703022742887" x2="145.7803849466894" y1="26.81831364943548" y2="22.513508569990506" /><path d="M 143.74570117128098 25.957352633546492 a86.0,86.0 0 0,1 28.547481713284135,27.462654790039103" fill="none" id="id86" stroke="none" /><text fill="#e1ed5e" style="font-size:6.75px; font-family:Arial;" text-anchor="middle"><textPath startOffset="19.985693538727396" xlink:href="#id86">February</textPath></text><path d="M 110.99172775467656 82.1063720568725 l 5.366914879442657 -8.736895618100009 a31.253639371694234,31.253639371694234 0 0,0 0.45597697724529934,0.28553274131959816 l -5.51651100906022 8.643218535457468" fill="#ff6b09" stroke="none" /><path d="M 113.06298171725822 83.55741782278167 l 11.129397777806927 -14.00874941919082 a38.89157777241384,38.89157777241384 0 0,0 0.5205852541090623,0.4209437378784556 l -11.368886430480481 13.815099584048236" fill="#ffd313" stroke="none" /><path d="M 113.6212207817346 84.01681056812373 l 8.302017259427744 -9.74161689692853 a33.79931991718152,33.79931991718152 0 0,0 0.4395620890906767,0.381183912142682 l -8.468473147165184 9.597267991366175" fill="#ff8f0d" stroke="none" /><path d="M 115.4437574822437 85.77008943001954 l 7.395922007534731 -6.814618066281606 a31.05677292827218,31.05677292827218 0 0,0 0.3588630215709043,0.3962655115491932 l -7.51212866972167 6.686299767462864" fill="#ff6909" stroke="none" /><path d="M 117.04232023915458 87.72973835380427 l 7.89714140609449 -5.685844999389145 a30.73106755422706,30.73106755422706 0 0,0 0.30538980850102576,0.43195222659625154 l -7.993843834399399 5.549066272461101" fill="#ff6409" stroke="none" /><line stroke="#e1ed5e" stroke-width="0.3" x1="172.23445277983987" x2="176.4835382374775" y1="55.19839476539836" y2="52.563006222186495" /><path d="M 173.08426987136738 54.67131705675599 a86.0,86.0 0 0,1 12.851231095245387,41.99856678651699" fill="none" id="id87" stroke="none" /><text fill="#e1ed5e" style="font-size:6.75px; font-family:Arial;" text-anchor="middle"><textPath startOffset="22.20632615414155" xlink:href="#id87">March</textPath></text><path d="M 118.21658344932153 89.55222093294921 l 8.369598951327951 -4.800226176690187 a30.648438109531078,30.648438109531078 0 0,0 0.2585303151154867,0.45989658300267305 l -8.45098690773587 4.655446083752721" fill="#ff6309" stroke="none" /><path d="M 118.3937258080291 89.86733742301442 l 8.852861563254079 -4.8768291969461774 a31.10725585281822,31.10725585281822 0 0,0 0.2543268516889474,0.4712290306249595 l -8.93549651416149 4.723719182988759" fill="#ff6909" stroke="none" /><path d="M 119.04729006885535 91.15688171328212 l 5.212572507072722 -2.420050048668564 a26.746960447014676,26.746960447014676 0 0,0 0.19028256757414255,0.4192624147394806 l -5.253457391610211 2.329965625087021" fill="#ff2b04" stroke="none" /><path d="M 119.196687751892 91.48605970444005 l 6.7842884868970375 -3.0089059045930053 a28.421595853732427,28.421595853732427 0 0,0 0.1944974935846712,0.44892703128080524 l -6.83507669032439 2.8916797287255975" fill="#ff4306" stroke="none" /><path d="M 119.34039704204932 91.81776055985345 l 9.312030069481786 -3.9395912884666897 a31.111097049039515,31.111097049039515 0 0,0 0.20441222333077497,0.4950004126275858 l -9.378463979698758 3.778716305385801" fill="#ff6909" stroke="none" /><path d="M 119.85752413597 93.16781622104841 l 18.188232889537346 -6.257847094371448 a40.23466833352167,40.23466833352167 0 0,0 0.21968647406270767,0.6568345952252888 l -18.293256657371824 5.943839396223845" fill="#ffe415" stroke="none" /><path d="M 120.18372546131832 94.20196356495316 l 12.504255038902926 -3.5920091386311332 a34.0099547935394,34.0099547935394 0 0,0 0.1567911217359309,0.5640610869439147 l -12.56423293120522 3.376236748268267" fill="#ff920d" stroke="none" /><path d="M 120.91429891909075 98.10471618934814 l 39.18328251361031 -3.550845346695106 a60.34384489621656,60.34384489621656 0 0,0 0.08484205566081625,1.0352879761085638 l -39.238599053090624 2.875843453378774" fill="#34ff2f" stroke="none" /><path d="M 120.96714384426684 98.82574320788733 l 12.301432237082045 -0.6889369608182045 a33.32070895766566,33.32070895766566 0 0,0 0.027142719112736767,0.5729399011457424 l -12.311468564428278 0.47708595304946233" fill="#ff880c" stroke="none" /><line stroke="#e1ed5e" stroke-width="0.3" x1="184.98032266829074" x2="189.97916517819016" y1="98.17113171792111" y2="98.06355123074" /><path d="M 185.9800911702706 98.14961562048488 a86.0,86.0 0 0,1 -9.607161424134198,41.387399972396054" fill="none" id="id88" stroke="none" /><text fill="#e1ed5e" style="font-size:6.75px; font-family:Arial;" text-anchor="middle"><textPath startOffset="21.466115282336823" xlink:href="#id88">April</textPath></text><path d="M 120.89721153311464 102.0752229133903 l 10.062805275600397 0.9992990714488056 a31.112301847198275,31.112301847198275 0 0,0 -0.05750990251013377,0.5324702723101742 l -10.044113071589212 -1.172365665643771" fill="#ff6909" stroke="none" /><path d="M 120.81339534386255 102.79330883721812 l 62.44018603158764 8.379926511654341 a84.0,84.0 0 0,0 -0.20466379593359463,1.4314181120783627 l -62.28668818463745 -9.453490095713112" fill="#4dd2ff" stroke="none" /><path d="M 120.70491114924044 103.5080841355445 l 9.99312573623139 1.6931599274726106 a31.13554895011263,31.13554895011263 0 0,0 -0.0940791119336659,0.5276456217606245 l -9.962500181958536 -1.8649242999664533" fill="#ff6a09" stroke="none" /><path d="M 120.5718875245553 104.21870165774334 l 7.4522987947009165 1.5282518554350812 a28.607385297139977,28.607385297139977 0 0,0 -0.10307644324230142,0.48153882691314537 l -7.424888312734172 -1.6563045017643956" fill="#ff4606" stroke="none" /><line stroke="#e1ed5e" stroke-width="0.3" x1="174.80103733775053" x2="179.2010983576182" y1="140.37084112569926" y2="142.7455964860345" /><path d="M 175.68104954172406 140.8457921977663 a86.0,86.0 0 0,1 -30.038265399797805,32.042727171017184" fill="none" id="id89" stroke="none" /><text fill="#e1ed5e" style="font-size:6.75px; font-family:Arial;" text-anchor="middle"><textPath startOffset="22.206326154141568" xlink:href="#id89">May</textPath></text><path d="M 114.55890576462653 115.13401014063108 l 6.828130729709874 7.0978548371444 a30.849005663069875,30.849005663069875 0 0,0 -0.38585373011254753,0.3648487855969274 l -6.7049411652065185 -7.214338259487249" fill="#ff6609" stroke="none" /><path d="M 114.29624159901734 115.38237550388516 l 5.133541936621542 5.523554508164032 a28.540749778351703,28.540749778351703 0 0,0 -0.36273995116169394,0.33135434490497734 l -5.037702435992985 -5.611101619655592" fill="#ff4506" stroke="none" /><path d="M 113.20401910651253 116.32954008644616 l 6.368449383728575 7.875923888114259 a31.12854010430337,31.12854010430337 0 0,0 -0.41955714472240546,0.3333215702851984 l -6.231934746288819 -7.984379372404583" fill="#ff6a09" stroke="none" /><path d="M 112.92097659922987 116.55440617244103 l 1.7732039932295844 2.2718359487058053 a23.881924874009965,23.881924874009965 0 0,0 -0.3262399121252428,0.2501468530341191 l -1.7338353526108479 -2.302022143567296" fill="#ff0000" stroke="none" /><line stroke="#e1ed5e" stroke-width="0.3" x1="143.8653032363475" x2="146.44561519142675" y1="172.8068346515853" y2="177.08958963109032" /><path d="M 144.38136562736335 173.6633856474863 a86.0,86.0 0 0,1 -40.68145358897372,12.25698825130547" fill="none" id="id90" stroke="none" /><text fill="#e1ed5e" style="font-size:6.75px; font-family:Arial;" text-anchor="middle"><textPath startOffset="21.466115282336833" xlink:href="#id90">June</textPath></text><path d="M 106.57524785965236 119.94407469862006 l 3.28353077649445 9.959621976149437 a31.486927303456675,31.486927303456675 0 0,0 -0.5162036656787337,0.16527211257584717 l -3.111605765724776 -10.01466693538499" fill="#ff6f0a" stroke="none" /><path d="M 104.83641907484287 120.43548508189849 l 2.5283615196582545 10.683171436772396 a31.978286019300015,31.978286019300015 0 0,0 -0.5367476894645332,0.12216202662168166 l -2.3440936808008592 -10.72511019697176" fill="#ff760a" stroke="none" /><line stroke="#e1ed5e" stroke-width="0.3" x1="102.19456741930631" x2="102.32365962044197" y1="184.97166512339345" y2="189.96999836594603" /><path d="M 102.22038585953345 185.97133177190398 a86.0,86.0 0 0,1 -42.740103519485714,-10.115201625700543" fill="none" id="id91" stroke="none" /><text fill="#e1ed5e" style="font-size:6.75px; font-family:Arial;" text-anchor="middle"><textPath startOffset="22.20632615414155" xlink:href="#id91">July</textPath></text><path d="M 96.22490169976321 120.6578951692458 l -1.8198721271919782 9.958608924860606 a31.123528351204612,31.123528351204612 0 0,0 -0.5261838339749358,-0.10084438410937353 l 1.9910235757386092 -9.925807342402765" fill="#ff6a09" stroke="none" /><path d="M 92.40401165467489 119.57807347666478 l -5.596865022081294 14.4254874625657 a36.47318928366215,36.47318928366215 0 0,0 -0.5833607414246703,-0.23213127820648966 l 5.844346839547822 -14.327009339953143" fill="#ffb310" stroke="none" /><path d="M 91.07499286063937 119.00905698771935 l -4.297738804090768 9.153601848115352 a31.112318508730247,31.112318508730247 0 0,0 -0.48281478433984704,-0.23178043708925522 l 4.454666256430857 -9.078267134526534" fill="#ff6909" stroke="none" /><path d="M 90.7491055286396 118.85261126421891 l -4.474565168736608 9.118819586988565 a31.157490049678472,31.157490049678472 0 0,0 -0.4794486264746129,-0.24040549450458756 l 4.630867702893981 -9.040446251574675" fill="#ff6a09" stroke="none" /><line stroke="#e1ed5e" stroke-width="0.3" x1="58.666819895761336" x2="56.23545636021788" y1="174.27360380694188" y2="178.64263932499728" /><path d="M 58.180547188652646 175.14741091055294 a86.0,86.0 0 0,1 -31.652253787137756,-30.449443065178592" fill="none" id="id92" stroke="none" /><text fill="#e1ed5e" style="font-size:6.75px; font-family:Arial;" text-anchor="middle"><textPath startOffset="22.20632615414155" xlink:href="#id92">August</textPath></text><path d="M 89.1626897886671 117.98757091392108 l -9.38718589864064 15.580680883101795 a39.19002132699936,39.19002132699936 0 0,0 -0.5748257963720108,-0.3531049533481004 l 9.65399089494496 -15.416787462925317" fill="#ffd714" stroke="none" /><path d="M 87.95078237400918 117.19931262002967 l -5.800595226575228 8.279894494470579 a31.109577529359548,31.109577529359548 0 0,0 -0.4359380242408027,-0.3110302054233892 l 5.942260578664918 -8.17882002720297" fill="#ff6909" stroke="none" /><path d="M 85.97065885151581 115.62618273729859 l -13.835637280042553 15.410431191081624 a41.71005186956239,41.71005186956239 0 0,0 -0.5301157921784316,-0.4842482072308772 l 14.09885262168784 -15.169990217264171" fill="#fff717" stroke="none" /><path d="M 84.9287848128048 114.62390073753433 l -10.631062766605329 10.315532271440313 a35.81315974364108,35.81315974364108 0 0,0 -0.42548327287891924,-0.44611751055383814 l 10.807052590863204 -10.131007644303974" fill="#ffaa0f" stroke="none" /><path d="M 84.67929136418377 114.36230785411682 l -8.610816642639605 8.072159221658216 a32.802792794629624,32.802792794629624 0 0,0 -0.38262675822934983,-0.41526577635541884 l 8.748489808864685 -7.922742190501452" fill="#ff810b" stroke="none" /><path d="M 83.95833913139862 113.55231037782056 l -5.509127390131371 4.6542190932454455 a28.211951190116732,28.211951190116732 0 0,0 -0.3102024943145838,-0.373658887542238 l 5.588425884339491 -4.558698948589447" fill="#ff4006" stroke="none" /><path d="M 82.6465618267979 111.8261652097733 l -9.518737733289308 6.486908467292544 a32.51895609411623,32.51895609411623 0 0,0 -0.3112480566762936,-0.46527361404017087 l 9.628988895376331 -6.322097939046552" fill="#ff7d0b" stroke="none" /><line stroke="#e1ed5e" stroke-width="0.3" x1="26.63291911575756" x2="22.317208475507996" y1="142.92168965132927" y2="145.44649492493687" /><path d="M 25.769776987707644 143.4266507060508 a86.0,86.0 0 0,1 -11.730757126820373,-40.83630448921669" fill="none" id="id93" stroke="none" /><text fill="#e1ed5e" style="font-size:6.75px; font-family:Arial;" text-anchor="middle"><textPath startOffset="21.46611528233685" xlink:href="#id93">September</textPath></text><path d="M 81.87401531095188 110.60418214915194 l -6.585004453571239 3.8524023867700365 a28.629107929708724,28.629107929708724 0 0,0 -0.24518513871886966,-0.4275009560732013 l 6.650341588442486 -3.738481584838528" fill="#ff4606" stroke="none" /><path d="M 81.35079622478065 109.6543875284942 l -13.087487850249888 6.775178233006662 a35.737210669575354,35.737210669575354 0 0,0 -0.2781058336071632,-0.5487291936142116 l 13.202172353643316 -6.548894827689765" fill="#ffa90f" stroke="none" /><path d="M 81.02952815118164 109.00673069616217 l -7.7784439391333295 3.6930209408224344 a29.610609373534086,29.610609373534086 0 0,0 -0.21464220749964028,-0.4623202194870137 l 7.840860763472797 -3.558580654056594" fill="#ff5407" stroke="none" /><path d="M 80.87730276802145 108.67885076344099 l -10.637912934132203 4.8280249208474055 a32.682252189988915,32.682252189988915 0 0,0 -0.22808930616683465,-0.5142811715879557 l 10.719443325030317 -4.644195412766754" fill="#ff7f0b" stroke="none" /><path d="M 79.35854240842038 103.8639653848113 l -4.035539154187313 0.7554303532901396 a25.105636526003114,25.105636526003114 0 0,0 -0.07585914071019564,-0.4254583471672309 l 4.047944737236697 -0.685853255389695" fill="#ff1202" stroke="none" /><path d="M 79.29508885075956 103.50808413554451 l -7.07684401735228 1.1990471269376761 a28.177704038099666,28.177704038099666 0 0,0 -0.07690936007574505,-0.47891465860738935 l 7.096435131789315 -1.0770532386370733" fill="#ff3f06" stroke="none" /><path d="M 79.23777060512086 103.15116336523772 l -17.52799250298406 2.660290799753315 a38.728724385130405,38.728724385130405 0 0,0 -0.09436152076579905,-0.6599642564591425 l 17.571188074766457 -2.358181071313772" fill="#ffd113" stroke="none" /><path d="M 79.18660465613746 102.79330883721812 l -10.292965949376851 1.3813907953301725 a31.38524860388302,31.38524860388302 0 0,0 -0.06725184852796204,-0.5360634024518446 l 10.315219307151661 -1.2040096385909194" fill="#ff6d0a" stroke="none" /><path d="M 79.10278846688536 102.07522291339032 l -10.200463487199114 1.012969386958291 a31.25063716715195,31.25063716715195 0 0,0 -0.048550697817950815,-0.5357529047566959 l 10.216388781294139 -0.8372350936530288" fill="#ff6b09" stroke="none" /><path d="M 79.07016306316243 101.71520430193888 l -9.887246409852574 0.810261810815201 a30.920391412197816,30.920391412197816 0 0,0 -0.038905864216952295,-0.5308396063872465 l 9.899728832733862 -0.6399490679311938" fill="#ff6709" stroke="none" /><line stroke="#e1ed5e" stroke-width="0.3" x1="15.007084014347285" x2="10.007500721073583" y1="101.09737516637583" y2="101.16192664675087" /><path d="M 14.007167355692545 101.11028546245083 a86.0,86.0 0 0,1 10.666146001902534,-42.60595125391555" fill="none" id="id94" stroke="none" /><text fill="#e1ed5e" style="font-size:6.75px; font-family:Arial;" text-anchor="middle"><textPath startOffset="22.20632615414155" xlink:href="#id94">October</textPath></text><path d="M 79.00019446554 99.90962569577889 l -17.763077554777894 -0.07644479241508038 a38.76324204708537,38.76324204708537 0 0,0 0.008614655939429366,-0.6672145961927204 l 17.75912989172075 0.3821956466682727" fill="#ffd113" stroke="none" /><path d="M 79.03285615573316 98.82574320788736 l -5.651006830514471 -0.31648245475365533 a26.65986213106716,26.65986213106716 0 0,0 0.029604391847633905,-0.45796683866889826 l 5.644721847662424 0.41370835767556535" fill="#ff2904" stroke="none" /><path d="M 79.08570108090925 98.10471618934814 l -22.809109370152587 -2.06699425555103 a43.90257486642197,43.90257486642197 0 0,0 0.07468219829427325,-0.7520395449777457 l 22.770150046176084 2.459309331233206" fill="#ecff1a" stroke="none" /><path d="M 79.62865764111835 94.90015583598534 l -14.360168532488201 -3.594982617959264 a35.80332193478523,35.80332193478523 0 0,0 0.15481299823365635,-0.5965576343907677 l 14.296159202384237 3.8416366778988955" fill="#ffaa0f" stroke="none" /><path d="M 79.81627453868168 94.20196356495316 l -8.65101886430484 -2.4851171639074043 a30.000885218071907,30.000885218071907 0 0,0 0.14685305151649303,-0.49511548515113657 l 8.606959915676638 2.63366203580508" fill="#ff5a08" stroke="none" /><path d="M 80.02781315780177 93.51064311812611 l -8.776315015678904 -2.851597608938682 a30.227963707001443,30.227963707001443 0 0,0 0.1650485772577825,-0.49347423822133163 l 8.72592914464935 3.002244950082336" fill="#ff5d08" stroke="none" /><path d="M 80.38941819471856 92.48833698450439 l -13.922576985380564 -5.332922177418936 a35.90899758079849,35.90899758079849 0 0,0 0.22606671892687194,-0.5753151413931085 l 13.828716716572 5.571786323707808" fill="#ffab0f" stroke="none" /><path d="M 80.95270993114464 91.15688171328213 l -14.584871578172004 -6.771343540006023 a37.0800986405106,37.0800986405106 0 0,0 0.27376026027384653,-0.5766089257074251 l 14.466153124056406 7.02139488135398" fill="#ffbb11" stroke="none" /><line stroke="#e1ed5e" stroke-width="0.3" x1="26.266209847984243" x2="21.928928074336255" y1="57.711370442889674" y2="55.22380399835377" /><path d="M 25.398753493254645 57.213857153982495 a86.0,86.0 0 0,1 29.58750427330803,-30.492523968695096" fill="none" id="id95" stroke="none" /><text fill="#e1ed5e" style="font-size:6.75px; font-family:Arial;" text-anchor="middle"><textPath startOffset="21.46611528233685" xlink:href="#id95">November</textPath></text><path d="M 81.96595687620814 89.24020034530311 l -12.531682420147078 -7.4768808775432465 a35.59269721252364,35.59269721252364 0 0,0 0.31844311917216167,-0.5234367589385728 l 12.4011235026887 7.691485409688894" fill="#ffa70f" stroke="none" /><path d="M 82.15384107792192 88.93136811851018 l -6.699956753260632 -4.155479912935137 a28.883998592235425,28.883998592235425 0 0,0 0.26569483038525465,-0.4202654149179439 l 6.627434326629414 4.270192975567297" fill="#ff4a06" stroke="none" /><path d="M 82.7489923806493 88.02491185347247 l -14.797557960075755 -10.271983227605036 a39.01336617653681,39.01336617653681 0 0,0 0.38769510381016453,-0.5483672299126616 l 14.618550236461711 10.525176957849485" fill="#ffd413" stroke="none" /><path d="M 83.6137871275137 86.86637796730984 l -11.435610447028289 -9.165692310548133 a35.65548026602416,35.65548026602416 0 0,0 0.38796814316795,-0.47560306965428556 l 11.276143811783946 9.361179549810501" fill="#ffa80f" stroke="none" /><path d="M 84.07557802195018 86.31012108654704 l -5.595624930145436 -4.8104369404666425 a28.379113897824805,28.379113897824805 0 0,0 0.32164095295873346,-0.3676912104925233 l 5.5119921136088585 4.906043707162109" fill="#ff4206" stroke="none" /><path d="M 84.31358615837235 86.03803664274999 l -13.87352033567562 -12.348366205201883 a39.573010376408476,39.573010376408476 0 0,0 0.457268696562036,-0.5049275157005518 l 13.658907998497538 12.58534650817199" fill="#ffdc14" stroke="none" /><path d="M 84.5562425177563 85.77008943001954 l -24.78234986834137 -22.83450920191677 a54.69836309806904,54.69836309806904 0 0,0 0.6439629901222856,-0.6869348188414234 l 24.385619556248628 23.257713437636244" fill="#6fff27" stroke="none" /><path d="M 85.57189188830299 84.74124197986013 l -21.53900641027958 -22.779042426376794 a52.34985759145867,52.34985759145867 0 0,0 0.6600871226038217,-0.6134790415668228 l 21.143711403880904 23.146426054018264" fill="#89ff24" stroke="none" /><path d="M 86.65592168130627 83.78471172551755 l -4.6642305989451005 -5.667820731732668 a28.340247879138307,28.340247879138307 0 0,0 0.3793498744126382,-0.30674121642624697 l 4.565977325967961 5.747268045423049" fill="#ff4206" stroke="none" /><path d="M 87.51073957382395 83.11751280151077 l -10.744344287653455 -14.523778726904862 a39.066020111793456,39.066020111793456 0 0,0 0.5440495501481598,-0.3952751355248246 l 10.492749421151512 14.706573097246356" fill="#ffd513" stroke="none" /><line stroke="#e1ed5e" stroke-width="0.3" x1="56.762969772571076" x2="54.21961505331055" y1="26.818313649435495" y2="22.513508569990535" /><path d="M 56.25429882871897 25.957352633546506 a86.0,86.0 0 0,1 42.265352541879196,-11.944610805530505" fill="none" id="id96" stroke="none" /><text fill="#e1ed5e" style="font-size:6.75px; font-family:Arial;" text-anchor="middle"><textPath startOffset="22.20632615414155" xlink:href="#id96">December</textPath></text><path d="M 90.26544431104013 81.39251694778311 l -7.185035153630373 -13.7341060159927 a36.50001284571826,36.50001284571826 0 0,0 0.5592141112373931,-0.28645118776971173 l 6.947560554804216 13.855749729074915" fill="#ffb310" stroke="none" /><path d="M 90.91171255644093 81.06846463323043 l -3.081965791798197 -6.419949275256693 a28.1213946554508,28.1213946554508 0 0,0 0.4381872885669639,-0.20573480743225625 l 2.9710002919316247 6.472049065328957" fill="#ff3f05" stroke="none" /><path d="M 91.90106846888425 80.62456947434976 l -4.248301852591259 -10.163399589270666 a32.015568974951655,32.015568974951655 0 0,0 0.5102917790581961,-0.20816082934135552 l 4.072726203944682 10.235021304795598" fill="#ff760a" stroke="none" /><path d="M 92.57280143429618 80.3572730644239 l -8.190749488715191 -21.66209159230901 a44.15889870741856,44.15889870741856 0 0,0 0.7133085198083434,-0.26271754770364236 l 7.816658643134279 21.799872407818977" fill="#e9ff1a" stroke="none" /><path d="M 94.28887869178378 79.79150937346287 l -3.8349957463000304 -13.569922859180089 a35.10141832505644,35.10141832505644 0 0,0 0.5828542219613471,-0.15931607630782735 l 3.600843635114961 13.633925476314213" fill="#ffa00e" stroke="none" /><path d="M 95.33964822691252 79.52364482259891 l -3.121007784659713 -13.71288413874125 a35.063565728308305,35.063565728308305 0 0,0 0.5896644454320631,-0.12887780870731996 l 2.884500615074129 13.76457544554444" fill="#ffa00e" stroke="none" /><path d="M 97.83486435360386 79.11191278185805 l -2.2148592524582975 -21.367794354253984 a42.48227727858219,42.48227727858219 0 0,0 0.7280144826927193,-0.06913374732146019 l 1.8467196426753418 21.402753646090627" fill="#feff18" stroke="none" /><path d="M 98.19473922651362 79.07773832637324 l -0.6083678357333807 -7.050743715241868 a28.076941313984285,28.076941313984285 0 0,0 0.4818669096313301,-0.037402146276602107 l 0.48691073673971635 7.060171123706932" fill="#ff3e05" stroke="none" /></svg>