<?xml version="1.0" encoding="utf-8" ?>
<svg baseProfile="full" height="200mm" version="1.1" viewBox="0,0,200,200" width="200mm" xmlns="http://www.w3.org/2000/svg" xmlns:ev="http://www.w3.org/2001/xml-events" xmlns:xlink="http://www.w3.org/1999/xlink"><defs /><rect fill="#1a1a1a" height="200" width="200" x="0" y="0" /><text alignment-baseline="middle" fill="#e1ed5e" style="dominant-baseline: central; font-size:9.0px; font-family:Arial;" text-anchor="middle" x="100.0" y="100.0">2019</text><line stroke="#e1ed5e" stroke-width="0.3" x1="100.0" x2="100.0" y1="15.0" y2="10.0" /><path d="M 100.0 14.0 a86.0,86.0 0 0,1 42.46469731375804,11.215312516191453" fill="none" id="id61" stroke="none" /><text fill="#e1ed5e" style="font-size:6.75px; font-family:Arial;" text-anchor="middle"><textPath startOffset="22.20632615414155" xlink:href="#id61">January</textPath></text><line stroke="#e1ed5e" stroke-width="0.3" x1="143.23703022742887" x2="145.7803849466894" y1="26.81831364943548" y2="22.513508569990506" /><path d="M 143.74570117128098 25.957352633546492 a86.0,86.0 0 0,1 28.547481713284135,27.462654790039103" fill="none" id="id62" stroke="none" /><text fill="#e1ed5e" style="font-size:6.75px; font-family:Arial;" text-anchor="middle"><textPath startOffset="19.985693538727396" xlink:href="#id62">February</textPath></text><line stroke="#e1ed5e" stroke-width="0.3" x1="172.23445277983987" x2="176.4835382374775" y1="55.19839476539836" y2="52.563006222186495" /><path d="M 173.08426987136738 54.67131705675599 a86.0,86.0 0 0,1 12.851231095245387,41.99856678651699" fill="none" id="id63" stroke="none" /><text fill="#e1ed5e" style="font-size:6.75px; font-family:Arial;" text-anchor="middle"><textPath startOffset="22.20632615414155" xlink:href="#id63">March</textPath></text><line stroke="#e1ed5e" stroke-width="0.3" x1="184.98032266829074" x2="189.97916517819016" y1="98.17113171792111" y2="98.06355123074" /><path d="M 185.9800911702706 98.14961562048488 a86.0,86.0 0 0,1 -9.607161424134198,41.387399972396054" fill="none" id="id64" stroke="none" /><text fill="#e1ed5e" style="font-size:6.75px; font-family:Arial;" text-anchor="middle"><textPath startOffset="21.466115282336823" xlink:href="#id64">April</textPath></text><line stroke="#e1ed5e" stroke-width="0.3" x1="174.80103733775053" x2="179.2010983576182" y1="140.37084112569926" y2="142.7455964860345" /><path d="M 175.68104954172406 140.8457921977663 a86.0,86.0 0 0,1 -30.038265399797805,32.042727171017184" fill="none" id="id65" stroke="none" /><text fill="#e1ed5e" style="font-size:6.75px; font-family:Arial;" text-anchor="middle"><textPath startOffset="22.206326154141568" xlink:href="#id65">May</textPath></text><line stroke="#e1ed5e" stroke-width="0.3" x1="143.8653032363475" x2="146.44561519142675" y1="172.8068346515853" y2="177.08958963109032" /><path d="M 144.38136562736335 173.6633856474863 a86.0,86.0 0 0,1 -40.68145358897372,12.25698825130547" fill="none" id="id66" stroke="none" /><text fill="#e1ed5e" style="font-size:6.75px; font-family:Arial;" text-anchor="middle"><textPath startOffset="21.466115282336833" xlink:href="#id66">June</textPath></text><line stroke="#e1ed5e" stroke-width="0.3" x1="102.19456741930631" x2="102.32365962044197" y1="184.97166512339345" y2="189.96999836594603" /><path d="M 102.22038585953345 185.97133177190398 a86.0,86.0 0 0,1 -42.740103519485714,-10.115201625700543" fill="none" id="id67" stroke="none" /><text fill="#e1ed5e" style="font-size:6.75px; font-family:Arial;" text-anchor="middle"><textPath startOffset="22.20632615414155" xlink:href="#id67">July</textPath></text><line stroke="#e1ed5e" stroke-width="0.3" x1="58.666819895761336" x2="56.23545636021788" y1="174.27360380694188" y2="178.64263932499728" /><path d="M 58.180547188652646 175.14741091055294 a86.0,86.0 0 0,1 -31.652253787137756,-30.449443065178592" fill="none" id="id68" stroke="none" /><text fill="#e1ed5e" style="font-size:6.75px; font-family:Arial;" text-anchor="middle"><textPath startOffset="22.20632615414155" xlink:href="#id68">August</textPath></text><path d="M 85.44109423537348 115.13401014063109 l -5.095926530490627 5.2972252884373665 a28.350446446347227,28.350446446347227 0 0,0 -0.3487780566467286,-0.341352736478957 l 5.186354539513149 -5.20872244903584" fill="#ff4206" stroke="none" /><path d="M 82.6465618267979 111.8261652097733 l -6.26138836055435 4.267062956366517 a28.577124155989583,28.577124155989583 0 0,0 -0.2735196767450433,-0.4088748050967622 l 6.333911142710124 -4.158651237063934" fill="#ff4506" stroke="none" /><path d="M 82.44556493220864 111.52570212397912 l -6.042322668363685 3.967203213523213 a28.228303021180736,28.228303021180736 0 0,0 -0.2631887831745827,-0.40847483614328334 l 6.109716314915313 -3.8626067774584816" fill="#ff4006" stroke="none" /><path d="M 82.24976979558568 111.22182372390057 l -6.080833910033633 3.844347112509238 a28.194132731808125,28.194132731808125 0 0,0 -0.2558085352049781,-0.41244480996124483 l 6.146107084906567 -3.739105971182729" fill="#ff4006" stroke="none" /><line stroke="#e1ed5e" stroke-width="0.3" x1="26.63291911575756" x2="22.317208475507996" y1="142.92168965132927" y2="145.44649492493687" /><path d="M 25.769776987707644 143.4266507060508 a86.0,86.0 0 0,1 -11.730757126820373,-40.83630448921669" fill="none" id="id69" stroke="none" /><text fill="#e1ed5e" style="font-size:6.75px; font-family:Arial;" text-anchor="middle"><textPath startOffset="21.46611528233685" xlink:href="#id69">September</textPath></text><path d="M 81.02952815118164 109.00673069616217 l -3.99066351192948 1.8946725119643437 a25.4175988039928,25.4175988039928 0 0,0 -0.18424779604520794,-0.39685336122794873 l 4.022685924814515 -1.825699083457568" fill="#ff1702" stroke="none" /><path d="M 80.73074385275274 108.34839909993369 l -13.059153540450996 5.657874119783892 a35.23211265934872,35.23211265934872 0 0,0 -0.23630516659958958,-0.5585556104236669 l 13.154609688242893 -5.432243983694066" fill="#ffa20f" stroke="none" /><path d="M 80.20201598880116 107.00284435728193 l -17.00429047249814 6.014672984762446 a39.036689984216125,39.036689984216125 0 0,0 -0.21862250817954546,-0.635419343697415 l 17.105303811620914 -5.721080937975733" fill="#ffd513" stroke="none" /><path d="M 80.0844068197444 106.66101706037122 l -11.111728872073202 3.7164554887814374 a32.716764055256846,32.716764055256846 0 0,0 -0.17403409841167758,-0.5356218795887603 l 11.174055221501128 -3.5246347092148738" fill="#ff800b" stroke="none" /><path d="M 79.76711848015287 105.62410040840567 l -6.643268112297536 1.846618182727502 a27.895143937921027,27.895143937921027 0 0,0 -0.12461414826378325,-0.4637356032905539 l 6.674070336903094 -1.7319916462614091" fill="#ff3b05" stroke="none" /><path d="M 79.58551787078972 104.9243191809786 l -2.809535250806143 0.6777075331920465 a23.890116922559983,23.890116922559983 0 0,0 -0.0929887922429962,-0.4005932832400283 l 2.8207846089796944 -0.6292455926034439" fill="#ff0000" stroke="none" /><path d="M 79.29508885075956 103.50808413554451 l -32.558212766368506 5.516418248023737 a54.02223627841171,54.02223627841171 0 0,0 -0.14745046709325677,-0.9181741993421869 l 32.64834498782305 -4.955164818988337" fill="#77ff27" stroke="none" /><path d="M 79.1416061653843 102.43462659150553 l -10.1580021002716 1.1856589834279507 a31.226964060468074,31.226964060468074 0 0,0 -0.05772185123508278,-0.5344326542716165 l 10.176906253007735 -1.0106300072715522" fill="#ff6b09" stroke="none" /><path d="M 79.07016306316243 101.71520430193888 l -10.988478221469538 0.9005079769185266 a32.025314881680444,32.025314881680444 0 0,0 -0.04029614423963197,-0.5498088727140888 l 11.002350924373506 -0.7112259677076771" fill="#ff760a" stroke="none" /><line stroke="#e1ed5e" stroke-width="0.3" x1="15.007084014347285" x2="10.007500721073583" y1="101.09737516637583" y2="101.16192664675087" /><path d="M 14.007167355692545 101.11028546245083 a86.0,86.0 0 0,1 10.666146001902534,-42.60595125391555" fill="none" id="id70" stroke="none" /><text fill="#e1ed5e" style="font-size:6.75px; font-family:Arial;" text-anchor="middle"><textPath startOffset="22.20632615414155" xlink:href="#id70">October</textPath></text><path d="M 79.00019446554 99.90962569577889 l -10.610721210449201 -0.0456640679412505 a31.610819469436727,31.610819469436727 0 0,0 0.007025117593668566,-0.5441030995808326 l 10.608363085737817 0.2283034255825551" fill="#ff700a" stroke="none" /><path d="M 79.00486145842228 99.54816195383935 l -10.476648387229293 -0.22546878308153648 a31.47907427217588,31.47907427217588 0 0,0 0.016321608520423497,-0.5416347269506172 l 10.471215084253226 0.4057736574571481" fill="#ff6e0a" stroke="none" /><path d="M 79.01574976396665 99.18683210126434 l -5.3794878165319115 -0.20846238273177406 a26.383525400072845,26.383525400072845 0 0,0 0.02149175817500387,-0.4536570471474302 l 5.375102450123409 0.3010305365022134" fill="#ff2503" stroke="none" /><path d="M 79.08570108090925 98.10471618934814 l -7.868149353571362 -0.7130229967212769 a28.90039087918812,28.90039087918812 0 0,0 0.04916214433865247,-0.49505608435478426 l 7.854710083550481 0.8483546117804914" fill="#ff4a06" stroke="none" /><path d="M 79.12142395522702 97.74499172005258 l -7.41020743140138 -0.8003457265526239 a28.453303124012017,28.453303124012017 0 0,0 0.056784185229010686,-0.48649222152463273 l 7.3953328931687805 0.9277816864021183" fill="#ff4306" stroke="none" /><path d="M 79.21141760316559 97.0276538004421 l -10.109225733508463 -1.4454145124413302 a31.212035450575254,31.212035450575254 0 0,0 0.080622332236061,-0.5312004368611946 l 10.0828475078331 1.6192140616946167" fill="#ff6b09" stroke="none" /><path d="M 79.3925641242962 95.95851677861259 l -39.098322543526585 -7.667873649936042 a60.843131303011596,60.843131303011596 0 0,0 0.21040338256957788,-1.0260016166496633 l 38.960539865042016 8.339750922749108" fill="#2fff2f" stroke="none" /><path d="M 79.54389044137918 95.25157060432595 l -10.209502949466067 -2.3699083044867146 a31.480954911019865,31.480954911019865 0 0,0 0.12707392347250976,-0.5268034512950962 l 10.167196225732743 2.5452969874412075" fill="#ff6e0a" stroke="none" /><path d="M 79.71946130924805 94.55025226153421 l -9.932586086477498 -2.669065619375344 a31.28494908328757,31.28494908328757 0 0,0 0.1442284263533353,-0.5188663875629989 l 9.885170889557802 2.8396433103572853" fill="#ff6c09" stroke="none" /><path d="M 80.02781315780177 93.51064311812611 l -8.267425873324372 -2.6862495033886233 a29.69288599749064,29.69288599749064 0 0,0 0.16212698400945344,-0.4847390462762355 l 8.219961595543145 2.828161652587181" fill="#ff5507" stroke="none" /><path d="M 80.803312248108 91.48605970444005 l -11.676917215442016 -5.17884008394474 a33.773831855451945,33.773831855451945 0 0,0 0.24027296316542224,-0.5294096249468259 l 11.586041935313242 5.379071717733638" fill="#ff8e0d" stroke="none" /><path d="M 80.95270993114464 91.15688171328213 l -17.985085209941847 -8.349966600670014 a40.828898916510056,40.828898916510056 0 0,0 0.3014374395937273,-0.6349041239158293 l 17.83868957650637 8.658313140226374" fill="#ffec16" stroke="none" /><path d="M 81.10775173730289 90.83032412892265 l -5.913042926007492 -2.869996534521231 a27.572743472323495,27.572743472323495 0 0,0 0.21091834067775803,-0.42519850439475304 l 5.862764572376321 2.971354627414945" fill="#ff3705" stroke="none" /><path d="M 81.43458229118936 90.18545643968196 l -7.1035422294341 -3.755262916075056 a29.03506762723265,29.03506762723265 0 0,0 0.23738504524951376,-0.43983843630716213 l 7.037849084966115 3.876982335714691" fill="#ff4c07" stroke="none" /><line stroke="#e1ed5e" stroke-width="0.3" x1="26.266209847984243" x2="21.928928074336255" y1="57.711370442889674" y2="55.22380399835377" /><path d="M 25.398753493254645 57.213857153982495 a86.0,86.0 0 0,1 29.58750427330803,-30.492523968695096" fill="none" id="id71" stroke="none" /><text fill="#e1ed5e" style="font-size:6.75px; font-family:Arial;" text-anchor="middle"><textPath startOffset="21.46611528233685" xlink:href="#id71">November</textPath></text><path d="M 82.15384107792192 88.93136811851018 l -8.805811782336901 -5.461583608100207 a31.362008331120578,31.362008331120578 0 0,0 0.2884892636131765,-0.4563207341895363 l 8.71049492247776 5.612351990003958" fill="#ff6d0a" stroke="none" /><path d="M 82.7489923806493 88.02491185347247 l -8.961479092119701 -6.220767181797579 a31.90898949713622,31.90898949713622 0 0,0 0.3170954010887106,-0.4485089571783798 l 8.853071071227113 6.374102639307745" fill="#ff740a" stroke="none" /><path d="M 83.17141714833178 87.43820079747576 l -8.431590979756104 -6.293812959717597 a31.521587713924816,31.521587713924816 0 0,0 0.3283109350176899,-0.4320187063080548 l 8.322004104514305 6.4380164419066785" fill="#ff6f0a" stroke="none" /><path d="M 83.6137871275137 86.86637796730984 l -7.75566339832293 -6.216198488265298 a30.939388230348875,30.939388230348875 0 0,0 0.33665223166041097,-0.4126958298077192 l 7.647512674586126 6.348778487681099" fill="#ff6709" stroke="none" /><path d="M 84.5562425177563 85.77008943001954 l -4.81433487165063 -4.435938258956259 a27.54640118642779,27.54640118642779 0 0,0 0.3243033588284168,-0.3459442118003701 l 4.737264190851757 4.51815188763468" fill="#ff3605" stroke="none" /><path d="M 85.31137513191541 84.99185889309783 l -44.06587460425377 -45.02442332070654 a84.0,84.0 0 0,0 1.0420670255502897,-1.0024676529507457 l 43.28432433509105 45.776274060419595" fill="#4dd2ff" stroke="none" /><path d="M 85.83668400450813 84.49514656593479 l -7.245846472895091 -7.932166987147362 a31.743442847651618,31.743442847651618 0 0,0 0.4066017781854064,-0.365051091084934 l 7.108233707113714 8.055717087001575" fill="#ff720a" stroke="none" /><path d="M 86.37877921826538 84.01681056812374 l -6.658854255061774 -7.813523520639545 a31.266035739161524,31.266035739161524 0 0,0 0.4126260073464622,-0.34556241466395654 l 6.523370710756201 7.926987092697314" fill="#ff6b09" stroke="none" /><path d="M 87.22198572758235 83.33499621200491 l -14.890957064931307 -19.420690148204066 a45.472511275759544,45.472511275759544 0 0,0 0.6252553585305024,-0.47092937314217526 l 14.554455552642414 19.674136110852096" fill="#d9ff1c" stroke="none" /><path d="M 87.51073957382395 83.11751280151077 l -9.93182519476175 -13.425447623525649 a37.69981423822836,37.69981423822836 0 0,0 0.5250232022172511,-0.3814516846003925 l 9.699256676190718 13.594418542942709" fill="#ffc312" stroke="none" /><path d="M 87.80319425747018 82.90503203632743 l -10.968619198308925 -15.373549252078401 a39.88535474179904,39.88535474179904 0 0,0 0.5623243583669474,-0.39394414881838935 l 10.702363700358317 15.560078243660733" fill="#ffdf14" stroke="none" /><path d="M 88.39885842347998 82.49532879139004 l -7.080763202443191 -10.68398579116144 a33.81736165967135,33.81736165967135 0 0,0 0.4879893182789821,-0.3174018269146341 l 6.895806858379921 10.804286542235609" fill="#ff8f0d" stroke="none" /><path d="M 89.00827224532344 82.1063720568725 l -15.38014789716338 -25.037614679368897 a50.38419810325216,50.38419810325216 0 0,0 0.7428980474272209,-0.44758776123191885 l 14.946887783518509 25.298649050059435" fill="#9fff22" stroke="none" /><line stroke="#e1ed5e" stroke-width="0.3" x1="56.762969772571076" x2="54.21961505331055" y1="26.818313649435495" y2="22.513508569990535" /><path d="M 56.25429882871897 25.957352633546506 a86.0,86.0 0 0,1 42.265352541879196,-11.944610805530505" fill="none" id="id72" stroke="none" /><text fill="#e1ed5e" style="font-size:6.75px; font-family:Arial;" text-anchor="middle"><textPath startOffset="22.20632615414155" xlink:href="#id72">December</textPath></text><path d="M 89.94658935756843 81.56283822128135 l -5.0847921353244825 -9.325107522660495 a31.621334255574347,31.621334255574347 0 0,0 0.4801247172749554,-0.2564659961963465 l 4.923522371521222 9.411252245358591" fill="#ff700a" stroke="none" /><path d="M 91.56875222667455 80.76684994638697 l -13.72591396977442 -31.311209218505844 a55.18760794543388,55.18760794543388 0 0,0 0.8733208804270626,-0.3739104242419536 l 13.18490933155705 31.542839170710582" fill="#6aff28" stroke="none" /><path d="M 92.23578459929587 80.48803036053334 l -3.9265238801520863 -9.867605518932434 a31.620133165769175,31.620133165769175 0 0,0 0.5074532000864901,-0.19688395787507973 l 3.75608751506592 9.933732180698064" fill="#ff700a" stroke="none" /><path d="M 95.692805502759 79.44645832069477 l -1.6519295913091072 -7.8828582568068715 a29.054087513278642,29.054087513278642 0 0,0 0.4903687884279708,-0.09836336580860112 l 1.5159943934139999 7.910125578692683" fill="#ff4c07" stroke="none" /></svg>