<?xml version="1.0" encoding="utf-8" ?>
<svg baseProfile="full" height="200mm" version="1.1" viewBox="0,0,200,200" width="200mm" xmlns="http://www.w3.org/2000/svg" xmlns:ev="http://www.w3.org/2001/xml-events" xmlns:xlink="http://www.w3.org/1999/xlink"><defs /><rect fill="#1a1a1a" height="200" width="200" x="0" y="0" /><text alignment-baseline="middle" fill="#e1ed5e" style="dominant-baseline: central; font-size:9.0px; font-family:Arial;" text-anchor="middle" x="100.0" y="100.0">2022</text><line stroke="#e1ed5e" stroke-width="0.3" x1="100.0" x2="100.0" y1="15.0" y2="10.0" /><path d="M 100.0 14.0 a86.0,86.0 0 0,1 42.46469731375804,11.215312516191453" fill="none" id="id97" stroke="none" /><text fill="#e1ed5e" style="font-size:6.75px; font-family:Arial;" text-anchor="middle"><textPath startOffset="22.20632615414155" xlink:href="#id97">January</textPath></text><path d="M 100.0 79.0 l 0.0 -3.541944450679111 a24.54194445067911,24.54194445067911 0 0,0 0.42244923058625017,0.0036361538996378157 l -0.06096875131372177 3.541419673388032" fill="#ff2d04" stroke="none" /><path d="M 109.73455568895987 81.39251694778311 l 2.3547301396430425 -4.501037599039502 a26.079772977064096,26.079772977064096 0 0,0 0.39598403805495147,0.21152095933327125 l -2.4318592242263053 4.459837913204476" fill="#ff4206" stroke="none" /><line stroke="#e1ed5e" stroke-width="0.3" x1="143.23703022742887" x2="145.7803849466894" y1="26.81831364943548" y2="22.513508569990506" /><path d="M 143.74570117128098 25.957352633546492 a86.0,86.0 0 0,1 28.547481713284135,27.462654790039103" fill="none" id="id98" stroke="none" /><text fill="#e1ed5e" style="font-size:6.75px; font-family:Arial;" text-anchor="middle"><textPath startOffset="19.985693538727396" xlink:href="#id98">February</textPath></text><path d="M 110.68208982089419 81.91981866633111 l 1.873084555934945 -3.170326124608787 a24.68231088992483,24.68231088992483 0 0,0 0.36393236880620133,0.21926518013866841 l -1.927378990958784 3.137614335011504" fill="#ff2f04" stroke="none" /><path d="M 111.90073688211348 82.69761687909136 l 1.8659695768165778 -2.7129177655011323 a24.29268359609251,24.29268359609251 0 0,0 0.34249081660714503,0.23993670417949953 l -1.9123915330073737 2.6803962185576973" fill="#ff2904" stroke="none" /><path d="M 112.19680574252982 82.90503203632743 l 1.3872414465947982 -1.9443490851644916 a23.388499988723137,23.388499988723137 0 0,0 0.32571792215054485,0.23664792257590875 l -1.4205046850991316 1.9201819277719079" fill="#ff1d02" stroke="none" /><path d="M 112.77801427241765 83.33499621200491 l 2.1873424714567626 -2.852717941562655 a24.59478326767443,24.59478326767443 0 0,0 0.3337482163903228,0.2604957767191354 l -2.2361232430065154 2.8146437756202958" fill="#ff2e04" stroke="none" /><path d="M 113.34407831869373 83.78471172551755 l 1.5205610773383795 -1.8477361732401067 a23.39295527660181,23.39295527660181 0 0,0 0.308722916341078,0.25854656403987747 l -1.5521415306385749 1.82128845180641" fill="#ff1d02" stroke="none" /><path d="M 113.6212207817346 84.01681056812373 l 1.5506062937120215 -1.819486999277807 a23.39058838335676,23.39058838335676 0 0,0 0.30419594003789,0.26379572160428855 l -1.5816960323966756 1.7925262842538474" fill="#ff1d02" stroke="none" /><path d="M 115.9244219780498 86.31012108654704 l 2.725731330871221 -2.3432518883050726 a24.594501453628624,24.594501453628624 0 0,0 0.2732207693193917,0.32340721260730826 l -2.7656627136777305 2.2959857260686576" fill="#ff2e04" stroke="none" /><path d="M 117.45458315368197 88.32363383020206 l 5.361026124879409 -3.5862961337315147 a27.449970625549945,27.449970625549945 0 0,0 0.2593412634016779,0.39499453654212674 l -5.421964023639012 3.4934835332117142" fill="#ff5507" stroke="none" /><line stroke="#e1ed5e" stroke-width="0.3" x1="172.23445277983987" x2="176.4835382374775" y1="55.19839476539836" y2="52.563006222186495" /><path d="M 173.08426987136738 54.67131705675599 a86.0,86.0 0 0,1 12.851231095245387,41.99856678651699" fill="none" id="id99" stroke="none" /><text fill="#e1ed5e" style="font-size:6.75px; font-family:Arial;" text-anchor="middle"><textPath startOffset="22.20632615414155" xlink:href="#id99">March</textPath></text><path d="M 117.84615892207809 88.93136811851018 l 0.331048750957858 -0.20532467379556696 a21.389552945284738,21.389552945284738 0 0,0 0.1913694800066367,0.31456110791415787 l -0.3345340292507186 0.19959579267432764" fill="#ff0000" stroke="none" /><line stroke="#e1ed5e" stroke-width="0.3" x1="184.98032266829074" x2="189.97916517819016" y1="98.17113171792111" y2="98.06355123074" /><path d="M 185.9800911702706 98.14961562048488 a86.0,86.0 0 0,1 -9.607161424134198,41.387399972396054" fill="none" id="id100" stroke="none" /><text fill="#e1ed5e" style="font-size:6.75px; font-family:Arial;" text-anchor="middle"><textPath startOffset="21.466115282336823" xlink:href="#id100">April</textPath></text><path d="M 120.8583938346157 102.4346265915055 l 2.26870604570179 0.2648071616141605 a23.284108131119453,23.284108131119453 0 0,0 -0.04989284402064605,0.3976950568516692 l -2.2638116924342957 -0.30381997275322464" fill="#ff1b02" stroke="none" /><path d="M 120.70491114924044 103.5080841355445 l 1.780570028840988 0.3016863692569978 a22.80594692419303,22.80594692419303 0 0,0 -0.06891040324588973,0.3864861372425587 l -1.7751131832559095 -0.3322912572327748" fill="#ff1402" stroke="none" /><path d="M 120.41448212921028 104.9243191809786 l 2.5461087759908603 0.614164601536956 a23.61913498257702,23.61913498257702 0 0,0 -0.09873775321942796,0.39440824266213487 l -2.5351597084763715 -0.6579006835964868" fill="#ff2003" stroke="none" /><path d="M 120.23288151984713 105.62410040840565 l 1.6756908360480822 0.4657889933341954 a22.73922372463315,22.73922372463315 0 0,0 -0.10807342662917542,0.3762177759977449 l -1.6674247725328073 -0.4945642448365223" fill="#ff1302" stroke="none" /><path d="M 120.02730092923936 106.31721596034902 l 1.5818348621414025 0.49895852032496957 a22.65866245393413,22.65866245393413 0 0,0 -0.12053086560531728,0.37095586079497067 l -1.5730117455198382 -0.5261132810977355" fill="#ff1202" stroke="none" /><path d="M 119.79798401119884 107.00284435728193 l 1.7006078378525618 0.6015305393982934 a22.80385864412774,22.80385864412774 0 0,0 -0.1340820618102867,0.36893624814777043 l -1.6900015150370484 -0.630714584552195" fill="#ff1402" stroke="none" /><path d="M 119.67450827220406 107.3425965602758 l 1.9817417262213994 0.7395930704334777 a23.115253691470645,23.115253691470645 0 0,0 -0.1423302157597364,0.37157928061493645 l -1.9687172308681562 -0.773595917881558" fill="#ff1902" stroke="none" /><path d="M 119.54520255179757 107.68017299344265 l 1.83052014041274 0.7192921797097362 a22.966770252024435,22.966770252024435 0 0,0 -0.14775002952378996,0.3667034563863171 l -1.8178674966315578 -0.7506950039388668" fill="#ff1702" stroke="none" /><path d="M 119.26925614724726 108.34839909993367 l 0.94101179682921 0.4076930618205629 a22.02553246385883,22.02553246385883 0 0,0 -0.15371610219615642,0.34658923058649815 l -0.9338546099017807 -0.4238306288997488" fill="#ff0901" stroke="none" /><path d="M 119.12269723197855 108.67885076344098 l 1.6865381035744837 0.7654366081424 a22.852107981704403,22.852107981704403 0 0,0 -0.1656509949301191,0.35679750607514943 l -1.6731124918045333 -0.79435418149638" fill="#ff1502" stroke="none" /><path d="M 118.81262510543309 109.33194174019688 l 1.455110922504936 0.721803059288019 a22.624299065194187,22.624299065194187 0 0,0 -0.17606157373272874,0.3473861879405017 l -1.442470678985938 -0.7467434589312151" fill="#ff1202" stroke="none" /><path d="M 118.64920377521936 109.65438752849418 l 3.204658249323986 1.6589991191189921 a24.60861643461838,24.60861643461838 0 0,0 -0.19797923917545,0.37450211009564865 l -3.175626501923643 -1.713916244300775" fill="#ff2e04" stroke="none" /><line stroke="#e1ed5e" stroke-width="0.3" x1="174.80103733775053" x2="179.2010983576182" y1="140.37084112569926" y2="142.7455964860345" /><path d="M 175.68104954172406 140.8457921977663 a86.0,86.0 0 0,1 -30.038265399797805,32.042727171017184" fill="none" id="id101" stroke="none" /><text fill="#e1ed5e" style="font-size:6.75px; font-family:Arial;" text-anchor="middle"><textPath startOffset="22.206326154141568" xlink:href="#id101">May</textPath></text><path d="M 117.94076556474637 110.91462005526583 l 5.709769999521173 3.473651663460102 a27.6833920524305,27.6833920524305 0 0,0 -0.25117452761537606,0.40497331422667043 l -5.649130832237834 -3.571421309052046" fill="#ff5908" stroke="none" /><path d="M 117.75023020441432 111.22182372390056 l 1.5084042706033054 0.9536240732742423 a22.784567823508663,22.784567823508663 0 0,0 -0.21243369380470198,0.3297018103185217 l -1.491765713421553 -0.9794474835142168" fill="#ff1402" stroke="none" /><path d="M 117.35343817320211 111.8261652097733 l 1.3651404944109204 0.9303272850210141 a22.6520040637768,22.6520040637768 0 0,0 -0.22235540803174067,0.3203195493196982 l -1.3489241792170437 -0.9536880965277319" fill="#ff1202" stroke="none" /><path d="M 117.14729908036423 112.12312394758627 l 2.87923828316513 2.035618695274132 a24.52615322466186,24.52615322466186 0 0,0 -0.24668662744480271,0.34262614969867444 l -2.8437718633447244 -2.0848784504239375" fill="#ff2d04" stroke="none" /><path d="M 116.71984013943494 112.70617746262583 l 1.4321047701487222 1.0883224482311114 a22.798713380171083,22.798713380171083 0 0,0 -0.24013904647109768,0.31041208863312103 l -1.413158906459556 -1.112812530977485" fill="#ff1402" stroke="none" /><path d="M 116.498646956653 112.99209946851258 l 2.895506345120112 2.280108577772811 a24.68549211382469,24.68549211382469 0 0,0 -0.2657594094784249,0.3315757257015975 l -2.8558290235868333 -2.329612137052659" fill="#ff2f04" stroke="none" /><path d="M 115.07121518719521 114.62390073753431 l 3.0899561126120267 2.9982460546756458 a25.305497437259312,25.305497437259312 0 0,0 -0.3060270624678629,0.3100037985848994 l -3.0378884250886284 -3.0509903472412097" fill="#ff3805" stroke="none" /><path d="M 112.63410532772338 116.77436683061366 l 0.43659092212340517 0.5796640199400299 a21.725687266867485,21.725687266867485 0 0,0 -0.30065767846370073,0.22241936281750418 l -0.42654827324114014 -0.5870933314973031" fill="#ff0500" stroke="none" /><path d="M 112.34349029814194 116.9893568818739 l 1.4679821865299754 2.0205041411135993 a23.497480467236237,23.497480467236237 0 0,0 -0.3292698269482022,0.23492527887141065 l -1.4329850317328885 -2.0454736818292294" fill="#ff1e03" stroke="none" /><path d="M 112.04921762599082 117.19931262002967 l 2.1016829469174567 2.999987480867341 a24.662921797516898,24.662921797516898 0 0,0 -0.3497943553559349,0.24059174720903453 l -2.0497317069386387 -3.0357200174414696" fill="#ff2f04" stroke="none" /><path d="M 111.45004920935366 117.60387380957326 l 1.8119204739878636 2.785736444783806 a24.323158639585706,24.323158639585706 0 0,0 -0.35293852710386625,0.22526206670613974 l -1.763700144837067 -2.8165129403137548" fill="#ff2a04" stroke="none" /><line stroke="#e1ed5e" stroke-width="0.3" x1="143.8653032363475" x2="146.44561519142675" y1="172.8068346515853" y2="177.08958963109032" /><path d="M 144.38136562736335 173.6633856474863 a86.0,86.0 0 0,1 -40.68145358897372,12.25698825130547" fill="none" id="id102" stroke="none" /><text fill="#e1ed5e" style="font-size:6.75px; font-family:Arial;" text-anchor="middle"><textPath startOffset="21.466115282336833" xlink:href="#id102">June</textPath></text><path d="M 110.8373102113329 117.98757091392108 l 1.7032374315195704 2.827002594302865 a24.30044866894253,24.30044866894253 0 0,0 -0.36014668448573817,0.21278100929274318 l -1.6543228760054502 -2.8559021758893577" fill="#ff2a04" stroke="none" /><path d="M 106.2309692047433 120.05430185196036 l 0.6522653635003972 2.099308479531234 a23.198305301056713,23.198305301056713 0 0,0 -0.38235781025101123,0.11520127169968519 l -0.6160325788091402 -2.110225120336645" fill="#ff1a02" stroke="none" /><path d="M 105.53697534728816 120.25689768951611 l 0.7522524055955917 2.7520982235013083 a23.85305596046124,23.85305596046124 0 0,0 -0.3969938583968276,0.10484968622363243 l -0.7047681043872667 -2.7646392590285247" fill="#ff2303" stroke="none" /><path d="M 104.13013068566511 120.58985236759428 l 0.31537096243116153 1.5722121287883768 a22.603530424361832,22.603530424361832 0 0,0 -0.3821421583648684,0.07323845415662944 l -0.28826118949458873 -1.5774077812934744" fill="#ff1101" stroke="none" /><line stroke="#e1ed5e" stroke-width="0.3" x1="102.19456741930631" x2="102.32365962044197" y1="184.97166512339345" y2="189.96999836594603" /><path d="M 102.22038585953345 185.97133177190398 a86.0,86.0 0 0,1 -42.740103519485714,-10.115201625700543" fill="none" id="id103" stroke="none" /><text fill="#e1ed5e" style="font-size:6.75px; font-family:Arial;" text-anchor="middle"><textPath startOffset="22.20632615414155" xlink:href="#id103">July</textPath></text><path d="M 97.65516085044442 120.86867818915974 l -0.18051176445554928 1.6065246618277542 a22.61663415347061,22.61663415347061 0 0,0 -0.386499513359998,-0.04679970853101374 l 0.2081387008669366 -1.603179424571392" fill="#ff1202" stroke="none" /><path d="M 94.81253420990036 120.34920634021253 l -2.6120747405316003 10.246553909344176 a31.57425181595462,31.57425181595462 0 0,0 -0.525500131940611,-0.13878936104189088 l 2.7880653152837005 -10.200073198998702" fill="#ff8d0d" stroke="none" /><path d="M 93.76903079525671 120.05430185196036 l -0.5523599201041103 1.77776397294021 a22.86159776128507,22.86159776128507 0 0,0 -0.3747981012536758,-0.11999851628748943 l 0.5828793664487264 -1.767992609993014" fill="#ff1502" stroke="none" /><path d="M 93.42475214034765 119.94407469862007 l -1.1252633510637324 3.413154425241879 a24.593861535979844,24.593861535979844 0 0,0 -0.4009153898912795,-0.1360122675918971 l 1.1838484738922377 -3.393279170751859" fill="#ff2e04" stroke="none" /><path d="M 92.7421414339146 119.70592522655815 l -0.8798984107979224 2.389025927175554 a23.54591164301547,23.54591164301547 0 0,0 -0.3791225669452716,-0.14335171459019652 l 0.920891198503477 -2.373525962478724" fill="#ff1f03" stroke="none" /><path d="M 92.06813273071674 119.44442032107085 l -0.34267589181146896 0.8400460885274117 a21.907250901172873,21.907250901172873 0 0,0 -0.3479377818805282,-0.14543802104465095 l 0.35708513318945945 -0.8340230244627875" fill="#ff0701" stroke="none" /><path d="M 91.7346041902142 119.30500536409082 l -0.9932054770614352 2.319772398511705 a23.523450237385628,23.523450237385628 0 0,0 -0.37086323972932295,-0.16257554563136606 l 1.0329893914485015 -2.3023322995858866" fill="#ff1f03" stroke="none" /><path d="M 91.07499286063937 119.00905698771935 l -1.112119091201263 2.368663111600593 a23.616748709614992,23.616748709614992 0 0,0 -0.36649520130881696,-0.17593996850494018 l 1.152726960510322 -2.34916886659609" fill="#ff2003" stroke="none" /><path d="M 90.7491055286396 118.85261126421891 l -1.5834760143107136 3.227002300851524 a24.59457092538155,24.59457092538155 0 0,0 -0.37845902317886865,-0.18976721090232745 l 1.6387889451723427 -3.1992672490398943" fill="#ff2e04" stroke="none" /><path d="M 90.10565033884886 118.52300852407294 l -5.431785389044212 10.168733722565365 a32.528548825982924,32.528548825982924 0 0,0 -0.4916104457325759,-0.2680652123345352 l 5.6060186466454285 -10.073727858471063" fill="#ff990e" stroke="none" /><line stroke="#e1ed5e" stroke-width="0.3" x1="58.666819895761336" x2="56.23545636021788" y1="174.27360380694188" y2="178.64263932499728" /><path d="M 58.180547188652646 175.14741091055294 a86.0,86.0 0 0,1 -31.652253787137756,-30.449443065178592" fill="none" id="id104" stroke="none" /><text fill="#e1ed5e" style="font-size:6.75px; font-family:Arial;" text-anchor="middle"><textPath startOffset="22.20632615414155" xlink:href="#id104">August</textPath></text><path d="M 89.1626897886671 117.98757091392108 l -1.2963729370138373 2.151696286320158 a23.512046914447627,23.512046914447627 0 0,0 -0.3448666429436786,-0.21184525927074938 l 1.3332187798898245 -2.1290625602210307" fill="#ff1e03" stroke="none" /><path d="M 88.24862548938628 117.40417183066458 l -35.25412353184113 52.212515491993734 a84.0,84.0 0 0,0 -1.191372461508439,-0.8194368425395955 l 36.14765287797246 -51.59793786008904" fill="#4dd2ff" stroke="none" /><path d="M 87.65650970185807 116.9893568818739 l -1.0607872118081596 1.4600483397997768 a22.804718998428235,22.804718998428235 0 0,0 -0.31559019458688337,-0.23346608125939536 l 1.0857623768136073 -1.4415723098006148" fill="#ff1402" stroke="none" /><path d="M 86.24171649860922 115.8653595955263 l -1.0956712868691991 1.263472944347722 a22.672381370970243,22.672381370970243 0 0,0 -0.2926439213533194,-0.25822423546900714 l 1.1172575611291062 -1.244425567106426" fill="#ff1202" stroke="none" /><path d="M 85.97065885151581 115.62618273729859 l -1.2639297553820785 1.407792220295634 a22.89192953411725,22.89192953411725 0 0,0 -0.29094601458232905,-0.26577228605753234 l 1.2879753194312624 -1.3858271676515257" fill="#ff1602" stroke="none" /><path d="M 85.70375840098266 115.38237550388516 l -1.2081456874451777 1.2999326080890095 a22.774666387709384,22.774666387709384 0 0,0 -0.28486136875024726,-0.26935420430350865 l 1.230342890586242 -1.27894376703957" fill="#ff1402" stroke="none" /><path d="M 85.18274418774928 114.88116024355367 l -1.3092534696059197 1.3149000683733774 a22.85556105733103,22.85556105733103 0 0,0 -0.27639923810118494,-0.27999096892398756 l 1.331693332762638 -1.2921686054687251" fill="#ff1502" stroke="none" /><path d="M 84.9287848128048 114.62390073753433 l -1.264303143486126 1.2267785605106607 a22.761660601579518,22.761660601579518 0 0,0 -0.2704231047537994,-0.28353754419703286 l 1.2852327996188828 -1.2048338997311276" fill="#ff1402" stroke="none" /><path d="M 84.19399662182784 113.82643327865904 l -1.3591061248851362 1.1888894178203229 a22.80572077202026,22.80572077202026 0 0,0 -0.25592090116970745,-0.29769382541611134 l 1.3793695356256224 -1.1653184932426814" fill="#ff1402" stroke="none" /><path d="M 83.72743513129214 113.27417163493432 l -1.439647885666127 1.1743774434079086 a22.8578881597901,22.8578881597901 0 0,0 -0.2460837657705628,-0.30702733490751627 l 1.4596495634915507 -1.1494222749221326" fill="#ff1502" stroke="none" /><path d="M 83.28015986056508 112.70617746262583 l -1.4545284434379822 1.1053632315042303 a22.826877353938023,22.826877353938023 0 0,0 -0.23505024020581938,-0.3148882081169759 l 1.4733399503388867 -1.0801621438779465" fill="#ff1502" stroke="none" /><path d="M 83.06392112726016 112.41649034213515 l -1.6955712698101633 1.243088465411348 a23.1024345088122,23.1024345088122 0 0,0 -0.23236671493239255,-0.3227370436738781 l 1.7167177771181634 -1.2137178162863318" fill="#ff1902" stroke="none" /><path d="M 82.6465618267979 111.8261652097733 l -1.5092828083676588 1.0285585865969635 a22.826435698757695,22.826435698757695 0 0,0 -0.21847822333294958,-0.3265953003681498 l 1.5267641371113387 -1.002426372022993" fill="#ff1502" stroke="none" /><path d="M 82.24976979558568 111.22182372390057 l -1.4845870261366112 0.9385666393189468 a22.756390040570604,22.756390040570604 0 0,0 -0.2064712845826981,-0.3328974526355359 l 1.5005229503872652 -0.9128728553181468" fill="#ff1402" stroke="none" /><line stroke="#e1ed5e" stroke-width="0.3" x1="26.63291911575756" x2="22.317208475507996" y1="142.92168965132927" y2="145.44649492493687" /><path d="M 25.769776987707644 143.4266507060508 a86.0,86.0 0 0,1 -11.730757126820373,-40.83630448921669" fill="none" id="id105" stroke="none" /><text fill="#e1ed5e" style="font-size:6.75px; font-family:Arial;" text-anchor="middle"><textPath startOffset="21.46611528233685" xlink:href="#id105">September</textPath></text><path d="M 81.87401531095188 110.60418214915194 l -1.6183407157055618 0.9467722732381881 a22.874941174939362,22.874941174939362 0 0,0 -0.1959053575449828,-0.3415775037914117 l 1.6343980694029219 -0.9187749235884695" fill="#ff1502" stroke="none" /><path d="M 81.69416730710424 110.29060199501025 l -1.5792686872081276 0.8877840072005141 a22.811698106704615,22.811698106704615 0 0,0 -0.1894713471561648,-0.34394553076148837 l 1.5943164438158088 -0.8604679580412032" fill="#ff1402" stroke="none" /><path d="M 81.18737489456691 109.33194174019688 l -1.6854138017771398 0.836044056486604 a22.881379639415567,22.881379639415567 0 0,0 -0.1719881552497154,-0.35434654102328633 l 1.6995552136415741 -0.8069085594980329" fill="#ff1502" stroke="none" /><path d="M 81.02952815118164 109.00673069616217 l -1.6081604559636993 0.7635164933435533 a22.78020714742218,22.78020714742218 0 0,0 -0.16512979816592666,-0.35567489461291263 l 1.6210648709694526 -0.7357215314518135" fill="#ff1402" stroke="none" /><path d="M 80.87730276802145 108.67885076344099 l -1.7143785412930475 0.7780720120928555 a22.882681555348196,22.882681555348196 0 0,0 -0.1596981422472086,-0.36007715168917703 l 1.727517768271536 -0.7484465239109825" fill="#ff1502" stroke="none" /><path d="M 80.73074385275274 108.34839909993369 l -1.6566749536127074 0.7177538969815813 a22.805475715306056,22.805475715306056 0 0,0 -0.15295851799731133,-0.36154875332986497 l 1.6687844528023255 -0.6891306179855575" fill="#ff1402" stroke="none" /><path d="M 80.58989483394504 108.01547362559985 l -1.6730926534676644 0.6909097051420356 a22.810136803599917,22.810136803599917 0 0,0 -0.1467423738379854,-0.36420253761138777 l 1.6847376415630377 -0.6620077996878425" fill="#ff1402" stroke="none" /><path d="M 80.32549172779594 107.34259656027581 l -1.7945927925945526 0.6697484218508685 a22.915496342936745,22.915496342936745 0 0,0 -0.13473846882743773,-0.3707423983433822 l 1.8058555224272148 -0.6387582265013692" fill="#ff1602" stroke="none" /><path d="M 80.0844068197444 106.66101706037122 l -1.7165403525635772 0.5741182032467524 a22.810006213602144,22.810006213602144 0 0,0 -0.12133592611556485,-0.3734335822737884 l 1.7261685296953913 -0.5444857209951607" fill="#ff1402" stroke="none" /><path d="M 79.97269907076064 106.31721596034903 l -1.7378344985738456 0.5481655201379554 a22.82223878289908,22.82223878289908 0 0,0 -0.114951516890619,-0.37566820824879965 l 1.747012787970595 -0.5181703393371079" fill="#ff1502" stroke="none" /><path d="M 79.86692584326677 105.97154293290107 l -1.733388568450128 0.5141293463342321 a22.808027907416157,22.808027907416157 0 0,0 -0.10840043444130268,-0.377356133091157 l 1.7419816397775347 -0.4842157377384792" fill="#ff1402" stroke="none" /><path d="M 79.76711848015287 105.62410040840567 l -1.7499456312069044 0.48642947518395974 a22.816293849163145,22.816293849163145 0 0,0 -0.10192573413053924,-0.37930357400352555 l 1.7580594416792186 -0.45623496800489527" fill="#ff1502" stroke="none" /><path d="M 79.58551787078972 104.9243191809786 l -1.8216292501267213 0.43940785763041484 a22.87387630068385,22.87387630068385 0 0,0 -0.08903322399011354,-0.38355279873344916 l 1.82892304004739 -0.4079864015483915" fill="#ff1502" stroke="none" /><path d="M 79.50377843672027 104.57218783832718 l -1.7733969520250301 0.3955999378491235 a22.81698543204889,22.81698543204889 0 0,0 -0.08221281600601957,-0.3840709063243807 l 1.7799438067554905 -0.365015212108579" fill="#ff1502" stroke="none" /><path d="M 79.29508885075956 103.50808413554451 l -4.574184854746223 0.7750154157300919 a25.639376680116523,25.639376680116523 0 0,0 -0.06998114717020536,-0.4357726702310973 l 4.586847756277719 -0.696163515805781" fill="#ff3c05" stroke="none" /><path d="M 79.23777060512086 103.15116336523772 l -3.569921121796255 0.5418206514261567 a24.610804125698166,24.610804125698166 0 0,0 -0.05996357849218795,-0.4193851283135489 l 3.5787187513050425 -0.4802900511322071" fill="#ff2e04" stroke="none" /><path d="M 79.07016306316243 101.71520430193888 l -2.8717631520355402 0.2353415617802309 a23.881390159643477,23.881390159643477 0 0,0 -0.030048976757021836,-0.40999441382635177 l 2.8753886874568972 -0.1858740114571185" fill="#ff2403" stroke="none" /><path d="M 79.0095281055655 100.63252640178507 l -1.472073616769711 0.04435943282556548 a22.472741828179693,22.472741828179693 0 0,0 -0.008323408439790124,-0.38675608399158573 l 1.4726190878945087 -0.019013533043850946" fill="#ff1001" stroke="none" /><line stroke="#e1ed5e" stroke-width="0.3" x1="15.007084014347285" x2="10.007500721073583" y1="101.09737516637583" y2="101.16192664675087" /><path d="M 14.007167355692545 101.11028546245083 a86.0,86.0 0 0,1 10.666146001902534,-42.60595125391555" fill="none" id="id106" stroke="none" /><text fill="#e1ed5e" style="font-size:6.75px; font-family:Arial;" text-anchor="middle"><textPath startOffset="22.20632615414155" xlink:href="#id106">October</textPath></text><path d="M 79.00019446554 99.90962569577889 l -1.895302502061654 -0.008156582432694176 a22.89532005322535,22.89532005322535 0 0,0 0.005088204558382244,-0.3940870504448547 l 1.8948812903855563 0.04077989093802088" fill="#ff1602" stroke="none" /><path d="M 79.00486145842228 99.54816195383935 l -7.200769491106329 -0.15496833284864783 a28.202436840974975,28.202436840974975 0 0,0 0.01462270235332894,-0.48525630219073307 l 7.197035094297354 0.2788947824643753" fill="#ff6008" stroke="none" /><path d="M 79.01574976396665 99.18683210126434 l -5.361311513779375 -0.20775802657180592 a26.365335455066003,26.365335455066003 0 0,0 0.021476940826170625,-0.4533442763325203 l 5.356940964719706 0.3000134095273353" fill="#ff4606" stroke="none" /><path d="M 79.03285615573316 98.82574320788736 l -1.81049016099683 -0.10139580213663486 a22.813327254457192,22.813327254457192 0 0,0 0.025333014704612144,-0.39189052482262654 l 1.8084765552878048 0.13254539121227318" fill="#ff1402" stroke="none" /><path d="M 79.08570108090925 98.10471618934814 l -4.5642894767005115 -0.41362246880877923 a25.582992687515713,25.582992687515713 0 0,0 0.04351895392612318,-0.4382299270242395 l 4.55649339709216 0.4921279265374491" fill="#ff3c05" stroke="none" /><path d="M 79.32604984820605 96.31383870115002 l -1.7367887337662904 -0.3096690940861362 a22.764179711245326,22.764179711245326 0 0,0 0.0721020444894904,-0.3851720047612946 l 1.7312009653669385 0.33951917631000345" fill="#ff1402" stroke="none" /><path d="M 79.54389044137918 95.25157060432595 l -3.5102041575655427 -0.814815571789754 a24.603534049210786,24.603534049210786 0 0,0 0.09931298500187122,-0.41171643896493104 l 3.495658372302857 0.8751172424140817" fill="#ff2e04" stroke="none" /><path d="M 79.62865764111835 94.90015583598534 l -3.5026520533828323 -0.8768680687961803 a24.610743554607737,24.610743554607737 0 0,0 0.10641646619797969,-0.4100660542694051 l 3.4870392553145453 0.9370305486144492" fill="#ff2e04" stroke="none" /><path d="M 79.71946130924805 94.55025226153421 l -2.1918004680527585 -0.5889764481150424 a23.269555583851275,23.269555583851275 0 0,0 0.1072762296932483,-0.38592967544381085 l 2.1813374677931496 0.6266174269777958" fill="#ff1b02" stroke="none" /><path d="M 79.91906864156998 93.8553929516997 l -3.554447173068265 -1.087632877310623 a24.717127921115974,24.717127921115974 0 0,0 0.12799295802005609,-0.40577265415341696 l 3.5351987312800053 1.1486556978904543" fill="#ff2f04" stroke="none" /><path d="M 80.02781315780177 93.51064311812611 l -1.4125001005583868 -0.4589491036023804 a22.485190497469898,22.485190497469898 0 0,0 0.12277203773795838,-0.3670727661165758 l 1.4043907690486561 0.48319497264127836" fill="#ff1001" stroke="none" /><path d="M 80.2630227832202 92.82701384747504 l -1.7516975476547965 -0.6366173560790994 a22.863793431826867,22.863793431826867 0 0,0 0.1376132656775972,-0.36873513500477484 l 1.7404796934755715 0.6666756281132157" fill="#ff1502" stroke="none" /><path d="M 80.38941819471856 92.48833698450439 l -2.6443084478885863 -1.0128793814887154 a23.831658844038227,23.831658844038227 0 0,0 0.1500332864857569,-0.38181834919339724 l 2.6264816115211382 1.058246735577876" fill="#ff2303" stroke="none" /><path d="M 80.803312248108 91.48605970444005 l -5.940986803076451 -2.634892414349825 a27.499075490369904,27.499075490369904 0 0,0 0.19563324590053088,-0.4310519251723909 l 5.894751240212569 2.736766348364287" fill="#ff5608" stroke="none" /><path d="M 80.95270993114464 91.15688171328213 l -2.9102826033634885 -1.3511619351774358 a24.208641987899647,24.208641987899647 0 0,0 0.17873102754487485,-0.3764531261043663 l 2.886593381976862 1.4010574769223343" fill="#ff2803" stroke="none" /><path d="M 81.10775173730289 90.83032412892265 l -2.2599662057639334 -1.0969132576646148 a23.51210388838428,23.51210388838428 0 0,0 0.17985638400324114,-0.36257949516521587 l 2.2407498088072795 1.135652341328792" fill="#ff1e03" stroke="none" /><path d="M 81.43458229118936 90.18545643968196 l -3.043024395856155 -1.6086842729138917 a24.442072422784886,24.442072422784886 0 0,0 0.1998336130146528,-0.370261335450134 l 3.0148826836230302 1.6608265916964984" fill="#ff2c04" stroke="none" /><line stroke="#e1ed5e" stroke-width="0.3" x1="26.266209847984243" x2="21.928928074336255" y1="57.711370442889674" y2="55.22380399835377" /><path d="M 25.398753493254645 57.213857153982495 a86.0,86.0 0 0,1 29.58750427330803,-30.492523968695096" fill="none" id="id107" stroke="none" /><text fill="#e1ed5e" style="font-size:6.75px; font-family:Arial;" text-anchor="middle"><textPath startOffset="21.46611528233685" xlink:href="#id107">November</textPath></text><path d="M 81.96595687620814 89.24020034530311 l -3.585546913970436 -2.139274381347202 a25.175241496125867,25.175241496125867 0 0,0 0.22523953102149114,-0.3702345662522959 l 3.5481915846627277 2.2006767208065727" fill="#ff3605" stroke="none" /><path d="M 82.7489923806493 88.02491185347247 l -2.347937831119528 -1.629862041141528 a23.858192143988276,23.858192143988276 0 0,0 0.23709064832117174,-0.335347908137986 l 2.3195345629944777 1.6700364496113003" fill="#ff2303" stroke="none" /><path d="M 83.17141714833178 87.43820079747576 l -6.9343131601917545 -5.176160719743263 a29.653169292243255,29.653169292243255 0 0,0 0.30885055108672543,-0.4064111221754692 l 6.84418666888092 5.2947566177997585" fill="#ff730a" stroke="none" /><path d="M 83.39014120810768 87.1503855733568 l -2.7822816156526837 -2.1524111935813655 a24.51766469906574,24.51766469906574 0 0,0 0.2611083649195856,-0.3315811074782634 l 2.744819170139127 2.1999846950126765" fill="#ff2d04" stroke="none" /><path d="M 83.84228863543731 86.58626213691792 l -2.1907556930763605 -1.818711940444193 a23.84730111317029,23.84730111317029 0 0,0 0.26492010698472934,-0.3135818465667427 l 2.159124972604507 1.8561527366400516" fill="#ff2303" stroke="none" /><path d="M 84.31358615837235 86.03803664274999 l -11.483330643472897 -10.220936619552981 a36.373172348225424,36.373172348225424 0 0,0 0.420294361012644,-0.4640995308986219 l 11.305692641844209 10.417088937721159" fill="#ffcb12" stroke="none" /><path d="M 84.5562425177563 85.77008943001954 l -1.5228964631278943 -1.4031999986120685 a23.07079305424573,23.07079305424573 0 0,0 0.2716120929079322,-0.2897368431086694 l 1.498517048249506 1.429206258598788" fill="#ff1802" stroke="none" /><path d="M 84.80347519578584 85.50635884689758 l -3.068775329489652 -2.9268355086540896 a25.240724951892396,25.240724951892396 0 0,0 0.3025710704967478,-0.31182608489487 l 3.017939995289786 2.9792257890990834" fill="#ff3705" stroke="none" /><path d="M 85.05521093208273 85.24692304244772 l -3.5949763623637123 -3.5488599199028057 a26.051560330932055,26.051560330932055 0 0,0 0.3177846241221988,-0.31641995595459715 l 3.5333559380742003 3.610215726507512" fill="#ff4206" stroke="none" /><path d="M 85.31137513191541 84.99185889309783 l -1.2849443156659117 -1.3128952354095071 a22.837056284799985,22.837056284799985 0 0,0 0.28330646803602466,-0.27254059778723233 l 1.2621546040174594 1.3348189199590532" fill="#ff1502" stroke="none" /><path d="M 86.10567301691215 84.25364557470407 l -10.660301078189358 -12.081252964742669 a37.112066666810584,37.112066666810584 0 0,0 0.48264455008287316,-0.4185445977734923 l 10.450762729459711 12.262962555935841" fill="#ffd413" stroke="none" /><path d="M 86.65592168130627 83.78471172551755 l -1.0765054022673277 -1.3081342157853273 a22.694130752810725,22.694130752810725 0 0,0 0.3037734774832357,-0.24563035942877998 l 1.0538285262195917 1.3264706724782416" fill="#ff1302" stroke="none" /><path d="M 87.22198572758235 83.33499621200491 l -1.875111373184223 -2.4455081572792263 a24.08164774255009,24.08164774255009 0 0,0 0.33112706711890116,-0.24939804196992557 l 1.8327381523069322 2.4774227887550064" fill="#ff2703" stroke="none" /><path d="M 87.80319425747018 82.90503203632743 l -1.270180968951443 -1.7802778391867464 a23.186949674452034,23.186949674452034 0 0,0 0.3269016079355254,-0.22901546726433422 l 1.2393482214322573 1.8018781492150233" fill="#ff1a02" stroke="none" /><path d="M 88.09926311788651 82.69761687909137 l -17.41042112383929 -25.31286756148578 a51.72237015424996,51.72237015424996 0 0,0 0.7378942520181236,-0.4982294928516097 l 16.972122177414626 25.608808966636058" fill="#82ff25" stroke="none" /><path d="M 88.39885842347998 82.49532879139004 l -1.1505504281088874 -1.7360366495081485 a23.08268805538828,23.08268805538828 0 0,0 0.3330864578246581,-0.21664869757175623 l 1.1204969444999422 1.7555842712394398" fill="#ff1802" stroke="none" /><path d="M 88.70189139769569 82.29822771554957 l -2.4226427530444257 -3.7957743061719054 a25.503010159024015,25.503010159024015 0 0,0 0.37207780331338547,-0.23299508630035973 l 2.3569457973587977 3.8369137337951953" fill="#ff3a05" stroke="none" /><path d="M 89.00827224532344 82.1063720568725 l -1.0909036136884034 -1.7759012796553733 a23.084201537625383,23.084201537625383 0 0,0 0.34036878414884236,-0.2050683840373605 l 1.0601727633219118 1.7944162731513529" fill="#ff1802" stroke="none" /><line stroke="#e1ed5e" stroke-width="0.3" x1="56.762969772571076" x2="54.21961505331055" y1="26.818313649435495" y2="22.513508569990535" /><path d="M 56.25429882871897 25.957352633546506 a86.0,86.0 0 0,1 42.265352541879196,-11.944610805530505" fill="none" id="id108" stroke="none" /><text fill="#e1ed5e" style="font-size:6.75px; font-family:Arial;" text-anchor="middle"><textPath startOffset="22.20632615414155" xlink:href="#id108">December</textPath></text><path d="M 89.3179101791058 81.91981866633112 l -1.7593182845211557 -2.977768783179827 a24.45865692897268,24.45865692897268 0 0,0 0.36432132413773294,-0.2110384262549031 l 1.7078002279181026 3.007611366824777" fill="#ff2c04" stroke="none" /><path d="M 89.63071344664047 81.73862282372117 l -1.3376851354775765 -2.355800727113988 a23.70909552942462,23.70909552942462 0 0,0 0.35662534036356636,-0.19846161580226246 l 1.2969357060419646 2.3784777404764355" fill="#ff2103" stroke="none" /><path d="M 90.26544431104013 81.39251694778311 l -2.8721815431320206 -5.490139570245724 a27.19605191371781,27.19605191371781 0 0,0 0.41666878486810655,-0.21343393511284964 l 2.77725227067515 5.538766030671079" fill="#ff5207" stroke="none" /><path d="M 91.23893434514133 80.91482961587045 l -2.2213005887703106 -4.838897673085927 a26.324387945695516,26.324387945695516 0 0,0 0.4134406602337179,-0.18549877274089013 l 2.137677810069818 4.876416776343346" fill="#ff4606" stroke="none" /><path d="M 91.56875222667455 80.76684994638697 l -0.9492155538659401 -2.165326612566901 a23.36424396092947,23.36424396092947 0 0,0 0.3697294169126936,-0.15829884093112703 l 0.9118023791629383 2.1813449814608146" fill="#ff1c02" stroke="none" /><path d="M 92.23578459929587 80.48803036053334 l -0.44204188053482196 -1.1108795038821286 a22.19559788235517,22.19559788235517 0 0,0 0.3562042928214869,-0.1382017316490173 l 0.4228544227136587 1.1183239394216975" fill="#ff0c01" stroke="none" /><path d="M 92.57280143429618 80.3572730644239 l -0.7028296112115152 -1.858774881691437 a22.987212500766525,22.987212500766525 0 0,0 0.37131756007055894,-0.13675939105178217 l 0.6707297253683868 1.8705975405495414" fill="#ff1702" stroke="none" /><path d="M 93.25333710446033 80.11325718540243 l -0.3290820076993982 -0.9700157475417874 a22.024317098495636,22.024317098495636 0 0,0 0.3600631613473224,-0.11870716324344747 l 0.3123360241096665 0.9755366350444689" fill="#ff0901" stroke="none" /><path d="M 93.59665428221793 80.00007090966166 l -1.6573903146500626 -5.17662019652691 a26.435470477721882,26.435470477721882 0 0,0 0.43456719467539495,-0.13502214275035407 l 1.568037747263939 5.2043824741597895" fill="#ff4706" stroke="none" /><path d="M 94.28887869178378 79.79150937346287 l -0.2782965710845492 -0.9847372073972073 a22.023306576305394,22.023306576305394 0 0,0 0.36569397568717926,-0.09995797772526914 l 0.2613047061736474 0.9893817259487724" fill="#ff0901" stroke="none" /><path d="M 94.63758080256005 79.69619591428918 l -1.9532871000991245 -7.395758731897044 a28.64935145720505,28.64935145720505 0 0,0 0.47788634097135185,-0.12182386889683926 l 1.8256918704427734 7.428285596962747" fill="#ff6609" stroke="none" /><path d="M 94.98787191387505 79.60689891045804 l -1.0247207153610598 -4.169333420419872 a25.293412828405877,25.293412828405877 0 0,0 0.42369635756719826,-0.10027523875587258 l 0.9528006708313275 4.186354571316616" fill="#ff3805" stroke="none" /></svg>