<?xml version="1.0" encoding="utf-8" ?>
<svg baseProfile="full" height="200mm" version="1.1" viewBox="0,0,200,200" width="200mm" xmlns="http://www.w3.org/2000/svg" xmlns:ev="http://www.w3.org/2001/xml-events" xmlns:xlink="http://www.w3.org/1999/xlink"><defs /><rect fill="#1a1a1a" height="200" width="200" x="0" y="0" /><text alignment-baseline="middle" fill="#e1ed5e" style="dominant-baseline: central; font-size:9.0px; font-family:Arial;" text-anchor="middle" x="100.0" y="100.0">2020</text><line stroke="#e1ed5e" stroke-width="0.3" x1="100.0" x2="100.0" y1="15.0" y2="10.0" /><path d="M 100.0 14.0 a86.0,86.0 0 0,1 42.35913384403234,11.155469271406648" fill="none" id="id73" stroke="none" /><text fill="#e1ed5e" style="font-size:6.75px; font-family:Arial;" text-anchor="middle"><textPath startOffset="22.145653131862478" xlink:href="#id73">January</textPath></text><path d="M 101.44090949804482 79.04949213459386 l 2.894211788328683 -42.08120421012408 a63.18061414500582,63.18061414500582 0 0,0 1.0813843644217878,0.08370598895895053 l -3.6161651475257046 42.02532045417007" fill="#33ff50" stroke="none" /><path d="M 102.51750503828377 79.15144685158666 l 0.7937474733303461 -6.573367732136862 a27.621117609083562,27.621117609083562 0 0,0 0.4702458156861982,0.06088273548978972 l -0.906471110907336 6.558773400446676" fill="#ff4306" stroke="none" /><line stroke="#e1ed5e" stroke-width="0.3" x1="143.13028292997686" x2="145.6673583964461" y1="26.7553504044142" y2="22.446841604673864" /><path d="M 143.63769802327073 25.89364864446614 a86.0,86.0 0 0,1 29.32050498858742,28.57503671076993" fill="none" id="id74" stroke="none" /><text fill="#e1ed5e" style="font-size:6.75px; font-family:Arial;" text-anchor="middle"><textPath startOffset="20.669276256404974" xlink:href="#id74">February</textPath></text><path d="M 112.16784306229584 82.88440491214696 l 1.8983392166697024 -2.6702518437791456 a24.276268714674067,24.276268714674067 0 0,0 0.3375776886642491,0.24438021334390747 l -1.943897915707917 2.637270859062163" fill="#ff1302" stroke="none" /><path d="M 116.7966241395341 87.39550010848427 l 1.6020426056654484 -1.2022026379566189 a23.002955739170787,23.002955739170787 0 0,0 0.23429932267672743,0.31787202969879447 l -1.6224439479260016 1.1745242989889495" fill="#ff0000" stroke="none" /><line stroke="#e1ed5e" stroke-width="0.3" x1="172.87174338648825" x2="177.1583165268699" y1="56.24261187166439" y2="53.66864786411523" /><path d="M 173.72905801456457 55.72781907015455 a86.0,86.0 0 0,1 12.242430191666344,42.057860355516425" fill="none" id="id75" stroke="none" /><text fill="#e1ed5e" style="font-size:6.75px; font-family:Arial;" text-anchor="middle"><textPath startOffset="22.145653131862474" xlink:href="#id75">March</textPath></text><path d="M 119.16976305983485 91.42560881287824 l 9.4466195399819 -4.225352764084234 a31.34853741908112,31.34853741908112 0 0,0 0.2155079357923088,0.4931243317415997 l -9.517761357791178 4.062566362566785" fill="#ff770b" stroke="none" /><path d="M 119.71291397450082 92.76114493625339 l 6.67114279107606 -2.449736037839148 a28.106711813068962,28.106711813068962 0 0,0 0.1624297983932353,0.45434505483868837 l -6.712212759513239 2.334856026619543" fill="#ff4a06" stroke="none" /><path d="M 119.94978838288452 93.4421083053983 l 9.530630905400432 -3.1329076809887813 a31.03234947520133,31.03234947520133 0 0,0 0.16201145022919913,0.5074985603378558 l -9.58300707140689 2.9688400869595384" fill="#ff730a" stroke="none" /><path d="M 120.05942366710727 93.78553927170692 l 6.5069646703905395 -2.0158742880953318 a27.81207298603843,27.81207298603843 0 0,0 0.13737002659236242,0.45726014134615867 l -6.54061101698653 1.9038765431584497" fill="#ff4606" stroke="none" /><path d="M 120.26092885502905 94.47779374421319 l 9.507364043438033 -2.5912743474090254 a30.85417037593721,30.85417037593721 0 0,0 0.13489225721686218,0.5122078721169033 l -9.550445781459626 2.4276859709193235" fill="#ff710a" stroke="none" /><path d="M 120.35273937422433 94.82641323984039 l 6.569932137060329 -1.6700510577209646 a27.778870025378346,27.778870025378346 0 0,0 0.11351302606953202,0.46317188277881 l -6.597632689646153 1.5570233503340596" fill="#ff4506" stroke="none" /><path d="M 120.43855184770803 95.1765574152323 l 4.750035560882179 -1.1209954586919202 a25.880519301063483,25.880519301063483 0 0,0 0.09833258749866862,0.4332715240991557 l -4.768579009938515 1.0392896006537382" fill="#ff2a04" stroke="none" /><path d="M 120.592083275326 95.88100663000786 l 10.419405182431099 -2.0841728489472597 a31.62580730203409,31.62580730203409 0 0,0 0.10191598284279442,0.5332674878286163 l -10.45364745755605 1.9050027960853286" fill="#ff7b0b" stroke="none" /><path d="M 120.7213421655516 96.59031103205396 l 5.243853629117766 -0.8628741191509929 a26.314372270467338,26.314372270467338 0 0,0 0.0695181956611304,0.4463566851331447 l -5.257893316917162 0.772729252086407" fill="#ff3004" stroke="none" /><path d="M 120.77682067341334 96.94652285012252 l 10.244132022672993 -1.5055346312724032 a31.354171884989874,31.354171884989874 0 0,0 0.0736904910187923,0.5331876841349544 l -10.268467030246997 1.329458638937363" fill="#ff770b" stroke="none" /><path d="M 120.82617615685814 97.30363454192243 l 11.463835445322736 -1.4842230123783204 a32.559517337151725,32.559517337151725 0 0,0 0.06700735293828614,0.5549170062518267 l -11.487624884520685 1.2872123292030808" fill="#ff880c" stroke="none" /><path d="M 120.86939407059847 97.66154086499901 l 10.000582046927084 -1.1205860775761776 a31.063168210587452,31.063168210587452 0 0,0 0.05483034892885919,0.5304338878038698 l -10.01834478833761 0.9487476674893764" fill="#ff730a" stroke="none" /><path d="M 120.96210409425399 98.7389718711861 l 7.964317325732644 -0.47911355317149856 a28.978715451863025,28.978715451863025 0 0,0 0.025609471351277866,0.49681690258953665 l -7.971368386540494 0.34232485720523126" fill="#ff5608" stroke="none" /><line stroke="#e1ed5e" stroke-width="0.3" x1="184.99686870605535" x2="189.99668451229388" y1="99.2704041080226" y2="99.22748670261217" /><path d="M 185.99683186730306 99.26182062694052 a86.0,86.0 0 0,1 -10.086455211305974,41.156179273409016" fill="none" id="id76" stroke="none" /><text fill="#e1ed5e" style="font-size:6.75px; font-family:Arial;" text-anchor="middle"><textPath startOffset="21.40746469413373" xlink:href="#id76">April</textPath></text><path d="M 120.99922638620191 99.81974689727618 l 12.556275605386464 -0.10778052462035408 a33.55673817995385,33.55673817995385 0 0,0 0.0,0.5760672546883604 l -12.556275605386464 -0.10778052462035255" fill="#ff950d" stroke="none" /><path d="M 120.99303781780057 100.54070618675476 l 11.964143213119122 0.30815388943224314 a32.96811103071811,32.96811103071811 0 0,0 -0.01942812824418463,0.5656287558820274 l -11.957090397878092 -0.5134889098783812" fill="#ff8d0d" stroke="none" /><path d="M 120.96210409425399 101.26102812881392 l 14.86461795667959 0.894218504171227 a35.89149064839526,35.89149064839526 0 0,0 -0.04227682412011299,0.6146957442189639 l -14.847077171394412 -1.1492576725445343" fill="#ffb410" stroke="none" /><path d="M 120.93736805541906 101.62068470465957 l 6.390906455916638 0.4946965786052275 a27.410024183508256,27.410024183508256 0 0,0 -0.04034021663235978,0.46881446560192375 l -6.381472616586538 -0.6043320915828085" fill="#ff4006" stroke="none" /><path d="M 120.82617615685814 102.69636545807757 l 9.451486850138236 1.22368419810926 a30.530372851837345,30.530372851837345 0 0,0 -0.07175434818343418,0.5191787190667537 l -9.429087985399592 -1.385751225376099" fill="#ff6c0a" stroke="none" /><path d="M 120.77682067341334 103.0534771498775 l 8.026058351584993 1.1795541851842883 a29.112272230320738,29.112272230320738 0 0,0 -0.076909782085845,0.4938159723461473 l -8.004627077360881 -1.3171583394618862" fill="#ff5808" stroke="none" /><path d="M 120.7213421655516 103.40968896794604 l 12.877731481309887 2.1190258146979843 a34.050909489689836,34.050909489689836 0 0,0 -0.09985864168942661,0.5759581088632522 l -12.839458022128227 -2.3397769564818245" fill="#ff9c0e" stroke="none" /><path d="M 120.65975698304385 103.76489593502545 l 14.318764088943013 2.609355800133301 a35.554578067621655,35.554578067621655 0 0,0 -0.11457667257997045,0.5995135664317905 l -14.271861124080882 -2.854771931598406" fill="#ffb010" stroke="none" /><path d="M 120.51834098615036 104.47187691870673 l 16.926688311974598 3.6890929351234925 a38.324034861853505,38.324034861853505 0 0,0 -0.14561151063149227,0.6415911829691363 l -16.860865939785445 -3.9791184520316456" fill="#ffd413" stroke="none" /><path d="M 120.05942366710727 106.21446072829308 l 13.439240115394176 4.16351094135208 a35.069399355977446,35.069399355977446 0 0,0 -0.18308778885302587,0.5735198908898146 l -13.365787610763896 -4.393599865933279" fill="#ffaa0f" stroke="none" /><path d="M 119.4528033332814 107.91128576633889 l 12.098576095075213 4.920385571892311 a34.060847510954694,34.060847510954694 0 0,0 -0.22492186966443767,0.5397306072630329 l -12.01232838087429 -5.127348688596622" fill="#ff9c0e" stroke="none" /><path d="M 119.16976305983485 108.57439118712176 l 18.713953901969667 8.370513548467095 a41.500672372147136,41.500672372147136 0 0,0 -0.2964640749896496,0.6478275070994426 l -18.567505362124958 -8.690530037781226" fill="#fffc17" stroke="none" /><path d="M 118.70294669586154 109.54985784667822 l 9.50235111172403 4.8519681845785785 a31.66940822701267,31.66940822701267 0 0,0 -0.2513826100848272,0.4820593008772269 l -9.417660432664254 -5.014373728560309" fill="#ff7c0b" stroke="none" /><line stroke="#e1ed5e" stroke-width="0.3" x1="174.33088141563837" x2="178.70328620479359" y1="141.23008692659167" y2="143.65538615756765" /><path d="M 175.20536237346943 141.71514677278685 a86.0,86.0 0 0,1 -30.301960400862466,31.631185727798858" fill="none" id="id77" stroke="none" /><text fill="#e1ed5e" style="font-size:6.75px; font-family:Arial;" text-anchor="middle"><textPath startOffset="22.145653131862474" xlink:href="#id77">May</textPath></text><path d="M 118.36410011445183 110.18625677009912 l 16.2680050517936 9.023588172688724 a39.603040930865845,39.603040930865845 0 0,0 -0.33486565300068905,0.5916755226450712 l -16.110706033771535 -9.301520465432919" fill="#ffe415" stroke="none" /><path d="M 117.21940702142032 112.02048342749411 l 7.588764823698677 5.29754722011885 a30.254909945471937,30.254909945471937 0 0,0 -0.30094256585451856,0.42331340694441777 l -7.4967071593142 -5.427037853772772" fill="#ff6809" stroke="none" /><path d="M 116.1254893667686 113.45245675266167 l 14.149176755334285 11.803746482209423 a39.42627563752272,39.42627563752272 0 0,0 -0.438017354614336,0.5159833423567155 l -13.944464837212834 -12.044896607015696" fill="#ffe215" stroke="none" /><path d="M 115.6541949942343 113.99807769240083 l 6.808496574293351 6.088199620006391 a30.133553537107574,30.133553537107574 0 0,0 -0.34811758904317147,0.382642211584181 l -6.7029812844083 -6.204179407148243" fill="#ff6709" stroke="none" /><path d="M 115.41159269507618 114.26474011684316 l 6.751011798092903 6.248635733560778 a30.199000425520275,30.199000425520275 0 0,0 -0.3554050848649304,0.37742788394369337 l -6.642750879491713 -6.363605077448968" fill="#ff6709" stroke="none" /><path d="M 113.03279911837588 116.46651593811092 l 5.5429033572781155 7.003277319554268 a29.93138683759181,29.93138683759181 0 0,0 -0.40562738272640864,0.31541830622334766 l -5.421866029916476 -7.097396677398408" fill="#ff6409" stroke="none" /><path d="M 112.16784306229584 117.11559508785304 l 5.378497888264652 7.565530847588132 a30.28253718225114,30.28253718225114 0 0,0 -0.42626984013269614,0.2975694541967464 l -5.247832956958198 -7.656745117590001" fill="#ff6909" stroke="none" /><path d="M 110.96478420261333 117.91015095944535 l 3.6334737674262594 5.9350063329362035 a27.958910244468427,27.958910244468427 0 0,0 -0.4114849199483764,0.24708487150695635 l -3.5310560909204463 -5.9965052049790835" fill="#ff4806" stroke="none" /><line stroke="#e1ed5e" stroke-width="0.3" x1="143.1302829299769" x2="145.66735839644613" y1="173.24464959558577" y2="177.55315839532614" /><path d="M 143.63769802327073 174.10635135553383 a86.0,86.0 0 0,1 -40.68552437913181,11.842963189579606" fill="none" id="id78" stroke="none" /><text fill="#e1ed5e" style="font-size:6.75px; font-family:Arial;" text-anchor="middle"><textPath startOffset="21.407464694133747" xlink:href="#id78">June</textPath></text><path d="M 110.65571695917076 118.09573695890943 l 4.674827391627302 7.938878925869624 a30.213023919491675,30.213023919491675 0 0,0 -0.4491777922085355,0.25933291924560076 l -4.537857131558368 -8.017958742391396" fill="#ff6809" stroke="none" /><path d="M 110.02825361518725 118.45085714620011 l 3.3274578316742516 6.122147630894354 a27.967974399783316,27.967974399783316 0 0,0 -0.4237962978003047,0.22564765815726026 l -3.221872718087393 -6.178365756774182" fill="#ff4806" stroke="none" /><line stroke="#e1ed5e" stroke-width="0.3" x1="101.45913802915013" x2="101.54496967792366" y1="184.9874750549273" y2="189.98673829345242" /><path d="M 101.47630435890484 185.9873277026323 a86.0,86.0 0 0,1 -42.54439059252881,-10.42667462771756" fill="none" id="id79" stroke="none" /><text fill="#e1ed5e" style="font-size:6.75px; font-family:Arial;" text-anchor="middle"><textPath startOffset="22.145653131862474" xlink:href="#id79">July</textPath></text><path d="M 95.35216902796893 120.47920084513623 l -1.5634645523083464 6.888913296040481 a28.064102760201614,28.064102760201614 0 0,0 -0.46889482346163847,-0.1106579016025355 l 1.6814915295098727 -6.861059250791718" fill="#ff4906" stroke="none" /><line stroke="#e1ed5e" stroke-width="0.3" x1="58.13341422392154" x2="55.67067388415222" y1="173.97424548756322" y2="178.32567169271397" /><path d="M 57.64086615596768 174.84453072859336 a86.0,86.0 0 0,1 -31.369924170532247,-30.572349798747897" fill="none" id="id80" stroke="none" /><text fill="#e1ed5e" style="font-size:6.75px; font-family:Arial;" text-anchor="middle"><textPath startOffset="22.145653131862474" xlink:href="#id80">August</textPath></text><path d="M 84.58840730492382 114.26474011684316 l -3.6917821733071414 3.4170584645054722 a26.030461625437262,26.030461625437262 0 0,0 -0.30071665897515987,-0.330540286018668 l 3.749896533124179 -3.3531806029291302" fill="#ff2c04" stroke="none" /><path d="M 84.3458050057657 113.99807769240083 l -3.856675096832521 3.4486626530264273 a26.1737043689128,26.1737043689128 0 0,0 -0.29662152642951595,-0.3375008470142057 l 3.915307687220632 -3.3819495282009218" fill="#ff2e04" stroke="none" /><path d="M 84.1078160697243 113.72728997021213 l -9.399155290472912 8.11876647749927 a33.42008410964237,33.42008410964237 0 0,0 -0.3712898719442446,-0.43737853555521583 l 9.537139725924268 -7.9562211594945" fill="#ff940d" stroke="none" /><path d="M 83.64595745247003 113.17365903436017 l -7.999726781177372 6.4440136239701316 a31.272338592521137,31.272338592521137 0 0,0 -0.33317485407097125,-0.42095554415490355 l 8.109168065889905 -6.3057381359005475" fill="#ff760a" stroke="none" /><path d="M 83.4222238831116 112.89097897827486 l -8.537727276480092 6.638988370172688 a31.815218612068847,31.815218612068847 0 0,0 -0.33155703253771884,-0.43401879871559756 l 8.650436286372106 -6.491448658216221" fill="#ff7e0b" stroke="none" /><path d="M 82.98947788004972 112.3143062007846 l -5.337426688089411 3.8638853115676604 a27.589213409176956,27.589213409176956 0 0,0 -0.2744271487910389,-0.38601615222798635 l 5.402968935410411 -3.7716919326301697" fill="#ff4306" stroke="none" /><path d="M 82.37810715431573 111.42229804090323 l -52.86567853705281 34.266894122709665 a84.0,84.0 0 0,0 -0.7739292334964403,-1.2167453012853122 l 53.44612546217514 -33.35433514674568" fill="#4dd2ff" stroke="none" /><path d="M 81.99639281039703 110.81064883170644 l -5.14798185283683 3.0912151890958786 a27.004775474772924,27.004775474772924 0 0,0 -0.23523254220851675,-0.39947628341585545 l 5.200288105175114 -3.0023877373864645" fill="#ff3a05" stroke="none" /><line stroke="#e1ed5e" stroke-width="0.3" x1="26.387840678322732" x2="22.057713659400534" y1="142.50000000000003" y2="145.00000000000006" /><path d="M 25.521815274538284 143.00000000000003 a86.0,86.0 0 0,1 -11.493303480769212,-40.785679425670985" fill="none" id="id81" stroke="none" /><text fill="#e1ed5e" style="font-size:6.75px; font-family:Arial;" text-anchor="middle"><textPath startOffset="21.40746469413373" xlink:href="#id81">September</textPath></text><path d="M 81.63589988554817 110.18625677009913 l -9.286376095734505 5.150996279987661 a31.619300526300023,31.619300526300023 0 0,0 -0.259209982262524,-0.4769171719342848 l 9.373431427612358 -4.990824274578789" fill="#ff7b0b" stroke="none" /><path d="M 80.9802524753101 108.90220220490708 l -13.932210607814563 6.520978043011049 a36.38277111114681,36.38277111114681 0 0,0 -0.25990385134736643,-0.5679368203711929 l 14.042098924016985 -6.280852240425167" fill="#ffbb11" stroke="none" /><path d="M 80.68587082218212 108.24405325689762 l -12.857964600874068 5.488300506276632 a34.98029671089019,34.98029671089019 0 0,0 -0.23099348115456428,-0.5543002645467775 l 12.950283926565119 -5.2667677322885735" fill="#ffa80f" stroke="none" /><path d="M 80.41425534168474 107.57618678355246 l -12.809934795407045 4.95515796760519 a34.73491972843312,34.73491972843312 0 0,0 -0.2103436185535856,-0.5579614385386032 l 12.893109097775065 -4.734528248872442" fill="#ffa50f" stroke="none" /><path d="M 80.28708602549918 107.23885506374661 l -12.576337582407607 4.618205360686831 a34.39746572080536,34.39746572080536 0 0,0 -0.1987843138474395,-0.5560351048237595 l 12.65376206629899 -4.401635299482151" fill="#ffa10e" stroke="none" /><path d="M 79.94057633289273 106.21446072829308 l -12.865957051399423 3.9859063826910712 a34.469235336129216,34.469235336129216 0 0,0 -0.17025123503448797,-0.5667109902165375 l 12.93248460643754 -3.7644577888838104" fill="#ffa20e" stroke="none" /><path d="M 79.48165901384964 104.47187691870673 l -48.545381022209995 10.580239847343265 a70.68496245161967,70.68496245161967 0 0,0 -0.24821290197505294,-1.1877885900326266 l 48.71985163500941 -9.745334806025229" fill="#3cffa6" stroke="none" /><path d="M 79.22317932658666 103.0534771498775 l -9.771063121118903 1.4360097937662795 a30.87602139754074,30.87602139754074 0 0,0 -0.07256671252034406,-0.5250565827298157 l 9.79427435019446 -1.2680649028363782" fill="#ff710a" stroke="none" /><path d="M 79.13060592940153 102.33845913500099 l -4.972048368289987 0.5571283903673502 a26.00316470046394,26.00316470046394 0 0,0 -0.045898814445304414,-0.4440293937104039 l 4.9808795752169575 -0.47169447437401485" fill="#ff2c04" stroke="none" /><line stroke="#e1ed5e" stroke-width="0.3" x1="15.003131293944662" x2="10.003315487706104" y1="100.72959589197737" y2="100.7725132973878" /><path d="M 14.003168132696942 100.73817937305945 a86.0,86.0 0 0,1 10.791469493833604,-42.45332614584628" fill="none" id="id82" stroke="none" /><text fill="#e1ed5e" style="font-size:6.75px; font-family:Arial;" text-anchor="middle"><textPath startOffset="22.145653131862435" xlink:href="#id82">October</textPath></text><path d="M 79.01933749520258 99.09900007780938 l -8.793362535001176 -0.37762482276326453 a29.801467217386502,29.801467217386502 0 0,0 0.02633656492461043,-0.5109223236675415 l 8.785584380619996 0.5285189398075181" fill="#ff6209" stroke="none" /><path d="M 79.06263194458094 98.37931529534042 l -10.71561725365752 -0.8294565457330358 a31.747671900841695,31.747671900841695 0 0,0 0.046724072677889146,-0.5430045496002311 l 10.699799558281889 1.0132821427089476" fill="#ff7d0b" stroke="none" /><path d="M 79.0935383218832 98.0201363427161 l -3.9795294116304616 -0.37686557278253247 a24.997334361544027,24.997334361544027 0 0,0 0.04412339900563499,-0.42685385985864954 l 3.972473620143163 0.44512395492409473" fill="#ff1d03" stroke="none" /><path d="M 79.22317932658666 96.9465228501225 l -6.87083156133739 -1.0097756294372484 a27.94463628752978,27.94463628752978 0 0,0 0.07382508209385596,-0.4740099855831123 l 6.852484987105266 1.1275737969518107" fill="#ff4806" stroke="none" /><path d="M 79.2786578344484 96.59031103205396 l -5.141519299710428 -0.8460350441897937 a26.210661762702703,26.210661762702703 0 0,0 0.07686611372882672,-0.443343317613039 l 5.126238368489367 0.9341713947234254" fill="#ff2f04" stroke="none" /><path d="M 79.407916724674 95.88100663000787 l -4.926329654418674 -0.9854039007923012 a26.0239172676012,26.0239172676012 0 0,0 0.09138396345858103,-0.4373053465164777 l 4.908687980135726 1.069825698594188" fill="#ff2c04" stroke="none" /><path d="M 79.83685265289637 94.1308016681162 l -6.6728269447861255 -1.9423626728053338 a27.949776412789927,27.949776412789927 0 0,0 0.13805017450525342,-0.459524132542063 l 6.638500450277243 2.0566244089381205" fill="#ff4806" stroke="none" /><path d="M 80.16572619554312 93.10060997987247 l -7.19009238299326 -2.5010873662473867 a28.612678010370594,28.612678010370594 0 0,0 0.16535379704409428,-0.4625239994690049 l 7.1460984159052225 2.624146322097313" fill="#ff5107" stroke="none" /><line stroke="#e1ed5e" stroke-width="0.3" x1="26.387840678322718" x2="22.05771365940052" y1="57.49999999999999" y2="54.99999999999999" /><path d="M 25.521815274538284 56.99999999999999 a86.0,86.0 0 0,1 29.574782752854787,-30.34633250058573" fill="none" id="id83" stroke="none" /><text fill="#e1ed5e" style="font-size:6.75px; font-family:Arial;" text-anchor="middle"><textPath startOffset="21.40746469413373" xlink:href="#id83">November</textPath></text><path d="M 82.576782715395 88.27688183743585 l -4.1361024649570295 -2.782954326811254 a25.985195922503056,25.985195922503056 0 0,0 0.25219283904147594,-0.36795688903581786 l 4.08771988910024 2.853545950917107" fill="#ff2c04" stroke="none" /><path d="M 83.2033758604659 87.39550010848427 l -5.559789681624343 -4.172169827503691 a27.951133891202836,27.951133891202836 0 0,0 0.29128811346641725,-0.38130549100159794 l 5.487349590803619 4.266996231746173" fill="#ff4806" stroke="none" /><path d="M 83.42222388311158 87.10902102172516 l -5.527156603432854 -4.297950405537229 a28.001559669625692,28.001559669625692 0 0,0 0.29832804249945954,-0.3769277360898164 l 5.452562130291833 4.392198085541728" fill="#ff4906" stroke="none" /><path d="M 84.10781606972428 86.27271002978789 l -6.155285635517645 -5.316789129734553 a29.133620836065163,29.133620836065163 0 0,0 0.3301656869432823,-0.37566794406225384 l 6.06310888461577 5.421669351608107" fill="#ff5908" stroke="none" /><path d="M 86.68645165197937 83.75963576809568 l -4.628970559493081 -5.646591422496786 a28.301463081689036,28.301463081689036 0 0,0 0.3783625694287455,-0.30478210305081455 l 4.53135721970909 5.725221819340999" fill="#ff4d07" stroke="none" /><path d="M 87.25179093698888 83.31218511350988 l -4.2438457468731965 -5.555330311935637 a27.99084555672378,27.99084555672378 0 0,0 0.38433698353057383,-0.28841363758414024 l 4.1478557744318705 5.62736297678378" fill="#ff4806" stroke="none" /><path d="M 88.12776184653039 82.6780497279521 l -3.837957851122793 -5.59969520354813 a27.78870435647591,27.78870435647591 0 0,0 0.395795458190348,-0.2663088480605428 l 3.7412661048354554 5.664753725665782" fill="#ff4606" stroke="none" /><path d="M 88.72937992617638 82.28071324371311 l -15.991920165832125 -25.141954688025706 a50.79696957955768,50.79696957955768 0 0,0 0.739787402200343,-0.46168205341271484 l 15.557968634842084 25.412772538279956" fill="#95ff23" stroke="none" /><path d="M 89.03521579738668 82.08984904055464 l -2.784085548571461 -4.547594511439703 a26.332142925901458,26.332142925901458 0 0,0 0.38754299181162005,-0.23270843156830176 l 2.7056098002024065 4.594716943543928" fill="#ff3104" stroke="none" /><line stroke="#e1ed5e" stroke-width="0.3" x1="56.869717070023135" x2="54.33264160355391" y1="26.7553504044142" y2="22.446841604673864" /><path d="M 56.362301976729285 25.89364864446614 a86.0,86.0 0 0,1 42.16139366436587,-11.88097634709845" fill="none" id="id84" stroke="none" /><text fill="#e1ed5e" style="font-size:6.75px; font-family:Arial;" text-anchor="middle"><textPath startOffset="22.145653131862474" xlink:href="#id84">December</textPath></text><path d="M 90.93487009805054 81.0573650232925 l -9.254939921749251 -19.33926491570218 a42.439708030542235,42.439708030542235 0 0,0 0.6598592215223532,-0.3088474339177789 l 8.921591986355375 19.4952885811905" fill="#f7ff19" stroke="none" /><path d="M 92.93061703081487 80.22567764915836 l -8.806932690073477 -24.634558163674072 a47.16148924138161,47.16148924138161 0 0,0 0.7646768984977175,-0.2659943194356674 l 8.382750019530755 24.782110915678324" fill="#beff1e" stroke="none" /><path d="M 93.61358852112211 79.99465700312896 l -2.5091858983042843 -7.8599890884746 a29.250784347150812,29.250784347150812 0 0,0 0.4796562659901757,-0.14859873730886256 l 2.3738889994424923 7.901904413590104" fill="#ff5a08" stroke="none" /><path d="M 95.70440661134978 79.44403061299748 l -3.9317025101859273 -18.81461980357006 a40.22103542948436,40.22103542948436 0 0,0 0.6770608276145629,-0.13543112771728932 l 3.6081451970403875 18.879340327950217" fill="#ffec16" stroke="none" /><path d="M 97.12497278360702 79.19773525538626 l -0.9137300837324198 -6.611295711755705 a27.674139169525688,27.674139169525688 0 0,0 0.4711485006279103,-0.06099960612787995 l 0.8001037612137155 6.62600691408398" fill="#ff4406" stroke="none" /><path d="M 97.48249496171623 79.15144685158666 l -0.8107938352146619 -6.714536062022106 a27.763311405769915,27.763311405769915 0 0,0 0.4736475109221145,-0.05307319153298929 l 0.6954104226917481 6.727465014062066" fill="#ff4506" stroke="none" /><path d="M 98.5590905019552 79.04949213459386 l -0.45436432136195815 -6.606357513341616 a27.621963948151027,27.621963948151027 0 0,0 0.47332951104452686,-0.028474328003574963 l 0.3408904581849475 6.613183819169885" fill="#ff4306" stroke="none" /></svg>