<?xml version="1.0" encoding="utf-8" ?>
<svg baseProfile="full" height="200mm" version="1.1" viewBox="0,0,200,200" width="200mm" xmlns="http://www.w3.org/2000/svg" xmlns:ev="http://www.w3.org/2001/xml-events" xmlns:xlink="http://www.w3.org/1999/xlink"><defs /><rect fill="#1a1a1a" height="200" width="200" x="0" y="0" /><text alignment-baseline="middle" fill="#e1ed5e" style="dominant-baseline: central; font-size:9.0px; font-family:Arial;" text-anchor="middle" x="100.0" y="100.0">2017</text><line stroke="#e1ed5e" stroke-width="0.3" x1="100.0" x2="100.0" y1="15.0" y2="10.0" /><path d="M 100.0 14.0 a86.0,86.0 0 0,1 42.46469731375804,11.215312516191453" fill="none" id="id37" stroke="none" /><text fill="#e1ed5e" style="font-size:6.75px; font-family:Arial;" text-anchor="middle"><textPath startOffset="22.20632615414155" xlink:href="#id37">January</textPath></text><path d="M 100.0 79.0 l 0.0 -1.5760126394329816 a22.57601263943298,22.57601263943298 0 0,0 0.38860894614118535,0.0033448798876600547 l -0.027128466868656984 1.5757791361538804" fill="#ff0000" stroke="none" /><path d="M 100.36148047927253 79.00311137660856 l 0.7477824552486979 -43.435554138307104 a64.44199053798278,64.44199053798278 0 0,0 1.1089342359738728,0.028640499640527926 l -1.4953433264174385 43.41624684652422" fill="#34ff60" stroke="none" /><path d="M 104.66035177308747 79.52364482259891 l 13.981055319262426 -61.429065532203275 a84.0,84.0 0 0,0 1.407105252149906,0.3330163514365254 l -15.036384258374856 61.17930326862588" fill="#4dd2ff" stroke="none" /><path d="M 107.76421540070413 80.48803036053334 l 1.4480567793750692 -3.6390592554693715 a24.916582783640784,24.916582783640784 0 0,0 0.3971420082105166,0.16200419679103797 l -1.5104826571739731 3.6135941724947545" fill="#ff2203" stroke="none" /><path d="M 108.43124777332544 80.76684994638697 l 2.8151592256508793 -6.421870317114512 a28.011814304130116,28.011814304130116 0 0,0 0.43994272627095893,0.19738947725511793 l -2.9252840703886185 6.372460509342863" fill="#ff4e07" stroke="none" /><path d="M 108.76106565485865 80.91482961587045 l 3.5061272429983594 -7.637773583394257 a29.404077198318113,29.404077198318113 0 0,0 0.4581740350437314,0.2151188528961094 l -3.637079489341689 7.576289747858144" fill="#ff6209" stroke="none" /><path d="M 109.08828744355905 81.06846463323043 l 2.301048221346647 -4.793243617524363 a26.316954701133028,26.316954701133028 0 0,0 0.4066956173953601,0.19956377319622903 l -2.3832151057524387 4.752924684193302" fill="#ff3605" stroke="none" /><path d="M 109.41281617654863 81.2277094730956 l 5.272741306347251 -10.515602325536257 a32.76348983730951,32.76348983730951 0 0,0 0.5019671069117487,0.2571270486684063 l -5.452968900847755 10.42328275155535" fill="#ff8f0d" stroke="none" /><path d="M 109.73455568895987 81.39251694778311 l 3.4598099624612706 -6.613384041081804 a28.463721153096607,28.463721153096607 0 0,0 0.43218088018579737,0.23085605882354163 l -3.573135889175379 6.552849255756508" fill="#ff5507" stroke="none" /><path d="M 110.36928655335952 81.73862282372117 l 2.521110439398385 -4.439934068751519 a26.105782249812847,26.105782249812847 0 0,0 0.38885590425190913,0.22525043865460606 l -2.5971630761156224 4.395879472706864" fill="#ff3304" stroke="none" /><line stroke="#e1ed5e" stroke-width="0.3" x1="143.23703022742887" x2="145.7803849466894" y1="26.81831364943548" y2="22.513508569990506" /><path d="M 143.74570117128098 25.957352633546492 a86.0,86.0 0 0,1 28.547481713284135,27.462654790039103" fill="none" id="id38" stroke="none" /><text fill="#e1ed5e" style="font-size:6.75px; font-family:Arial;" text-anchor="middle"><textPath startOffset="19.985693538727396" xlink:href="#id38">February</textPath></text><path d="M 113.89432698308785 84.25364557470407 l 2.519143326908579 -2.8549294774698084 a24.807453929180767,24.807453929180767 0 0,0 0.31775869203182433,0.28528689113367345 l -2.5679130065363935 2.811143577566838" fill="#ff2103" stroke="none" /><path d="M 114.42810811169701 84.74124197986012 l 9.262827330971064 -9.796103531483832 a34.481973689446754,34.481973689446754 0 0,0 0.42776818759126684,0.4115126575425079 l -9.43007876217475 9.635207787179022" fill="#ffa60f" stroke="none" /><line stroke="#e1ed5e" stroke-width="0.3" x1="172.23445277983987" x2="176.4835382374775" y1="55.19839476539836" y2="52.563006222186495" /><path d="M 173.08426987136738 54.67131705675599 a86.0,86.0 0 0,1 12.851231095245387,41.99856678651699" fill="none" id="id39" stroke="none" /><text fill="#e1ed5e" style="font-size:6.75px; font-family:Arial;" text-anchor="middle"><textPath startOffset="22.20632615414155" xlink:href="#id39">March</textPath></text><path d="M 118.56541770881063 90.18545643968196 l 4.218423520664627 -2.2300549359460407 a25.771607906883574,25.771607906883574 0 0,0 0.20395229173429563,0.3939709109200289 l -4.256185245559038 2.1571113027656668" fill="#ff2e04" stroke="none" /><path d="M 119.61058180528143 92.48833698450437 l 10.427059154803239 -3.993994435821718 a32.1658208014969,32.1658208014969 0 0,0 0.19360057887562776,0.518753299234647 l -10.494264322180491 3.813917999557738" fill="#ff870c" stroke="none" /><path d="M 119.85752413597 93.16781622104841 l 6.059236753877371 -2.084742225627214 a27.40784676680486,27.40784676680486 0 0,0 0.14965037534145179,0.447435574411638 l -6.094224422990592 1.9801335482932623" fill="#ff4606" stroke="none" /><path d="M 119.97218684219823 93.5106431181261 l 4.8660565938392715 -1.581077630322387 a26.116474689427527,26.116474689427527 0 0,0 0.13523920979912782,0.4287452525099417 l -4.892551287406605 1.4970822113860263" fill="#ff3304" stroke="none" /><path d="M 120.28053869075195 94.5502522615342 l 19.463547070817235 -5.230207306084923 a41.154025231763065,41.154025231763065 0 0,0 0.17794935473077156,0.6857114538879379 l -19.550692757418307 4.8943994266481345" fill="#fffb17" stroke="none" /><path d="M 120.87857604477298 97.74499172005257 l 4.567106653937971 -0.493274220327467 a25.59366766809313,25.59366766809313 0 0,0 0.04353711302086183,0.4384127866300887 l -4.574920892641062 0.41458590299294334" fill="#ff2c04" stroke="none" /><line stroke="#e1ed5e" stroke-width="0.3" x1="184.98032266829074" x2="189.97916517819016" y1="98.17113171792111" y2="98.06355123074" /><path d="M 185.9800911702706 98.14961562048488 a86.0,86.0 0 0,1 -9.607161424134198,41.387399972396054" fill="none" id="id40" stroke="none" /><text fill="#e1ed5e" style="font-size:6.75px; font-family:Arial;" text-anchor="middle"><textPath startOffset="21.466115282336823" xlink:href="#id40">April</textPath></text><path d="M 120.99980553446 99.90962569577887 l 19.112262922478205 -0.08225111708181758 a40.11243990871381,40.11243990871381 0 0,0 -0.0029715729281254086,0.6904888968154427 l -19.110847052260578 -0.24674725793730984" fill="#ffee16" stroke="none" /><path d="M 120.9904718944345 100.63252640178507 l 2.5223342854018 0.07600796388323881 a23.523479236666528,23.523479236666528 0 0,0 -0.015679930344397054,0.4046293299846451 l -2.5206522222061993 -0.11941454088189013" fill="#ff0e01" stroke="none" /><path d="M 120.89721153311464 102.0752229133903 l 18.836975801841483 1.8706287076155999 a39.929630453892045,39.929630453892045 0 0,0 -0.07380839791112373,0.6833740976623737 l -18.801985102429306 -2.194599127162765" fill="#ffec16" stroke="none" /><path d="M 120.81339534386255 102.79330883721812 l 6.146173710178763 0.8248611558124526 a27.201277868476854,27.201277868476854 0 0,0 -0.06627519979532084,0.4635285930073106 l -6.131064459366841 -0.9305352208001725" fill="#ff4306" stroke="none" /><path d="M 120.76222939487914 103.15116336523771 l 11.350611642081903 1.7227259606519374 a32.480599696220985,32.480599696220985 0 0,0 -0.08865385675622166,0.552047650647707 l -11.319276030964392 -1.9178528409928493" fill="#ff8c0c" stroke="none" /><path d="M 119.67450827220406 107.3425965602758 l 9.488700042191056 3.5412166508736713 a31.12796346059273,31.12796346059273 0 0,0 -0.19166779714566387,0.5003841369892915 l -9.426337965451886 -3.7040243546961067" fill="#ff790b" stroke="none" /><path d="M 118.64920377521936 109.65438752849418 l 4.531705934547148 2.3459899835203797 a26.102943041029146,26.102943041029146 0 0,0 -0.21000127403477886,0.39724326942737115 l -4.490652152287476 -2.423648268033885" fill="#ff3304" stroke="none" /><line stroke="#e1ed5e" stroke-width="0.3" x1="174.80103733775053" x2="179.2010983576182" y1="140.37084112569926" y2="142.7455964860345" /><path d="M 175.68104954172406 140.8457921977663 a86.0,86.0 0 0,1 -30.038265399797805,32.042727171017184" fill="none" id="id41" stroke="none" /><text fill="#e1ed5e" style="font-size:6.75px; font-family:Arial;" text-anchor="middle"><textPath startOffset="22.206326154141568" xlink:href="#id41">May</textPath></text><path d="M 118.48025628344425 109.97397251340804 l 6.837190225627378 3.6900974928817396 a28.76942659971678,28.76942659971678 0 0,0 -0.238955556454469,0.43377374429812965 l -6.772658259721399 -3.807241755577674" fill="#ff5908" stroke="none" /><path d="M 118.30583269289576 110.29060199501025 l 24.636322065343208 13.849279038463205 a49.26218135233961,49.26218135233961 0 0,0 -0.42189071339989287,0.7356020200867757 l -24.394279355790935 -14.271300904408296" fill="#a3ff21" stroke="none" /><path d="M 117.55443506779139 111.5257021239791 l 4.4398697204608535 2.9150818963805283 a26.311322396284247,26.311322396284247 0 0,0 -0.2518330521043085,0.3764562437387347 l -4.389033562945825 -2.99107505432507" fill="#ff3605" stroke="none" /><line stroke="#e1ed5e" stroke-width="0.3" x1="143.8653032363475" x2="146.44561519142675" y1="172.8068346515853" y2="177.08958963109032" /><path d="M 144.38136562736335 173.6633856474863 a86.0,86.0 0 0,1 -40.68145358897372,12.25698825130547" fill="none" id="id42" stroke="none" /><text fill="#e1ed5e" style="font-size:6.75px; font-family:Arial;" text-anchor="middle"><textPath startOffset="21.466115282336833" xlink:href="#id42">June</textPath></text><path d="M 107.93186726928326 119.44442032107085 l 3.396018521362593 8.325102943065597 a29.99112233317272,29.99112233317272 0 0,0 -0.479685042741086,0.19087657807772168 l -3.2522124025796404 -8.382326365549387" fill="#ff6a09" stroke="none" /><line stroke="#e1ed5e" stroke-width="0.3" x1="102.19456741930631" x2="102.32365962044197" y1="184.97166512339345" y2="189.96999836594603" /><path d="M 102.22038585953345 185.97133177190398 a86.0,86.0 0 0,1 -42.740103519485714,-10.115201625700543" fill="none" id="id43" stroke="none" /><text fill="#e1ed5e" style="font-size:6.75px; font-family:Arial;" text-anchor="middle"><textPath startOffset="22.20632615414155" xlink:href="#id43">July</textPath></text><path d="M 98.73552117531835 120.96189622390904 l -0.7377792550523306 12.230534729953646 a33.2527669532146,33.2527669532146 0 0,0 -0.5710564795461402,-0.039383398263838645 l 0.9481984953774009 -12.216022987173522" fill="#ff960d" stroke="none" /><line stroke="#e1ed5e" stroke-width="0.3" x1="58.666819895761336" x2="56.23545636021788" y1="174.27360380694188" y2="178.64263932499728" /><path d="M 58.180547188652646 175.14741091055294 a86.0,86.0 0 0,1 -31.652253787137756,-30.449443065178592" fill="none" id="id44" stroke="none" /><text fill="#e1ed5e" style="font-size:6.75px; font-family:Arial;" text-anchor="middle"><textPath startOffset="22.20632615414155" xlink:href="#id44">August</textPath></text><path d="M 86.24171649860922 115.8653595955263 l -11.090455283164387 12.788954459887442 a37.92795187153318,37.92795187153318 0 0,0 -0.48955530444618894,-0.4319756365545307 l 11.308952940517164 -12.596155681560623" fill="#ffd313" stroke="none" /><path d="M 85.44109423537348 115.13401014063109 l -8.192953193110377 8.516590375047949 a32.8176475510508,32.8176475510508 0 0,0 -0.40373527655849395,-0.39513994312412276 l 8.338338422044666 -8.374300329001256" fill="#ff900d" stroke="none" /><line stroke="#e1ed5e" stroke-width="0.3" x1="26.63291911575756" x2="22.317208475507996" y1="142.92168965132927" y2="145.44649492493687" /><path d="M 25.769776987707644 143.4266507060508 a86.0,86.0 0 0,1 -11.730757126820373,-40.83630448921669" fill="none" id="id45" stroke="none" /><text fill="#e1ed5e" style="font-size:6.75px; font-family:Arial;" text-anchor="middle"><textPath startOffset="21.46611528233685" xlink:href="#id45">September</textPath></text><line stroke="#e1ed5e" stroke-width="0.3" x1="15.007084014347285" x2="10.007500721073583" y1="101.09737516637583" y2="101.16192664675087" /><path d="M 14.007167355692545 101.11028546245083 a86.0,86.0 0 0,1 10.666146001902534,-42.60595125391555" fill="none" id="id46" stroke="none" /><text fill="#e1ed5e" style="font-size:6.75px; font-family:Arial;" text-anchor="middle"><textPath startOffset="22.20632615414155" xlink:href="#id46">October</textPath></text><line stroke="#e1ed5e" stroke-width="0.3" x1="26.266209847984243" x2="21.928928074336255" y1="57.711370442889674" y2="55.22380399835377" /><path d="M 25.398753493254645 57.213857153982495 a86.0,86.0 0 0,1 29.58750427330803,-30.492523968695096" fill="none" id="id47" stroke="none" /><text fill="#e1ed5e" style="font-size:6.75px; font-family:Arial;" text-anchor="middle"><textPath startOffset="21.46611528233685" xlink:href="#id47">November</textPath></text><path d="M 82.34701348167596 88.62581576622439 l -5.088536839920239 -3.278649504293735 a27.053325511091487,27.053325511091487 0 0,0 0.25559384791228396,-0.3892869656563808 l 5.031346356650035 3.365754533927783" fill="#ff4106" stroke="none" /><path d="M 82.54541684631803 88.32363383020206 l -36.36901093604941 -24.329305671967244 a64.75637177539403,64.75637177539403 0 0,0 0.6277529993109304,-0.9211500658372171 l 35.94483347106974 24.951733761074877" fill="#35ff64" stroke="none" /><path d="M 84.5562425177563 85.77008943001954 l -6.875671413145091 -6.335258076288531 a30.349350366454328,30.349350366454328 0 0,0 0.3573024365502585,-0.3811453271198744 l 6.765601654624377 6.452672820286455" fill="#ff6f0a" stroke="none" /><path d="M 85.57189188830299 84.74124197986013 l -19.109062174076968 -20.20920230488576 a48.81309251004892,48.81309251004892 0 0,0 0.6154915268692053,-0.5720322955350958 l 18.758362763412908 20.535139186495503" fill="#a9ff21" stroke="none" /><path d="M 85.83668400450813 84.49514656593479 l -3.3247693300056103 -3.639688698622581 a25.929647545274094,25.929647545274094 0 0,0 0.33213287072322967,-0.29819217068794907 l 3.2616254716864095 3.696379878079809" fill="#ff3104" stroke="none" /><path d="M 86.65592168130627 83.78471172551755 l -5.803375449206896 -7.052072359476065 a30.132956321353106,30.132956321353106 0 0,0 0.4033462672922243,-0.3261446306309391 l 5.681125783350171 7.1509230873711385" fill="#ff6c09" stroke="none" /><path d="M 87.51073957382395 83.11751280151077 l -12.826698540891039 -17.33862266668865 a42.56738350928795,42.56738350928795 0 0,0 0.5928109846598122,-0.43070239142408845 l 12.526342239877446 17.55684429292941" fill="#f2ff19" stroke="none" /><path d="M 88.09926311788651 82.69761687909137 l -5.170226515443265 -7.516949654313575 a30.123364200034853,30.123364200034853 0 0,0 0.4297532620482166,-0.29017132091218534 l 5.0400685589885095 7.6048328875244255" fill="#ff6c09" stroke="none" /><path d="M 88.70189139769569 82.29822771554957 l -2.7275242954629633 -4.273459892989882 a26.06969902847633,26.06969902847633 0 0,0 0.38034554694024336,-0.2381723466010139 l 2.653559596150478 4.319776580913826" fill="#ff3304" stroke="none" /><line stroke="#e1ed5e" stroke-width="0.3" x1="56.762969772571076" x2="54.21961505331055" y1="26.818313649435495" y2="22.513508569990535" /><path d="M 56.25429882871897 25.957352633546506 a86.0,86.0 0 0,1 42.265352541879196,-11.944610805530505" fill="none" id="id48" stroke="none" /><text fill="#e1ed5e" style="font-size:6.75px; font-family:Arial;" text-anchor="middle"><textPath startOffset="22.20632615414155" xlink:href="#id48">December</textPath></text><path d="M 89.63071344664047 81.73862282372117 l -10.601611875595998 -18.670525897854684 a42.4705079507505,42.4705079507505 0 0,0 0.6388290660245831,-0.3555076835971284 l 10.278658720499369 18.850248979011997" fill="#f3ff19" stroke="none" /><path d="M 90.91171255644093 81.06846463323043 l -4.376944259419687 -9.117479564789502 a31.113657828126335,31.113657828126335 0 0,0 0.4848127032157828,-0.22762606478843112 l 4.219353344904295 9.191470612217941" fill="#ff790b" stroke="none" /><path d="M 91.23893434514133 80.91482961587045 l -2.120249415373948 -4.618767047684637 a26.08217144773482,26.08217144773482 0 0,0 0.40963650155610865,-0.18379195763081072 l 2.0404307953510648 4.6545793358319765" fill="#ff3304" stroke="none" /><path d="M 91.56875222667455 80.76684994638697 l -2.07075590577553 -4.723756213901125 a26.15770324753894,26.15770324753894 0 0,0 0.41393474514563766,-0.1772252554985334 l 1.9891374028395838 4.758700997362445" fill="#ff3404" stroke="none" /><path d="M 91.90106846888425 80.62456947434976 l -1.151172341870195 -2.7540002835266906 a23.98491462563873,23.98491462563873 0 0,0 0.38229227674985017,-0.1559466184736798 l 1.1035961955319644 2.773407788183947" fill="#ff1502" stroke="none" /><path d="M 92.23578459929587 80.48803036053334 l -6.051675486333594 -15.208247358327672 a37.36806536839255,37.36806536839255 0 0,0 0.5996984343114695,-0.23267367563867303 l 5.788993887022448 15.310163737856897" fill="#ffcc13" stroke="none" /><path d="M 92.57280143429618 80.3572730644239 l -1.7726892597729997 -4.6882348389254265 a26.01218247040435,26.01218247040435 0 0,0 0.42018057329476677,-0.15475605119418973 l 1.6917263607056634 4.7180541579259385" fill="#ff3204" stroke="none" /><path d="M 93.25333710446033 80.11325718540243 l -2.066793328097913 -6.092165564398136 a27.433204172502883,27.433204172502883 0 0,0 0.44849001111197384,-0.14786010532960223 l 1.96162049474353 6.126839393986972" fill="#ff4606" stroke="none" /><path d="M 94.28887869178378 79.79150937346287 l -4.967617072393878 -17.577641521862887 a39.26610798306682,39.26610798306682 0 0,0 0.6520083207459352,-0.17821850381687113 l 4.66431086242422 17.660546566506053" fill="#ffe415" stroke="none" /><path d="M 94.63758080256005 79.69619591428918 l -5.3166107781940966 -20.130359016312305 a41.820607683072936,41.820607683072936 0 0,0 0.6975898638653463,-0.17783118878551588 l 4.969312025643751 20.218893201266685" fill="#fbff18" stroke="none" /><path d="M 95.33964822691252 79.52364482259891 l -1.1183562589876428 -4.913762112581766 a26.03942246899988,26.03942246899988 0 0,0 0.43790530970321884,-0.09570913961837864 l 1.033608225130903 4.932284750296013" fill="#ff3204" stroke="none" /><path d="M 96.75951476605007 79.25152402106235 l -4.0483904665878745 -25.921405680028734 a47.235638696219794,47.235638696219794 0 0,0 0.8044252203349074,-0.11855136683192191 l 3.6015962658243184 25.987251531021624" fill="#baff1f" stroke="none" /><path d="M 97.83486435360386 79.11191278185805 l -0.5175017346846652 -4.992583900055219 a26.019332828622964,26.019332828622964 0 0,0 0.4458906711855967,-0.042342691976022716 l 0.43148593640883215 5.000752136546422" fill="#ff3204" stroke="none" /><path d="M 99.27714615592234 79.0124445844662 l -0.3873526615577576 -11.246513408489976 a32.25318203584038,32.25318203584038 0 0,0 0.5550209960935105,-0.014334554857657632 l 0.19370503026936806 11.251514755489993" fill="#ff890c" stroke="none" /><path d="M 99.63851952072746 79.00311137660856 l -0.19649408335198376 -11.41351917979047 a32.41521046640128,32.41521046640128 0 0,0 0.5579745626245167,-0.004802663219365407 l 2.7959201918543377e-15 11.415210466401277" fill="#ff8b0c" stroke="none" /></svg>