<?xml version="1.0" encoding="utf-8" ?>
<svg baseProfile="full" height="200mm" version="1.1" viewBox="0,0,200,200" width="200mm" xmlns="http://www.w3.org/2000/svg" xmlns:ev="http://www.w3.org/2001/xml-events" xmlns:xlink="http://www.w3.org/1999/xlink"><defs /><rect fill="#1a1a1a" height="200" width="200" x="0" y="0" /><text alignment-baseline="middle" fill="#e1ed5e" style="dominant-baseline: central; font-size:9.0px; font-family:Arial;" text-anchor="middle" x="100.0" y="100.0">2023</text><line stroke="#e1ed5e" stroke-width="0.3" x1="100.0" x2="100.0" y1="15.0" y2="10.0" /><path d="M 100.0 14.0 a86.0,86.0 0 0,1 42.46469731375804,11.215312516191453" fill="none" id="id109" stroke="none" /><text fill="#e1ed5e" style="font-size:6.75px; font-family:Arial;" text-anchor="middle"><textPath startOffset="22.20632615414155" xlink:href="#id109">January</textPath></text><path d="M 106.0581310904928 79.89281104454417 l 2.971013730594337 -9.86091809140015 a31.298768285221435,31.298768285221435 0 0,0 0.5145139346760148,0.1598619840293378 l -3.14031303798107 9.808315972488291" fill="#ff7a0b" stroke="none" /><path d="M 106.40334571778207 80.00007090966166 l 5.447278685525232 -17.01379126591208 a38.86454416764681,38.86454416764681 0 0,0 0.6353745532605437,0.20947300060468405 l -5.739336061028194 16.91750454104816" fill="#ffdd14" stroke="none" /><path d="M 108.09893153111575 80.62456947434976 l 0.8157579343977672 -1.9515736270824382 a23.115206994470427,23.115206994470427 0 0,0 0.36578851077625874,0.15661155059100246 l -0.8492302029643413 1.9372425485286449" fill="#ff0600" stroke="none" /><path d="M 109.41281617654863 81.2277094730956 l 14.548875668559836 -29.01530379085321 a53.45855260628103,53.45855260628103 0 0,0 0.8190346976074152,0.41954138359476284 l -15.046170853756008 28.760569881945948" fill="#76ff27" stroke="none" /><path d="M 109.73455568895987 81.39251694778311 l 6.038178999517685 -11.541904632298879 a34.02594212221514,34.02594212221514 0 0,0 0.5166352472480613,0.2759686568682519 l -6.235959293294057 11.436257248928873" fill="#ff9f0e" stroke="none" /><path d="M 110.05341064243156 81.56283822128135 l 9.950210883368296 -18.247901564344886 a41.78443186920252,41.78443186920252 0 0,0 0.6285093085377064,0.3497647497286435 l -10.262844280978038 18.073921417056063" fill="#fcff18" stroke="none" /><line stroke="#e1ed5e" stroke-width="0.3" x1="143.23703022742887" x2="145.7803849466894" y1="26.81831364943548" y2="22.513508569990506" /><path d="M 143.74570117128098 25.957352633546492 a86.0,86.0 0 0,1 28.547481713284135,27.462654790039103" fill="none" id="id110" stroke="none" /><text fill="#e1ed5e" style="font-size:6.75px; font-family:Arial;" text-anchor="middle"><textPath startOffset="19.985693538727396" xlink:href="#id110">February</textPath></text><path d="M 111.60114157652 82.49532879139004 l 10.946316584018566 -16.51662222073125 a40.81465761349192,40.81465761349192 0 0,0 0.5822799914479273,0.3931580494675145 l -11.229001269873034 16.325752258965064" fill="#fff617" stroke="none" /><path d="M 112.19680574252982 82.90503203632743 l 7.111318159380515 -9.967179823991994 a33.24399933059979,33.24399933059979 0 0,0 0.46296968130311533,0.3363671626437997 l -7.281833157037418 9.843293426531519" fill="#ff940d" stroke="none" /><path d="M 112.77801427241765 83.33499621200491 l 6.459732853536956 -8.424741918312295 a31.616234027621708,31.616234027621708 0 0,0 0.42902844887299196,0.3348635094818635 l -6.603793857569378 8.312300019607207" fill="#ff7e0b" stroke="none" /><path d="M 113.89432698308785 84.25364557470407 l 6.021047835662525 -6.823616095072846 a30.100261185937114,30.100261185937114 0 0,0 0.3855542633099037,0.3461544244146122 l -6.137613086568419 6.718962661888936" fill="#ff6909" stroke="none" /><path d="M 114.16331599549186 84.49514656593476 l 12.17925164250205 -13.332860165917294 a39.05822058718115,39.05822058718115 0 0,0 0.4924908992613037,0.45771661726620677 l -12.4069504255582 13.121238962576447" fill="#ffe015" stroke="none" /><path d="M 114.68862486808459 84.99185889309783 l 8.34083817299883 -8.522273349236011 a32.92471066597646,32.92471066597646 0 0,0 0.40162534107010867,0.3999006342194405 l -8.48629931423626 8.377436864366452" fill="#ff900d" stroke="none" /><path d="M 115.4437574822437 85.77008943001954 l 6.189498785186464 -5.703017176193723 a29.416311551017188,29.416311551017188 0 0,0 0.3399073841654423,0.37533422328122024 l -6.286749809967941 5.5956301656429535" fill="#ff6008" stroke="none" /><path d="M 115.9244219780498 86.31012108654704 l 13.645465624952832 -11.730709747630423 a38.99467374822119,38.99467374822119 0 0,0 0.43319254838059695,0.512763341319243 l -13.845368786820547 11.494087456682072" fill="#ffdf14" stroke="none" /><path d="M 116.15771136456269 86.58626213691792 l 5.292159991294371 -4.393422140737359 a27.87816221676823,27.87816221676823 0 0,0 0.3033429573652393,0.3718625980547667 l -5.3670014407360185 4.301675373074492" fill="#ff4a06" stroke="none" /><path d="M 116.60985879189232 87.15038557335679 l 6.1402942647973076 -4.750215806005965 a28.763231534736782,28.763231534736782 0 0,0 0.29958146540721103,0.3942140919312376 l -6.2211516704286325 4.643816938193694" fill="#ff5708" stroke="none" /><path d="M 117.04232023915458 87.72973835380427 l 15.899191000657192 -11.447222608380118 a40.59140576684551,40.59140576684551 0 0,0 0.40337686323621663,0.5705479665072392 l -16.09388048369729 11.171848141541085" fill="#fff316" stroke="none" /><path d="M 117.45458315368197 88.32363383020206 l 10.938638486487621 -7.317479153910993 a34.160521004352,34.160521004352 0 0,0 0.3227410621518912,0.4915567796488771 l -11.062976183997439 7.128104310284441" fill="#ffa00e" stroke="none" /><path d="M 117.65298651832404 88.62581576622439 l 26.87534916721862 -17.316343184066174 a52.970926388334036,52.970926388334036 0 0,0 0.48726291331014393,0.7707329124149092 l -27.16943967677472 16.851162623937057" fill="#7cff26" stroke="none" /><line stroke="#e1ed5e" stroke-width="0.3" x1="172.23445277983987" x2="176.4835382374775" y1="55.19839476539836" y2="52.563006222186495" /><path d="M 173.08426987136738 54.67131705675599 a86.0,86.0 0 0,1 12.851231095245387,41.99856678651699" fill="none" id="id111" stroke="none" /><text fill="#e1ed5e" style="font-size:6.75px; font-family:Arial;" text-anchor="middle"><textPath startOffset="22.20632615414155" xlink:href="#id111">March</textPath></text><path d="M 118.03404312379186 89.2402003453031 l 10.07457268001616 -6.010875259616452 a32.73148055752543,32.73148055752543 0 0,0 0.2845150055256593,0.486328371337435 l -10.176547360012147 5.836567475925122" fill="#ff8d0d" stroke="none" /><path d="M 118.56541770881063 90.18545643968196 l 19.732497240624753 -10.4315160994228 a43.320124898480756,43.320124898480756 0 0,0 0.34282838630728923,0.6622353222619587 l -19.909135060092158 10.090308054900497" fill="#eaff1a" stroke="none" /><path d="M 118.73160827565052 90.50648371742162 l 7.904761539118739 -4.006275450414682 a29.862025613533635,29.862025613533635 0 0,0 0.22843025751157325,0.4605014601400777 l -7.97255180958372 3.869614401775655" fill="#ff6609" stroke="none" /><path d="M 118.89224826269711 90.83032412892265 l 13.198058615534867 -6.405903519217095 a35.670526613472745,35.670526613472745 0 0,0 0.2633534701318342,0.5546895716059751 l -13.306370279508457 6.17777153197058" fill="#ffb410" stroke="none" /><path d="M 119.196687751892 91.48605970444005 l 6.483905557711026 -2.875682800797766 a28.092995337099836,28.092995337099836 0 0,0 0.19224878182321417,0.4437366944971712 l -6.532445049376921 2.763646961713992" fill="#ff4d07" stroke="none" /><path d="M 119.34039704204932 91.81776055985345 l 7.147928893636258 -3.024036454976336 a28.761293961029043,28.761293961029043 0 0,0 0.18897308684347547,0.457613319002269 l -7.19892366736593 2.900548565520764" fill="#ff5708" stroke="none" /><path d="M 119.47837535516314 92.15188598940014 l 19.314683113718466 -7.78216008220059 a41.82352033947088,41.82352033947088 0 0,0 0.26330186454914023,0.6700745255703038 l -19.445778528149308 7.4485365517345015" fill="#fcff18" stroke="none" /><path d="M 119.61058180528143 92.48833698450437 l 32.16093402671677 -12.318966416754739 a55.439550099383695,55.439550099383695 0 0,0 0.3336811784807793,0.8940996624840183 l -32.36821979369917 11.763543617241387" fill="#61ff29" stroke="none" /><path d="M 119.7369772167798 92.82701384747503 l 13.8505043493445 -5.033672320342495 a35.73683574448033,35.73683574448033 0 0,0 0.20514121193347523,0.5799618307486238 l -13.935098642087786 4.794512863167256" fill="#ffb510" stroke="none" /><path d="M 119.97218684219823 93.5106431181261 l 13.959887417179305 -4.535842379035472 a35.67829427378315,35.67829427378315 0 0,0 0.1847532786084823,0.5857183815750469 l -14.035896179555994 4.294873831034006" fill="#ffb410" stroke="none" /><path d="M 120.18372546131832 94.20196356495316 l 6.87388986856009 -1.9746138533637985 a28.15188519168123,28.15188519168123 0 0,0 0.12978452000245905,0.46690397141476025 l -6.906861159128912 1.8559985785300863" fill="#ff4e07" stroke="none" /><path d="M 120.28053869075195 94.5502522615342 l 18.702429237314995 -5.025681171198462 a40.365906397876486,40.365906397876486 0 0,0 0.174541541347962,0.6725797587894052 l -18.786167110533256 4.703004986860206" fill="#fff016" stroke="none" /><path d="M 120.37134235888165 94.90015583598534 l 11.341674314501198 -2.8393205780936626 a32.69167727921885,32.69167727921885 0 0,0 0.13196104465411312,0.5470637237020071 l -11.38886815941613 2.643671622732249" fill="#ff8d0d" stroke="none" /><path d="M 120.6074358757038 95.95851677861258 l 12.985023428048812 -2.5465931147530343 a34.23238338014298,34.23238338014298 0 0,0 0.10842581901763687,0.5792150607462389 l -13.026934970976308 2.3226999765442327" fill="#ffa10e" stroke="none" /><path d="M 120.78858239683441 97.02765380044208 l 37.768872331716395 -5.400183715935338 a59.15297762135146,59.15297762135146 0 0,0 0.13544342055604086,1.0092108044756956 l -37.85623175133027 4.749254569394978" fill="#3cff2e" stroke="none" /><path d="M 120.87857604477298 97.74499172005257 l 4.333054466344163 -0.46799521567542407 a25.358254298477796,25.358254298477796 0 0,0 0.04313665386774318,0.4343802176086622 l -4.340468245894135 0.39333946736232694" fill="#ff2603" stroke="none" /><path d="M 120.91429891909075 98.10471618934814 l 22.085146047574924 -2.0013876593129667 a43.17564494001391,43.17564494001391 0 0,0 0.06070396206095859,0.7407420946412301 l -22.116324493455377 1.620931647463968" fill="#ebff1a" stroke="none" /><path d="M 120.94382443527127 98.46500227214037 l 10.488717305370667 -0.7687305287372392 a31.516850162372513,31.516850162372513 0 0,0 0.03499782472328181,0.5414008580652923 l -10.500395721098364 0.5880706064189116" fill="#ff7d0b" stroke="none" /><line stroke="#e1ed5e" stroke-width="0.3" x1="184.98032266829074" x2="189.97916517819016" y1="98.17113171792111" y2="98.06355123074" /><path d="M 185.9800911702706 98.14961562048488 a86.0,86.0 0 0,1 -9.607161424134198,41.387399972396054" fill="none" id="id112" stroke="none" /><text fill="#e1ed5e" style="font-size:6.75px; font-family:Arial;" text-anchor="middle"><textPath startOffset="21.466115282336823" xlink:href="#id112">April</textPath></text><path d="M 120.99980553446 99.90962569577887 l 62.99941660337998 -0.27112291266339017 a84.0,84.0 0 0,0 -0.006222810841987947,1.4459620871852612 l -62.994749495248485 -0.8133486527255557" fill="#4dd2ff" stroke="none" /><path d="M 120.9904718944345 100.63252640178507 l 10.665445397706767 0.3213922885952511 a31.670286712859827,31.670286712859827 0 0,0 -0.02111030790337698,0.5447632454416651 l -10.658332956952188 -0.5049327810509224" fill="#ff7f0b" stroke="none" /><path d="M 120.9764740272857 100.99374915477107 l 14.625271001902247 0.6928643335163394 a35.641673840915246,35.641673840915246 0 0,0 -0.0343070613714946,0.6125756269682943 l -14.611177589643225 -0.944511676820057" fill="#ffb410" stroke="none" /><path d="M 119.79798401119884 107.00284435728193 l 9.507315698923582 3.362880385065697 a31.084543434546674,31.084543434546674 0 0,0 -0.18277080818551325,0.502906767187897 l -9.448020629732843 -3.5260349492597256" fill="#ff770a" stroke="none" /><path d="M 118.97047184881838 109.00673069616215 l 13.426842716978818 6.37474689165873 a35.86329382334884,35.86329382334884 0 0,0 -0.269566863670726,0.5553875822293031 l -13.315122596693378 -6.604923429853309" fill="#ffb711" stroke="none" /><path d="M 118.81262510543309 109.33194174019688 l 6.266203449807973 3.108329921959741 a27.994785241745138,27.994785241745138 0 0,0 -0.2178545258692245,0.4298476474042043 l -6.21177025415248 -3.2157317810666397" fill="#ff4c07" stroke="none" /><line stroke="#e1ed5e" stroke-width="0.3" x1="174.80103733775053" x2="179.2010983576182" y1="140.37084112569926" y2="142.7455964860345" /><path d="M 175.68104954172406 140.8457921977663 a86.0,86.0 0 0,1 -30.038265399797805,32.042727171017184" fill="none" id="id113" stroke="none" /><text fill="#e1ed5e" style="font-size:6.75px; font-family:Arial;" text-anchor="middle"><textPath startOffset="22.206326154141568" xlink:href="#id113">May</textPath></text><path d="M 118.12598468904814 110.60418214915192 l 18.589377737473107 10.875279382016643 a42.536867606580515,42.536867606580515 0 0,0 -0.37517339850625187,0.628812195830041 l -18.39942346326863 -11.19365367173279" fill="#f3ff19" stroke="none" /><path d="M 117.94076556474637 110.91462005526583 l 6.769116781518184 4.1181262590696655 a28.92337717690318,28.92337717690318 0 0,0 -0.2624250520200317,0.42311274181193215 l -6.697227089830189 -4.2340353322468705" fill="#ff5908" stroke="none" /><path d="M 117.14729908036423 112.12312394758627 l 8.466879989608334 5.986076004290434 a31.369241181859536,31.369241181859536 0 0,0 -0.315515125497722,0.4382229135836204 l -8.362585071735008 -6.1309325233251855" fill="#ff7b0b" stroke="none" /><path d="M 116.71984013943494 112.70617746262583 l 8.309097409067965 6.314466248086396 a31.436167100597913,31.436167100597913 0 0,0 -0.33111742168789987,0.4280139026092347 l -8.199173170161997 -6.456558144808883" fill="#ff7c0b" stroke="none" /><path d="M 116.0416608686014 113.55231037782055 l 11.524957778598592 9.736510838011682 a36.08722290871316,36.08722290871316 0 0,0 -0.40496306605844024,0.47106353461623873 l -11.355652202969374 -9.933451471789448" fill="#ffba11" stroke="none" /><path d="M 115.56566222782051 114.09645910891815 l 7.655620195426582 6.9330257498044965 a31.32837676617558,31.32837676617558 0 0,0 -0.36542849621609885,0.3966004596380378 l -7.535145291214762 -7.063777464243869" fill="#ff7a0b" stroke="none" /><path d="M 115.32070863581623 114.36230785411682 l 5.413965970334125 5.075290433751427 a28.420889469252636,28.420889469252636 0 0,0 -0.3376583679314815,0.35403344883579313 l -5.325801051023679 -5.167730999169726" fill="#ff5207" stroke="none" /><path d="M 114.0293411484842 115.62618273729858 l 7.813793735371555 8.703171979937702 a32.696177796669495,32.696177796669495 0 0,0 -0.42202614392919535,0.3723890038791456 l -7.662825238535771 -8.836384125589136" fill="#ff8d0d" stroke="none" /><path d="M 113.75828350139079 115.86535959552629 l 6.680757151257018 7.70391266936474 a31.19719503252097,31.19719503252097 0 0,0 -0.4087345422574079,0.34833244421828613 l -6.547157132422563 -7.817769503805973" fill="#ff780b" stroke="none" /><path d="M 113.48314897796784 116.09983520530334 l 5.013996721916633 5.987067344186212 a28.809298208623595,28.809298208623595 0 0,0 -0.38293027169956023,0.3151255438485708 l -4.910196321672381 -6.0724880068919616" fill="#ff5708" stroke="none" /><path d="M 113.20401910651253 116.32954008644616 l 6.366178398981553 7.873115338977586 a31.124928273746114,31.124928273746114 0 0,0 -0.41950846369493855,0.33328289513278475 l -6.229712442569263 -7.981532148115496" fill="#ff770b" stroke="none" /><path d="M 112.92097659922987 116.55440617244103 l 5.501233124807047 7.04820157346085 a29.940956957373764,29.940956957373764 0 0,0 -0.4090095424992089,0.313611076126775 l -5.379094853814345 -7.141851991414996" fill="#ff6709" stroke="none" /><line stroke="#e1ed5e" stroke-width="0.3" x1="143.8653032363475" x2="146.44561519142675" y1="172.8068346515853" y2="177.08958963109032" /><path d="M 144.38136562736335 173.6633856474863 a86.0,86.0 0 0,1 -40.68145358897372,12.25698825130547" fill="none" id="id114" stroke="none" /><text fill="#e1ed5e" style="font-size:6.75px; font-family:Arial;" text-anchor="middle"><textPath startOffset="21.466115282336833" xlink:href="#id114">June</textPath></text><path d="M 109.2508944713604 118.85261126421891 l 3.177876169876895 6.476267161190923 a28.213940205892435,28.213940205892435 0 0,0 -0.43783646185234526,0.21018810896709494 l -3.065927040024317 -6.530009546657578" fill="#ff4f07" stroke="none" /><path d="M 106.91757812671514 119.82793768551818 l 2.4752826635470235 7.094932577242859 a28.51432582072926,28.51432582072926 0 0,0 -0.46482460825357963,0.15769374435396297 l -2.352788322356217 -7.136489308494944" fill="#ff5307" stroke="none" /><path d="M 106.2309692047433 120.05430185196036 l 3.0458922222030527 9.803168660518962 a31.265455431487595,31.265455431487595 0 0,0 -0.5153217409695714,0.15526221330543197 l -2.8766955067932356 -9.854146242930119" fill="#ff790b" stroke="none" /><path d="M 103.06178313531738 120.77559828337769 l 1.514934642213477 10.279524107750767 a31.390555464074463,31.390555464074463 0 0,0 -0.535240972307099,0.07417952163491684 l -1.3377650787195474 -10.304078194878286" fill="#ff7b0b" stroke="none" /><path d="M 102.70371172650421 120.8252237178851 l 0.5434736384422685 4.186082411961467 a25.221214227614468,25.221214227614468 0 0,0 -0.4310096258874855,0.052189263293602066 l -0.4713365895034027 -4.19481720398042" fill="#ff2403" stroke="none" /><path d="M 102.34483914955558 120.86867818915974 l 0.47131235565826685 4.194601526791849 a25.22099719321876,25.22099719321876 0 0,0 -0.43184040341824065,0.04476202350318133 l -0.39903935563442355 -4.202092918750789" fill="#ff2403" stroke="none" /><path d="M 101.98527174616119 120.90594882070398 l 0.6844297823407591 7.207403232655338 a28.239827724818156,28.239827724818156 0 0,0 -0.48432068671872425,0.04178922676525979 l -0.5602647778804931 -7.2181167116992615" fill="#ff4f07" stroke="none" /><path d="M 101.62511606390274 120.93702456842531 l 0.5503936510143879 7.090943009891549 a28.112271503577936,28.112271503577936 0 0,0 -0.4827777134896903,0.03329517770007831 l -0.42825317674576724 -7.099366532107912" fill="#ff4e07" stroke="none" /><path d="M 101.26447882468166 120.96189622390904 l 0.47404131899615987 7.858419406227769 a28.872704156533054,28.872704156533054 0 0,0 -0.4963519379845788,0.025655725659937303 l -0.3387013125981015 -7.865414938649908" fill="#ff5808" stroke="none" /><line stroke="#e1ed5e" stroke-width="0.3" x1="102.19456741930631" x2="102.32365962044197" y1="184.97166512339345" y2="189.96999836594603" /><path d="M 102.22038585953345 185.97133177190398 a86.0,86.0 0 0,1 -42.740103519485714,-10.115201625700543" fill="none" id="id115" stroke="none" /><text fill="#e1ed5e" style="font-size:6.75px; font-family:Arial;" text-anchor="middle"><textPath startOffset="22.20632615414155" xlink:href="#id115">July</textPath></text><path d="M 99.81925306533755 120.99922214144158 l -0.08603705048464019 9.995805123309477 a30.996175390479905,30.996175390479905 0 0,0 -0.5334889164417291,-0.009184495506019685 l 0.2580856568190372 -9.992843150524298" fill="#ff760a" stroke="none" /><path d="M 99.45781275523022 120.99299961872073 l -0.04467639190520178 1.7298294773237612 a22.730406310844902,22.730406310844902 0 0,0 -0.3910491999178343,-0.013468525122982525 l 0.07444594349767913 -1.728804153774685" fill="#ff0000" stroke="none" /><path d="M 98.37488393609728 120.93702456842531 l -0.9251588953134625 11.919194543162616 a32.955045693736814,32.955045693736814 0 0,0 -0.5651879507469738,-0.048766794577318334 l 1.130191163801978 -11.901503496306635" fill="#ff900d" stroke="none" /><path d="M 97.65516085044442 120.86867818915974 l -0.62669643912169 5.577494009685748 a26.61259190168751,26.61259190168751 0 0,0 -0.4547871159543011,-0.055068386206471455 l 0.7226109781273805 -5.565880094753928" fill="#ff3805" stroke="none" /><path d="M 96.58105272829116 120.7198165907248 l -0.669535192856477 4.057578340507131 a25.112446882796903,25.112446882796903 0 0,0 -0.4258963707696014,-0.07404754322850055 l 0.7392805350981284 -4.0454522187576245" fill="#ff2303" stroke="none" /><path d="M 96.22490169976321 120.6578951692458 l -1.2707002638654779 6.953459421392941 a28.06861210461757,28.06861210461757 0 0,0 -0.4745364910078177,-0.09094604790801333 l 1.3902043694449906 -6.930556175136459" fill="#ff4d07" stroke="none" /><path d="M 95.16358092515715 120.4354850818985 l -1.6264717682891405 6.8723861689098555 a28.062230672221425,28.062230672221425 0 0,0 -0.4691025666791266,-0.11529399768098562 l 1.7445276197114776 -6.84337091291484" fill="#ff4d07" stroke="none" /><path d="M 94.81253420990036 120.34920634021253 l -1.002268377284708 3.931662750733004 a25.057402356878885,25.057402356878885 0 0,0 -0.41703817152605166,-0.11014357150098777 l 1.069796991622249 -3.913827829928435" fill="#ff2203" stroke="none" /><path d="M 93.08242187328487 119.8279376855182 l -2.8353545932985775 8.127011095857068 a29.607412214012015,29.607412214012015 0 0,0 -0.47975348746670504,-0.17202253179405683 l 2.9748276413950094 -8.077001023023053" fill="#ff6309" stroke="none" /><path d="M 92.7421414339146 119.70592522655815 l -6.931707355705366 18.82038697780623 a41.0563090537496,41.0563090537496 0 0,0 -0.6610647960353309,-0.2499581407945126 l 7.25464237250098 -18.698280586905085" fill="#fff917" stroke="none" /><path d="M 91.40352486487194 119.15986991738527 l -5.15012128362624 11.478617957005952 a33.58103411643731,33.58103411643731 0 0,0 -0.525354497260753,-0.2411644826814909 l 5.346943776654413 -11.388266403990388" fill="#ff990e" stroke="none" /><path d="M 91.07499286063937 119.00905698771935 l -3.840606827570099 8.179972622176976 a30.036714718499358,30.036714718499358 0 0,0 -0.4661230867452198,-0.2237674078910417 l 3.9808425823155607 -8.112650937786372" fill="#ff6909" stroke="none" /><line stroke="#e1ed5e" stroke-width="0.3" x1="58.666819895761336" x2="56.23545636021788" y1="174.27360380694188" y2="178.64263932499728" /><path d="M 58.180547188652646 175.14741091055294 a86.0,86.0 0 0,1 -31.652253787137756,-30.449443065178592" fill="none" id="id116" stroke="none" /><text fill="#e1ed5e" style="font-size:6.75px; font-family:Arial;" text-anchor="middle"><textPath startOffset="22.20632615414155" xlink:href="#id116">August</textPath></text><path d="M 89.4739219176387 118.17145234162733 l -3.695384062640259 6.379441122596438 a28.372457691102074,28.372457691102074 0 0,0 -0.4204962100647073,-0.24843657275119221 l 3.8046481437333486 -6.314885977551496" fill="#ff5107" stroke="none" /><path d="M 89.1626897886671 117.98757091392108 l -3.8194345291602856 6.339428151877139 a28.401110012380187,28.401110012380187 0 0,0 -0.4165777442297077,-0.2558960747246836 l 3.9279914733223023 -6.272743610324077" fill="#ff5207" stroke="none" /><path d="M 88.24862548938628 117.40417183066458 l -8.381784854401928 12.41369881641655 a35.97845905459514,35.97845905459514 0 0,0 -0.5102826824423047,-0.3509770819897329 l 8.594224421467123 -12.267580945061717" fill="#ffb811" stroke="none" /><path d="M 87.65650970185807 116.9893568818739 l -4.426746776952065 6.092894230300863 a28.531231448368125,28.531231448368125 0 0,0 -0.39483831768391864,-0.2920919481715354 l 4.530970065054548 -6.0157923333895615" fill="#ff5407" stroke="none" /><path d="M 86.51685102203217 116.09983520530335 l -1.9752096841420277 2.3585403129913987 a24.076388418963706,24.076388418963706 0 0,0 -0.315440269209393,-0.2688250407507421 l 2.015515429928477 -2.324190882017705" fill="#ff1402" stroke="none" /><path d="M 86.24171649860922 115.8653595955263 l -4.711098540624638 5.432601561772839 a28.190800316268856,28.190800316268856 0 0,0 -0.3638729525432409,-0.32107557383666435 l 4.803913846074466 -5.350702846163886" fill="#ff4f07" stroke="none" /><path d="M 85.97065885151581 115.62618273729859 l -5.185350749486831 5.775555495506931 a28.76175905815711,28.76175905815711 0 0,0 -0.3655488786070432,-0.33392023352727496 l 5.283999177560729 -5.68544249539308" fill="#ff5708" stroke="none" /><path d="M 85.70375840098266 115.38237550388516 l -2.1666197487192846 2.3312251907679116 a24.182585745209593,24.182585745209593 0 0,0 -0.3024713670018096,-0.2860055568110313 l 2.206426950111911 -2.2935849972109494" fill="#ff1502" stroke="none" /><path d="M 85.44109423537348 115.13401014063109 l -7.346222994702769 7.636412728715883 a31.59631028477336,31.59631028477336 0 0,0 -0.38870991746763717,-0.38043446683483323 l 7.4765828645462005 -7.50882815895848" fill="#ff7e0b" stroke="none" /><path d="M 84.9287848128048 114.62390073753433 l -2.0579026875092947 1.99682402884208 a23.867450029803326,23.867450029803326 0 0,0 -0.2835605913202874,-0.2973121463390164 l 2.09196983020854 -1.9611047659205634" fill="#ff1101" stroke="none" /><path d="M 84.67929136418377 114.36230785411682 l -9.312878382260728 8.73030285435306 a33.76510445282389,33.76510445282389 0 0,0 -0.39385160095802946,-0.4274481262040371 l 9.461776391214485 -8.568703473347677" fill="#ff9b0e" stroke="none" /><path d="M 84.19399662182784 113.82643327865904 l -3.338262021795095 2.920172544994665 a25.435245316631324,25.435245316631324 0 0,0 -0.28542886094137815,-0.3320182490349085 l 3.3880333923072516 -2.862277196798226" fill="#ff2803" stroke="none" /><path d="M 83.95833913139862 113.55231037782056 l -8.95574012206941 7.5659852674573544 a32.72388221543638,32.72388221543638 0 0,0 -0.3598131096455726,-0.4334180696075631 l 9.084649231608518 -7.41070594073603" fill="#ff8d0d" stroke="none" /><path d="M 83.28015986056508 112.70617746262583 l -3.3928929724047614 2.578415813760763 a25.26144938147166,25.26144938147166 0 0,0 -0.2601192293188409,-0.348472215749519 l 3.4367734684186875 -2.519630718501936" fill="#ff2503" stroke="none" /><path d="M 82.85270091963577 112.12312394758628 l -8.611606315748588 6.088397377589766 a31.54648500519879,31.54648500519879 0 0,0 -0.30966494291404884,-0.44609544617048413 l 8.715132165824771 -5.93926066923227" fill="#ff7d0b" stroke="none" /><path d="M 82.05923443525364 110.91462005526583 l -6.033510210832465 3.670605432814159 a28.062335995095705,28.062335995095705 0 0,0 -0.24750863327969586,-0.4148387060467583 l 6.095799719810393 -3.5662046328812895" fill="#ff4d07" stroke="none" /><line stroke="#e1ed5e" stroke-width="0.3" x1="26.63291911575756" x2="22.317208475507996" y1="142.92168965132927" y2="145.44649492493687" /><path d="M 25.769776987707644 143.4266507060508 a86.0,86.0 0 0,1 -11.730757126820373,-40.83630448921669" fill="none" id="id117" stroke="none" /><text fill="#e1ed5e" style="font-size:6.75px; font-family:Arial;" text-anchor="middle"><textPath startOffset="21.46611528233685" xlink:href="#id117">September</textPath></text><path d="M 81.35079622478065 109.6543875284942 l -3.748320562407649 1.9404441994779542 a25.220809250588758,25.220809250588758 0 0,0 -0.19626753318085927,-0.3872544628715384 l 3.781166765374775 -1.8756355249037309" fill="#ff2403" stroke="none" /><path d="M 80.87730276802145 108.67885076344099 l -6.735591166906177 3.0569532023637955 a28.39683386653687,28.39683386653687 0 0,0 -0.19818138897836662,-0.4468467137875076 l 6.787213640615824 -2.940558152083592" fill="#ff5207" stroke="none" /><path d="M 80.45479744820244 107.68017299344265 l -8.613355515902736 3.3845676575028647 a30.254468729837846,30.254468729837846 0 0,0 -0.18628932736320641,-0.4863426495798296 l 8.67033912285945 -3.2358014410898774" fill="#ff6c09" stroke="none" /><path d="M 79.76711848015287 105.62410040840567 l -8.783447784607269 2.4415203649644512 a30.116467335402376,30.116467335402376 0 0,0 -0.13453732069162846,-0.5006634194053184 l 8.824173181640672 -2.289966012383594" fill="#ff6a09" stroke="none" /><path d="M 79.67330655649465 105.27499134158121 l -11.301955087434385 2.932976550999482 a32.67632391838702,32.67632391838702 0 0,0 -0.13660054906972094,-0.5456512909053075 l 11.350766950799164 -2.7379974206967828" fill="#ff8d0c" stroke="none" /><path d="M 79.4281124754447 104.21870165774334 l -4.192687455461101 0.8597994470677923 a25.279939624382447,25.279939624382447 0 0,0 -0.08374890923997107,-0.42703388391907404 l 4.206866297676738 -0.7875018360807635" fill="#ff2503" stroke="none" /><path d="M 79.35854240842038 103.8639653848113 l -11.317960819983336 2.1186589484313347 a32.51455395846691,32.51455395846691 0 0,0 -0.09824591068662572,-0.5510152420043589 l 11.352753173009152 -1.9235249556937621" fill="#ff8a0c" stroke="none" /><path d="M 79.29508885075956 103.50808413554451 l -9.012723486500864 1.527047957518184 a30.141173891174194,30.141173891174194 0 0,0 -0.08226853375873201,-0.5122862382470804 l 9.037673774620886 -1.3716824895778899" fill="#ff6a09" stroke="none" /><line stroke="#e1ed5e" stroke-width="0.3" x1="15.007084014347285" x2="10.007500721073583" y1="101.09737516637583" y2="101.16192664675087" /><path d="M 14.007167355692545 101.11028546245083 a86.0,86.0 0 0,1 10.666146001902534,-42.60595125391555" fill="none" id="id118" stroke="none" /><text fill="#e1ed5e" style="font-size:6.75px; font-family:Arial;" text-anchor="middle"><textPath startOffset="22.20632615414155" xlink:href="#id118">October</textPath></text><path d="M 79.00019446554 99.90962569577889 l -26.81906388685008 -0.11541793730701684 a47.81931224075663,47.81931224075663 0 0,0 0.010627256660159467,-0.8230927399770747 l 26.813103623072205 0.5770469353445635" fill="#b5ff20" stroke="none" /><path d="M 79.03285615573316 98.82574320788736 l -13.391112239277474 -0.7499640684352913 a34.41209652175494,34.41209652175494 0 0,0 0.03821284538982924,-0.5911358047749312 l 13.376218802883232 0.9803589374632342" fill="#ffa40f" stroke="none" /><path d="M 79.3925641242962 95.95851677861259 l -18.55730534040665 -3.639416306802169 a39.91081522704145,39.91081522704145 0 0,0 0.13801673820925264,-0.6730186311552255 l 18.491909306282402 3.9583105941207974" fill="#ffea16" stroke="none" /><path d="M 79.71946130924805 94.55025226153421 l -9.941467841452432 -2.6714523076594348 a31.29414592254898,31.29414592254898 0 0,0 0.14427082519664383,-0.5190189187610476 l 9.89401024568943 2.8421825298394245" fill="#ff7a0b" stroke="none" /><path d="M 79.81627453868168 94.20196356495316 l -11.223495077844246 -3.2240942592398647 a32.677398064417325,32.677398064417325 0 0,0 0.15995446755978204,-0.5392869469863126 l 11.166334713172757 3.4168105929727166" fill="#ff8d0d" stroke="none" /><path d="M 80.2630227832202 92.82701384747504 l -6.731379940250065 -2.446377404628519 a28.162139226926403,28.162139226926403 0 0,0 0.16950310363151516,-0.45418404609135055 l 6.688272248116922 2.561884587749211" fill="#ff4e07" stroke="none" /><path d="M 80.52162464483688 92.15188598940014 l -9.557815216965128 -3.8509794655489786 a31.304458965211616,31.304458965211616 0 0,0 0.20568268766476572,-0.4980769427846677 l 9.490110842414163 4.014930978786958" fill="#ff7a0b" stroke="none" /><path d="M 80.65960295795068 91.81776055985345 l -10.858919969000011 -4.594025813150116 a32.79072584979554,32.79072584979554 0 0,0 0.2243967588389227,-0.5179386578096902 l 10.778232500318408 4.7802636155464056" fill="#ff8e0d" stroke="none" /><path d="M 80.803312248108 91.48605970444005 l -6.59039618935561 -2.922912556866965 a28.209489562220305,28.209489562220305 0 0,0 0.20068725620201092,-0.44218776693724987 l 6.539106616190248 3.0359223326462863" fill="#ff4f07" stroke="none" /><path d="M 81.26839172434947 90.50648371742162 l -9.444207277036334 -4.7864942636633225 a31.587897734097545,31.587897734097545 0 0,0 0.24998145855762005,-0.48288461043315484 l 9.360416385318599 4.9483515963568125" fill="#ff7e0b" stroke="none" /><line stroke="#e1ed5e" stroke-width="0.3" x1="26.266209847984243" x2="21.928928074336255" y1="57.711370442889674" y2="55.22380399835377" /><path d="M 25.398753493254645 57.213857153982495 a86.0,86.0 0 0,1 29.58750427330803,-30.492523968695096" fill="none" id="id119" stroke="none" /><text fill="#e1ed5e" style="font-size:6.75px; font-family:Arial;" text-anchor="middle"><textPath startOffset="21.46611528233685" xlink:href="#id119">November</textPath></text><path d="M 81.78341655067845 89.55222093294921 l -9.182655667094132 -5.266539575080116 a31.585726436872484,31.585726436872484 0 0,0 0.27455565647037933,-0.4693046154315318 l 9.090640336153427 5.42382360286554" fill="#ff7e0b" stroke="none" /><path d="M 81.96595687620814 89.24020034530311 l -9.062205369799704 -5.406858214735217 a31.55261493273948,31.55261493273948 0 0,0 0.2822970413628642,-0.46402211099131657 l 8.967792530150623 5.562048098933608" fill="#ff7d0b" stroke="none" /><path d="M 82.15384107792192 88.93136811851018 l -18.97932320764874 -11.771448571232293 a43.333421387811605,43.333421387811605 0 0,0 0.3986105320176276,-0.6305061351255695 l 18.77388507938515 12.096402354072078" fill="#eaff1a" stroke="none" /><path d="M 82.54541684631803 88.32363383020206 l -9.69007145062207 -6.482241453305688 a32.65834203380204,32.65834203380204 0 0,0 0.3165923538049661,-0.46456021376420076 l 9.577054631148364 6.648079690340305" fill="#ff8c0c" stroke="none" /><path d="M 82.7489923806493 88.02491185347247 l -10.718399109109498 -7.440363887919915 a34.04772371897957,34.04772371897957 0 0,0 0.3383490602169144,-0.47857075075560246 l 10.588737429088706 7.6237611390073035" fill="#ff9f0e" stroke="none" /><path d="M 83.39014120810768 87.1503855733568 l -3.3965725806183964 -2.6276351039395296 a25.29431851809621,25.29431851809621 0 0,0 0.26937957717755096,-0.3420847070911237 l 3.3508389228468745 2.685712204983701" fill="#ff2503" stroke="none" /><path d="M 85.31137513191541 84.99185889309783 l -3.3129349012140157 -3.384999952135386 a25.736429281182026,25.736429281182026 0 0,0 0.31927481320627066,-0.3071421173433261 l 3.2541768443953174 3.441525156241026" fill="#ff2c04" stroke="none" /><path d="M 86.10567301691215 84.25364557470407 l -16.01363716660418 -18.148155486074693 a45.20314283002085,45.20314283002085 0 0,0 0.5878694584540157,-0.5097946014094813 l 15.698873909503392 18.421115080903853" fill="#d3ff1c" stroke="none" /><path d="M 86.37877921826538 84.01681056812374 l -6.6422261321448195 -7.7940120214327635 a31.240399961953926,31.240399961953926 0 0,0 0.4122876853256393,-0.3452790797011378 l 6.50708090986007 7.907192258527714" fill="#ff790b" stroke="none" /><path d="M 87.22198572758235 83.33499621200491 l -13.202730551699494 -17.218916019751884 a42.69799905327787,42.69799905327787 0 0,0 0.5871053073073623,-0.44219554549441303 l 12.904379090633741 17.44362815475215" fill="#f1ff19" stroke="none" /><path d="M 87.51073957382395 83.11751280151077 l -2.5968770011782873 -3.5103553959493334 a25.36650491412976,25.36650491412976 0 0,0 0.35326443666057433,-0.2566616368657641 l 2.5360672481639313 3.5545362676317653" fill="#ff2703" stroke="none" /><path d="M 88.39885842347998 82.49532879139004 l -4.969406122009214 -7.498212110770425 a29.9954534106718,29.9954534106718 0 0,0 0.4328386409516535,-0.28153029226504556 l 4.839600455273273 7.582641327195006" fill="#ff6809" stroke="none" /><line stroke="#e1ed5e" stroke-width="0.3" x1="56.762969772571076" x2="54.21961505331055" y1="26.818313649435495" y2="22.513508569990535" /><path d="M 56.25429882871897 25.957352633546506 a86.0,86.0 0 0,1 42.265352541879196,-11.944610805530505" fill="none" id="id120" stroke="none" /><text fill="#e1ed5e" style="font-size:6.75px; font-family:Arial;" text-anchor="middle"><textPath startOffset="22.20632615414155" xlink:href="#id120">December</textPath></text><path d="M 89.3179101791058 81.91981866633112 l -5.222766982145867 -8.839897031758076 a31.267476539144283,31.267476539144283 0 0,0 0.46574137280991784,-0.26978746465700854 l 5.069828876870629 8.92848865380513" fill="#ff790b" stroke="none" /><path d="M 89.63071344664047 81.73862282372117 l -2.1899118803801967 -3.856659435984073 a25.435035067391837,25.435035067391837 0 0,0 0.3825864224474696,-0.2129089298744875 l 2.1232013688606814 3.893783763418745" fill="#ff2803" stroke="none" /><path d="M 89.94658935756843 81.56283822128135 l -15.001299888846212 -27.511200206464082 a52.335365566006196,52.335365566006196 0 0,0 0.7946376453558589,-0.42446791010469836 l 14.525517196962047 27.76534684307053" fill="#82ff25" stroke="none" /><path d="M 91.23893434514133 80.91482961587045 l -1.8626686501010323 -4.057651198703207 a25.46475842016192,25.46475842016192 0 0,0 0.3999396512330083,-0.179441263547238 l 1.7925468804012497 4.089112792766974" fill="#ff2803" stroke="none" /><path d="M 91.90106846888425 80.62456947434976 l -6.104051024397238 -14.602990047989634 a36.8274052595531,36.8274052595531 0 0,0 0.5869869800751495,-0.23944672753798368 l 5.851780174733708 14.705897661711195" fill="#ffc312" stroke="none" /><path d="M 92.23578459929587 80.48803036053334 l -2.0307800439437833 -5.103480070667839 a26.492683899386904,26.492683899386904 0 0,0 0.4251657370683527,-0.16495770063648346 l 1.9426311418757545 5.137680475194874" fill="#ff3705" stroke="none" /><path d="M 92.57280143429618 80.3572730644239 l -3.478321575999653 -9.1991240448288 a30.83476507997075,30.83476507997075 0 0,0 0.4980808236084224,-0.18344737081196516 l 3.319458426618661 9.257634683447087" fill="#ff740a" stroke="none" /><path d="M 92.91201910852362 80.23233633223022 l -2.999473425480148 -8.365228795496177 a29.886725697981234,29.886725697981234 0 0,0 0.4857560628735841,-0.1694707522662761 l 2.8550353585432786 8.415620400934664" fill="#ff6609" stroke="none" /><path d="M 93.59665428221793 80.00007090966166 l -4.4340034375185375 -13.848971810224727 a35.54147195727879,35.54147195727879 0 0,0 0.5842588569068611,-0.1815320708673445 l 4.194959207900948 13.923244015974596" fill="#ffb310" stroke="none" /><path d="M 94.28887869178378 79.79150937346287 l -2.988686315484201 -10.575303190501861 a31.989507880856237,31.989507880856237 0 0,0 0.5311813771785207,-0.1451919358756607 l 2.8062070490819577 10.625181667203817" fill="#ff830c" stroke="none" /><path d="M 94.98787191387505 79.60689891045804 l -6.5509148194118065 -26.654041126975514 a48.4472656811146,48.4472656811146 0 0,0 0.8115524046690025,-0.1920682339785753 l 6.09113872778027 26.76285527309496" fill="#aeff20" stroke="none" /><path d="M 95.33964822691252 79.52364482259891 l -2.263142012401829 -9.94364844526259 a31.197938819745456,31.197938819745456 0 0,0 0.5246561469336392,-0.1146695125769176 l 2.091643141314669 9.981131455935378" fill="#ff780b" stroke="none" /><path d="M 96.75951476605007 79.25152402106235 l -6.5547035356511945 -41.96905680472491 a63.47782795198578,63.47782795198578 0 0,0 1.0810304919354043,-0.1593157936452702 l 5.831304063287141 42.07566708253115" fill="#33ff54" stroke="none" /><path d="M 98.19473922651362 79.07773832637324 l -0.9456741111454424 -10.959990657276979 a32.00071337378124,32.00071337378124 0 0,0 0.5492081451102245,-0.04262912221017627 l 0.7568757766728836 10.974645041675616" fill="#ff830c" stroke="none" /><path d="M 98.91598698831166 79.02799685794201 l -0.4534487378224279 -8.772706832700187 a29.784418075794054,29.784418075794054 0 0,0 0.5122340780962928,-0.022057876915835013 l 0.30237382733681095 8.779212436140215" fill="#ff6509" stroke="none" /><path d="M 99.27714615592234 79.0124445844662 l -1.4114073569482735 -40.97922472230978 a62.00352337993423,62.00352337993423 0 0,0 1.0669724701704677,-0.027556751029094752 l 0.7058082515829267 40.99744826548124" fill="#31ff43" stroke="none" /></svg>