<?xml version="1.0" encoding="utf-8" ?>
<svg baseProfile="full" height="200mm" version="1.1" viewBox="0,0,200,200" width="200mm" xmlns="http://www.w3.org/2000/svg" xmlns:ev="http://www.w3.org/2001/xml-events" xmlns:xlink="http://www.w3.org/1999/xlink"><defs /><rect fill="#1a1a1a" height="200" width="200" x="0" y="0" /><text alignment-baseline="middle" fill="#e1ed5e" style="dominant-baseline: central; font-size:9.0px; font-family:Arial;" text-anchor="middle" x="100.0" y="100.0">2015</text><line stroke="#e1ed5e" stroke-width="0.3" x1="100.0" x2="100.0" y1="15.0" y2="10.0" /><path d="M 100.0 14.0 a86.0,86.0 0 0,1 42.46469731375804,11.215312516191453" fill="none" id="id13" stroke="none" /><text fill="#e1ed5e" style="font-size:6.75px; font-family:Arial;" text-anchor="middle"><textPath startOffset="22.20632615414155" xlink:href="#id13">January</textPath></text><path d="M 100.72285384407766 79.0124445844662 l 0.6588940060847547 -19.130526286834225 a40.14186974468559,40.14186974468559 0 0,0 0.6903621077774535,0.02972844457616678 l -0.9880969462515398 19.116350115733862" fill="#ffec16" stroke="none" /><path d="M 101.08401301168833 79.027996857942 l 0.8572958209526864 -16.58578859924445 a37.60793002103062,37.60793002103062 0 0,0 0.6462080198177114,0.038981032472959455 l -1.1426658896100097 16.568574297391187" fill="#ffcc13" stroke="none" /><path d="M 101.80526077348638 79.07773832637324 l 0.6164462250822411 -7.144369067512675 a28.170914538693797,28.170914538693797 0 0,0 0.4827621090173344,0.045844079279490954 l -0.7393334611898197 7.132699443718006" fill="#ff4d07" stroke="none" /><path d="M 103.59715602781102 79.31037775812273 l 0.3270603838520745 -1.8811404731588914 a22.909360619275972,22.909360619275972 0 0,0 0.3879371623156002,0.07089303678123789 l -0.3593926672705755 1.875231955026915" fill="#ff0100" stroke="none" /><path d="M 110.36928655335952 81.73862282372117 l 0.9260020654481238 -1.6307846153294672 a22.875350177116122,22.875350177116122 0 0,0 0.3407373467334168,0.19737706430191598 l -0.9539361446468689 1.6146033936375017" fill="#ff0000" stroke="none" /><line stroke="#e1ed5e" stroke-width="0.3" x1="143.23703022742887" x2="145.7803849466894" y1="26.81831364943548" y2="22.513508569990506" /><path d="M 143.74570117128098 25.957352633546492 a86.0,86.0 0 0,1 28.547481713284135,27.462654790039103" fill="none" id="id14" stroke="none" /><text fill="#e1ed5e" style="font-size:6.75px; font-family:Arial;" text-anchor="middle"><textPath startOffset="19.985693538727396" xlink:href="#id14">February</textPath></text><path d="M 111.60114157652 82.49532879139004 l 3.31878414959103 -5.007630065347734 a27.007552505218012,27.007552505218012 0 0,0 0.38530171172057887,0.2601574357035149 l -3.404490555718151 4.949760717345549" fill="#ff3c05" stroke="none" /><line stroke="#e1ed5e" stroke-width="0.3" x1="172.23445277983987" x2="176.4835382374775" y1="55.19839476539836" y2="52.563006222186495" /><path d="M 173.08426987136738 54.67131705675599 a86.0,86.0 0 0,1 12.851231095245387,41.99856678651699" fill="none" id="id15" stroke="none" /><text fill="#e1ed5e" style="font-size:6.75px; font-family:Arial;" text-anchor="middle"><textPath startOffset="22.20632615414155" xlink:href="#id15">March</textPath></text><line stroke="#e1ed5e" stroke-width="0.3" x1="184.98032266829074" x2="189.97916517819016" y1="98.17113171792111" y2="98.06355123074" /><path d="M 185.9800911702706 98.14961562048488 a86.0,86.0 0 0,1 -9.607161424134198,41.387399972396054" fill="none" id="id16" stroke="none" /><text fill="#e1ed5e" style="font-size:6.75px; font-family:Arial;" text-anchor="middle"><textPath startOffset="21.466115282336823" xlink:href="#id16">April</textPath></text><path d="M 120.70491114924044 103.5080841355445 l 7.076208822258851 1.1989395042671782 a28.177059790130386,28.177059790130386 0 0,0 -0.08513974705262693,0.47750891613220964 l -7.054522632867035 -1.3205671711326061" fill="#ff4d07" stroke="none" /><path d="M 120.64145759157962 103.86396538481128 l 7.325173666172869 1.3712315304404372 a28.452412035687942,28.452412035687942 0 0,0 -0.09425886725365862,0.4806239334031946 l -7.300484865943547 -1.4971191909115769" fill="#ff5107" stroke="none" /><path d="M 120.5718875245553 104.21870165774334 l 2.5837805501354763 0.5298589775532596 a23.637550467261654,23.637550467261654 0 0,0 -0.08516942753832583,0.3978832110966605 l -2.5742770838727074 -0.5742560080660892" fill="#ff0b01" stroke="none" /><path d="M 120.49622156327973 104.57218783832717 l 3.6857381252420227 0.8221948118321262 a24.77633020755154,24.77633020755154 0 0,0 -0.09643824807061958,0.4154534486647825 l -3.6710393112408504 -0.8855169178454736" fill="#ff1c02" stroke="none" /><path d="M 119.54520255179757 107.68017299344265 l 8.886593530653451 3.491934936819051 a30.548044521368197,30.548044521368197 0 0,0 -0.19652195020883945,0.4877513637705064 l -8.82516896618722 -3.6443856684323706" fill="#ff6e0a" stroke="none" /><path d="M 119.26925614724726 108.34839909993367 l 6.031626015868682 2.6132000538696483 a27.573380174373625,27.573380174373625 0 0,0 -0.19243450898325828,0.4338890165305386 l -5.98575042215415 -2.7166374068928745" fill="#ff4406" stroke="none" /><path d="M 119.12269723197855 108.67885076344098 l 2.2451529756249227 1.0189643950414673 a23.46556288143695,23.46556288143695 0 0,0 -0.17009782384265573,0.3663755799442817 l -2.2272805349424356 -1.0574600422645797" fill="#ff0901" stroke="none" /><path d="M 118.97047184881838 109.00673069616215 l 6.434681770287426 3.05503449162192 a28.123086776803223,28.123086776803223 0 0,0 -0.2113875076981038,0.43552087676968254 l -6.381141005974609 -3.165344324356878" fill="#ff4c07" stroke="none" /><line stroke="#e1ed5e" stroke-width="0.3" x1="174.80103733775053" x2="179.2010983576182" y1="140.37084112569926" y2="142.7455964860345" /><path d="M 175.68104954172406 140.8457921977663 a86.0,86.0 0 0,1 -30.038265399797805,32.042727171017184" fill="none" id="id17" stroke="none" /><text fill="#e1ed5e" style="font-size:6.75px; font-family:Arial;" text-anchor="middle"><textPath startOffset="22.206326154141568" xlink:href="#id17">May</textPath></text><path d="M 118.30583269289576 110.29060199501025 l 10.522976319682247 5.915478575896341 a33.07169902733173,33.07169902733173 0 0,0 -0.2832323359007097,0.4938394513675283 l -10.419591987629158 -6.095737873122184" fill="#ff900d" stroke="none" /><path d="M 114.81725581225074 114.88116024355365 l 3.106904863551889 3.1203044424572752 a25.403312122116827,25.403312122116827 0 0,0 -0.3125212807886403,0.3058678502620485 l -3.0527336303874546 -3.173322395641896" fill="#ff2503" stroke="none" /><path d="M 111.45004920935366 117.60387380957326 l 7.910516704466512 12.162020903821993 a35.508308895134775,35.508308895134775 0 0,0 -0.5152394237564961,0.32885017795099597 l -7.6999954786630855 -12.296385510596798" fill="#ffb110" stroke="none" /><line stroke="#e1ed5e" stroke-width="0.3" x1="143.8653032363475" x2="146.44561519142675" y1="172.8068346515853" y2="177.08958963109032" /><path d="M 144.38136562736335 173.6633856474863 a86.0,86.0 0 0,1 -40.68145358897372,12.25698825130547" fill="none" id="id18" stroke="none" /><text fill="#e1ed5e" style="font-size:6.75px; font-family:Arial;" text-anchor="middle"><textPath startOffset="21.466115282336833" xlink:href="#id18">June</textPath></text><path d="M 110.5260780823613 118.17145234162733 l 3.444218786096998 5.945847735119521 a27.871371648785228,27.871371648785228 0 0,0 -0.4172095259711033,0.23690245734616713 l -3.3413604932046956 -6.004253358260317" fill="#ff4806" stroke="none" /><path d="M 106.91757812671514 119.82793768551818 l 3.217242694039416 9.221621568717135 a30.766726929170236,30.766726929170236 0 0,0 -0.5015419926814408,0.17015027468928165 l -3.058030968420748 -9.27563483030454" fill="#ff710a" stroke="none" /><path d="M 102.70371172650421 120.8252237178851 l 1.5483773376630021 11.926310094540746 a33.026401991075005,33.026401991075005 0 0,0 -0.5643938090418148,0.06834023031553246 l -1.342856105569807 -11.951195853581629" fill="#ff900d" stroke="none" /><path d="M 101.98527174616119 120.90594882070398 l 1.2480080389916202 13.14217675310005 a34.20130046151178,34.20130046151178 0 0,0 -0.5865615572305857,0.05061099928017013 l -1.0216021640194928 -13.161712004658884" fill="#ff9f0e" stroke="none" /><path d="M 101.62511606390274 120.93702456842531 l 0.3566636895722423 4.595041915533121 a25.608863112847416,25.608863112847416 0 0,0 -0.4397861758384562,0.030330229555826385 l -0.2775147529548557 -4.600500489605232" fill="#ff2803" stroke="none" /><line stroke="#e1ed5e" stroke-width="0.3" x1="102.19456741930631" x2="102.32365962044197" y1="184.97166512339345" y2="189.96999836594603" /><path d="M 102.22038585953345 185.97133177190398 a86.0,86.0 0 0,1 -42.740103519485714,-10.115201625700543" fill="none" id="id19" stroke="none" /><text fill="#e1ed5e" style="font-size:6.75px; font-family:Arial;" text-anchor="middle"><textPath startOffset="22.20632615414155" xlink:href="#id19">July</textPath></text><path d="M 100.18074693466247 120.99922214144158 l 0.15166150253160177 17.62006967317781 a38.620722360306075,38.620722360306075 0 0,0 -0.6648168743881023,0.0 l 0.1516615025315896 -17.62006967317781" fill="#ffd914" stroke="none" /><path d="M 99.45781275523022 120.99299961872073 l -0.6245979729773731 24.183868460674212 a45.19193287753255,45.19193287753255 0 0,0 -0.7774726484351475,-0.026777730014741766 l 1.0407909730871636 -24.169533932233378" fill="#d4ff1c" stroke="none" /><path d="M 98.37488393609728 120.93702456842531 l -1.34266898272661 17.298145100541234 a38.350175328121466,38.350175328121466 0 0,0 -0.6577158838110039,-0.05675049397932044 l 1.6402291842791556 -17.27247035428325" fill="#ffd513" stroke="none" /><path d="M 96.93821686468263 120.77559828337769 l -1.4091526945697674 9.561745234215019 a30.665023706160625,30.665023706160625 0 0,0 -0.5215450814016767,-0.08145461559860798 l 1.573533639579961 -9.536072311269304" fill="#ff6f0a" stroke="none" /><path d="M 96.58105272829116 120.7198165907248 l -3.6090357441457694 21.871808116740798 a43.16756931415915,43.16756931415915 0 0,0 -0.7321035338233027,-0.127285583510749 l 3.9849882494411224 -21.806443954709046" fill="#edff1a" stroke="none" /><path d="M 96.22490169976321 120.6578951692458 l -1.738781405888279 9.514868527482008 a30.6724393961777,30.6724393961777 0 0,0 -0.5185575869395279,-0.09938279571441673 l 1.9023066073995019 -9.483528533419122" fill="#ff700a" stroke="none" /><path d="M 95.86986931433489 120.58985236759428 l -1.4954176778521258 7.455073836218708 a28.603578100782904,28.603578100782904 0 0,0 -0.48191381741563794,-0.1009897259997301 l 1.6235229566971505 -7.428228129492436" fill="#ff5307" stroke="none" /><path d="M 95.16358092515715 120.4354850818985 l -0.9030201789599934 3.8155617017927406 a24.920963726406615,24.920963726406615 0 0,0 -0.4165915455804115,-0.10238806628171743 l 0.9685650092836154 -3.799452377196993" fill="#ff1e03" stroke="none" /><path d="M 94.81253420990036 120.34920634021253 l -2.850305033819316 11.181075232617896 a32.53866032706038,32.53866032706038 0 0,0 -0.5415510839246778,-0.14302856334571534 l 3.042346560555483 -11.1303553199686" fill="#ff890c" stroke="none" /><path d="M 94.46302465271185 120.25689768951611 l -2.9093493376422828 10.643788021296778 a32.03424383502288,32.03424383502288 0 0,0 -0.5306530944543515,-0.149967865043292 l 3.0921336002012483 -10.592131362914966" fill="#ff820c" stroke="none" /><path d="M 94.11515582081647 120.15858648285463 l -5.062065562948404 17.340150958208245 a39.06392379902657,39.06392379902657 0 0,0 -0.6438572201620172,-0.19398889879350228 l 5.359797757550666 -17.250446690309015" fill="#ffdf14" stroke="none" /><path d="M 93.76903079525671 120.05430185196036 l -1.8312912472833411 5.893989561674642 a27.171931673755488,27.171931673755488 0 0,0 -0.4454626708534006,-0.14262307995976295 l 1.932475263227682 -5.861593635055173" fill="#ff3e05" stroke="none" /><path d="M 93.42475214034765 119.94407469862007 l -2.0841218655771687 6.321568867868678 a27.656259978530237,27.656259978530237 0 0,0 -0.4508368983051319,-0.15294835368930865 l 2.1926284968195264 -6.284757527281247" fill="#ff4506" stroke="none" /><path d="M 93.08242187328487 119.8279376855182 l -2.5106358367442105 7.19626580432014 a28.621649023090193,28.621649023090193 0 0,0 -0.46378034786089933,-0.16629513222850115 l 2.6341357452348366 -7.151983131051681" fill="#ff5307" stroke="none" /><path d="M 91.7346041902142 119.30500536409082 l -3.0775857768633244 7.188138511219806 a28.819262719108032,28.819262719108032 0 0,0 -0.45435533609064466,-0.19917602706963258 l 3.2008617876117125 -7.134097930855722" fill="#ff5607" stroke="none" /><line stroke="#e1ed5e" stroke-width="0.3" x1="58.666819895761336" x2="56.23545636021788" y1="174.27360380694188" y2="178.64263932499728" /><path d="M 58.180547188652646 175.14741091055294 a86.0,86.0 0 0,1 -31.652253787137756,-30.449443065178592" fill="none" id="id20" stroke="none" /><text fill="#e1ed5e" style="font-size:6.75px; font-family:Arial;" text-anchor="middle"><textPath startOffset="22.20632615414155" xlink:href="#id20">August</textPath></text><path d="M 89.7882731507175 118.34994917583269 l -4.426444591261821 7.954093805887597 a30.102802864632984,30.102802864632984 0 0,0 -0.45061205712500924,-0.2558692862878684 l 4.562705415308038 -7.876721353805095" fill="#ff6809" stroke="none" /><path d="M 89.4739219176387 118.17145234162733 l -4.15318406531227 7.169753607974197 a29.285789321448064,29.285789321448064 0 0,0 -0.43403231233945494,-0.2564339405682064 l 4.275984248680107 -7.097201095112241" fill="#ff5c08" stroke="none" /><path d="M 89.1626897886671 117.98757091392108 l -4.103677491721523 6.811209465335032 a28.95190186915881,28.95190186915881 0 0,0 -0.4246565703437897,-0.26085874956656585 l 4.220313261997622 -6.7395622489400875" fill="#ff5808" stroke="none" /><path d="M 88.8546689885994 117.79835938074946 l -5.156502392040692 8.234594614314746 a30.715866681939538,30.715866681939538 0 0,0 -0.4456992163755981,-0.2844663274194711 l 5.297483410463214 -8.144613858071471" fill="#ff700a" stroke="none" /><path d="M 87.65650970185807 116.9893568818739 l -12.905867539333254 17.76340274913409 a42.956773309636375,42.956773309636375 0 0,0 -0.594470664100143,-0.4397751855149022 l 13.209723173851962 -17.53861761487942" fill="#efff19" stroke="none" /><path d="M 86.79598089348748 116.32954008644616 l -10.871317843427294 13.44466552833029 a38.29001396244357,38.29001396244357 0 0,0 -0.5089469845409021,-0.4188287193428567 l 11.101134956512885 -13.255541690130253" fill="#ffd513" stroke="none" /><path d="M 85.97065885151581 115.62618273729859 l -2.0909273261776273 2.3289199502282343 a24.12983149992574,24.12983149992574 0 0,0 -0.3066791856485268,-0.2801441647966184 l 2.1307060612930084 -2.29258301884504" fill="#ff1202" stroke="none" /><path d="M 85.44109423537348 115.13401014063109 l -5.011888338895676 5.209867428969079 a28.22922840619878,28.22922840619878 0 0,0 -0.3472867858636208,-0.3398932141467921 l 5.100825077135091 -5.122824111899717" fill="#ff4d07" stroke="none" /><path d="M 84.67929136418377 114.36230785411682 l -10.313486497466291 9.668317024162006 a35.13663177044378,35.13663177044378 0 0,0 -0.4098497220524568,-0.44481092698474783 l 10.478382627514478 -9.489354842375914" fill="#ffac0f" stroke="none" /><path d="M 83.28015986056508 112.70617746262583 l -9.354261524462972 7.108734651194842 a32.748885777347,32.748885777347 0 0,0 -0.33721797988766,-0.45175859143420144 l 9.475240771045717 -6.946663180251332" fill="#ff8c0c" stroke="none" /><path d="M 83.06392112726016 112.41649034213515 l -11.299342501669697 8.28398226641951 a35.010692458276004,35.010692458276004 0 0,0 -0.352141225243372,-0.4890933627211171 l 11.440263519288676 -8.088255298247255" fill="#ffaa0f" stroke="none" /><path d="M 82.44556493220864 111.52570212397912 l -34.82127312504695 22.86257689678564 a62.655953769065874,62.655953769065874 0 0,0 -0.584177668021703,-0.906656713654259 l 35.2096556564457 -22.259798583209932" fill="#32ff4a" stroke="none" /><line stroke="#e1ed5e" stroke-width="0.3" x1="26.63291911575756" x2="22.317208475507996" y1="142.92168965132927" y2="145.44649492493687" /><path d="M 25.769776987707644 143.4266507060508 a86.0,86.0 0 0,1 -11.730757126820373,-40.83630448921669" fill="none" id="id21" stroke="none" /><text fill="#e1ed5e" style="font-size:6.75px; font-family:Arial;" text-anchor="middle"><textPath startOffset="21.46611528233685" xlink:href="#id21">September</textPath></text><path d="M 81.69416730710424 110.29060199501025 l -3.9204909734922317 2.2038993205097883 a25.49749059900936,25.49749059900936 0 0,0 -0.21177923144073402,-0.384440820500987 l 3.9578466143844824 -2.136087981610979" fill="#ff2603" stroke="none" /><path d="M 81.51974371655577 109.97397251340807 l -3.3619099192511017 1.8144552008839898 a24.82029920047814,24.82029920047814 0 0,0 -0.19968225214422128,-0.37772356883536384 l 3.392644679620209 -1.7563166169624997" fill="#ff1d02" stroke="none" /><path d="M 81.35079622478065 109.6543875284942 l -27.34251103579135 14.154770397888155 a51.78912851574891,51.78912851574891 0 0,0 -0.40302134631684156,-0.795199350928172 l 27.582111051894458 -13.682016835257299" fill="#89ff24" stroke="none" /><path d="M 81.18737489456691 109.33194174019688 l -9.229384158428886 4.57820611327021 a31.302499850009355,31.302499850009355 0 0,0 -0.23528560291153452,-0.48475803129133616 l 9.30682301795514 -4.418659126013589" fill="#ff780b" stroke="none" /><path d="M 80.73074385275274 108.34839909993369 l -10.690083834338854 4.631475422758309 a32.65025566143538,32.65025566143538 0 0,0 -0.21898840351111953,-0.5176238977716456 l 10.768223219042278 -4.446776999320505" fill="#ff8b0c" stroke="none" /><path d="M 80.45479744820244 107.68017299344265 l -15.554309015786059 6.111974727205627 a37.71205445253706,37.71205445253706 0 0,0 -0.23220877947591037,-0.6062238490229138 l 15.657212074855478 -5.843327311349555" fill="#ffcd13" stroke="none" /><path d="M 80.20201598880116 107.00284435728193 l -25.122494302789125 8.886203634148764 a47.64778292881475,47.64778292881475 0 0,0 -0.2668483884597775,-0.7755863258259377 l 25.27173352219213 -8.45244460523353" fill="#b8ff1f" stroke="none" /><path d="M 80.0844068197444 106.66101706037122 l -27.31077540017187 9.13442744215449 a49.797850920765214,49.797850920765214 0 0,0 -0.26489551574224185,-0.8152645678714494 l 27.463963166930363 -8.662963974305237" fill="#9fff22" stroke="none" /><path d="M 79.76711848015287 105.62410040840567 l -4.334176073644328 1.2047637110894989 a25.498503955417746,25.498503955417746 0 0,0 -0.11390779554593336,-0.4238932819664628 l 4.3542719455320364 -1.1299794959474971" fill="#ff2603" stroke="none" /><path d="M 79.58551787078972 104.9243191809786 l -4.1168507265713306 0.9930541891666947 a25.234928160841978,25.234928160841978 0 0,0 -0.09822327365001522,-0.42314329214236 l 4.133334566151901 -0.9220422396757605" fill="#ff2303" stroke="none" /><path d="M 79.4281124754447 104.21870165774334 l -61.715662573665874 12.656104973230022 a84.0,84.0 0 0,0 -0.2782802680973342,-1.4189450917281805 l 61.92437277473888 -11.591896154433886" fill="#4dd2ff" stroke="none" /><path d="M 79.29508885075956 103.50808413554451 l -8.661493938037626 1.4675382693086043 a29.7849385775057,29.7849385775057 0 0,0 -0.08129621074853993,-0.5062315819344595 l 8.685471903147457 -1.3182274576809312" fill="#ff6309" stroke="none" /><path d="M 79.18660465613746 102.79330883721812 l -7.132541061458121 0.957238819021766 a28.196488598617268,28.196488598617268 0 0,0 -0.060419020546487213,-0.4815990405600724 l 7.147961591251457 -0.8343220241742849" fill="#ff4d07" stroke="none" /><path d="M 79.10278846688536 102.07522291339032 l -12.533369874521595 1.2446414826393102 a33.59501857211303,33.59501857211303 0 0,0 -0.05219290685687331,-0.575944378000822 l 12.552937377655544 -1.0287157160899218" fill="#ff970e" stroke="none" /><line stroke="#e1ed5e" stroke-width="0.3" x1="15.007084014347285" x2="10.007500721073583" y1="101.09737516637583" y2="101.16192664675087" /><path d="M 14.007167355692545 101.11028546245083 a86.0,86.0 0 0,1 10.666146001902534,-42.60595125391555" fill="none" id="id22" stroke="none" /><text fill="#e1ed5e" style="font-size:6.75px; font-family:Arial;" text-anchor="middle"><textPath startOffset="22.20632615414155" xlink:href="#id22">October</textPath></text><path d="M 79.00175016825051 100.2711162175752 l -30.71660146940012 0.39659347202151496 a51.719161645656996,51.719161645656996 0 0,0 -0.003831411426513352,-0.8902850823884289 l 30.718877178116138 0.13220108857058924" fill="#8aff24" stroke="none" /><path d="M 79.00019446554 99.90962569577889 l -16.613913455224072 -0.07149927490718515 a37.61406730587028,37.61406730587028 0 0,0 0.008359265923345943,-0.6474343579973872 l 16.61022118218301 0.3574698909650444" fill="#ffcc13" stroke="none" /><path d="M 79.05617556472873 98.46500227214037 l -20.44255310213986 -1.4982589574513951 a41.49738415596955,41.49738415596955 0 0,0 0.058344366064077356,-0.7119490468418224 l 20.413734252256287 1.8499219215009959" fill="#fffd17" stroke="none" /><path d="M 79.12142395522702 97.74499172005258 l -8.557540637966897 -0.9242644207737075 a29.607308899415834,29.607308899415834 0 0,0 0.059087231642296095,-0.5062233167469191 l 8.54036305332101 1.0714314758454884" fill="#ff6108" stroke="none" /><path d="M 79.26566170972629 96.67025291283419 l -30.18426394900259 -4.847319627729899 a51.571004198691824,51.571004198691824 0 0,0 0.14829890205198865,-0.8752685146303749 l 30.09635318543038 5.366173930676102" fill="#8cff24" stroke="none" /><path d="M 79.3925641242962 95.95851677861259 l -15.543674272737977 -3.048389870087912 a36.8397755885944,36.8397755885944 0 0,0 0.12739668769415813,-0.6212314932094521 l 15.488898289128825 3.315497019460767" fill="#ffc212" stroke="none" /><path d="M 79.71946130924805 94.55025226153421 l -26.31725101426136 -7.071921578838966 a48.25086743142113,48.25086743142113 0 0,0 0.22244391900048974,-0.80024912983786 l 26.191620324694508 7.523882012095768" fill="#b1ff20" stroke="none" /><path d="M 79.81627453868168 94.20196356495316 l -22.739691160996916 -6.532270671529498 a44.6593346107545,44.6593346107545 0 0,0 0.21860553509050498,-0.7370291896924139 l 22.623879728794705 6.9227292479684515" fill="#dbff1b" stroke="none" /><path d="M 80.14247586403 93.16781622104843 l -11.023808457131423 -3.7928537720698774 a32.65804840596517,32.65804840596517 0 0,0 0.187467958195391,-0.529997162525122 l 10.956887418126223 3.9820485610216103" fill="#ff8b0c" stroke="none" /><path d="M 80.52162464483688 92.15188598940014 l -45.04484121365623 -18.14920613183658 a69.56368399513568,69.56368399513568 0 0,0 0.45706094150620413,-1.106809323605944 l 44.725758585263826 18.921890025895834" fill="#3bff9a" stroke="none" /><path d="M 80.803312248108 91.48605970444005 l -6.258437206535222 -2.775685129050464 a27.84634677793758,27.84634677793758 0 0,0 0.1981037947456625,-0.4364954520689792 l 6.209731094826207 2.883002589961514" fill="#ff4806" stroke="none" /><path d="M 80.95270993114464 91.15688171328213 l -6.163200106992172 -2.8613995678031534 a27.795045477806045,27.795045477806045 0 0,0 0.20520924062522408,-0.43222299563780436 l 6.113032672525196 2.96706497908149" fill="#ff4706" stroke="none" /><path d="M 81.26839172434947 90.50648371742162 l -14.92990785971138 -7.56674607315012 a37.73791488910744,37.73791488910744 0 0,0 0.2986516888941018,-0.5769000040200625 l 14.797446737657165 7.8226187994305185" fill="#ffce13" stroke="none" /><path d="M 81.6062741919709 89.86733742301443 l -25.506675269803196 -14.051015909829484 a50.12080925073119,50.12080925073119 0 0,0 0.4227865890955564,-0.7520901662056473 l 25.26103103941521 14.487989585969915" fill="#9cff22" stroke="none" /><line stroke="#e1ed5e" stroke-width="0.3" x1="26.266209847984243" x2="21.928928074336255" y1="57.711370442889674" y2="55.22380399835377" /><path d="M 25.398753493254645 57.213857153982495 a86.0,86.0 0 0,1 29.58750427330803,-30.492523968695096" fill="none" id="id23" stroke="none" /><text fill="#e1ed5e" style="font-size:6.75px; font-family:Arial;" text-anchor="middle"><textPath startOffset="21.46611528233685" xlink:href="#id23">November</textPath></text><path d="M 82.95767976084542 87.72973835380427 l -15.02715269138026 -10.819365716232843 a39.516856982534904,39.516856982534904 0 0,0 0.4022014177675902,-0.5486022818319534 l 14.838688661099036 11.076430441736298" fill="#ffe415" stroke="none" /><path d="M 83.17141714833178 87.43820079747576 l -27.82126658631492 -20.76735560549832 a55.71751623189691,55.71751623189691 0 0,0 0.5803219690890288,-0.7636356867445689 l 27.45966867700178 21.243176068123915" fill="#5fff29" stroke="none" /><path d="M 83.6137871275137 86.86637796730984 l -4.415338740637919 -3.5389135132743954 a26.658544428474002,26.658544428474002 0 0,0 0.29007226671213304,-0.3555943004581823 l 4.353767981849394 3.61439198334066" fill="#ff3705" stroke="none" /><path d="M 84.31358615837235 86.03803664274999 l -6.028106979436968 -5.3654206506481525 a29.070056537220687,29.070056537220687 0 0,0 0.335906385067034,-0.37091622014593834 l 5.93485695375389 5.468389658063646" fill="#ff5908" stroke="none" /><path d="M 84.5562425177563 85.77008943001954 l -20.58141875925648 -18.963762457696202 a48.986051609610854,48.986051609610854 0 0,0 0.5767120345494071,-0.6151961883735524 l 20.251939402736614 19.315228062947803" fill="#a8ff21" stroke="none" /><line stroke="#e1ed5e" stroke-width="0.3" x1="56.762969772571076" x2="54.21961505331055" y1="26.818313649435495" y2="22.513508569990535" /><path d="M 56.25429882871897 25.957352633546506 a86.0,86.0 0 0,1 42.265352541879196,-11.944610805530505" fill="none" id="id24" stroke="none" /><text fill="#e1ed5e" style="font-size:6.75px; font-family:Arial;" text-anchor="middle"><textPath startOffset="22.20632615414155" xlink:href="#id24">December</textPath></text><path d="M 98.19473922651362 79.07773832637324 l -3.0444796830572907 -35.28432098258598 a56.41542268197157,56.41542268197157 0 0,0 0.9682224669453929,-0.07515269800263037 l 2.436667026749564 35.33149894277708" fill="#58ff2a" stroke="none" /><path d="M 98.91598698831166 79.02799685794201 l -0.17187800451216645 -3.3252608703152458 a24.329699972082288,24.329699972082288 0 0,0 0.41842353286355827,-0.018018197502389116 l 0.11461363925928407 3.327726794341827" fill="#ff1502" stroke="none" /><path d="M 99.27714615592234 79.0124445844662 l -0.28069955967673305 -8.149915245105115 a29.154747742585265,29.154747742585265 0 0,0 0.5017023472277401,-0.012957491462791394 l 0.14037057725411392 8.153539528710265" fill="#ff5a08" stroke="none" /></svg>