<?xml version="1.0" encoding="utf-8" ?>
<svg baseProfile="full" height="200mm" version="1.1" viewBox="0,0,200,200" width="200mm" xmlns="http://www.w3.org/2000/svg" xmlns:ev="http://www.w3.org/2001/xml-events" xmlns:xlink="http://www.w3.org/1999/xlink"><defs /><rect fill="#1a1a1a" height="200" width="200" x="0" y="0" /><text alignment-baseline="middle" fill="#e1ed5e" style="dominant-baseline: central; font-size:9.0px; font-family:Arial;" text-anchor="middle" x="100.0" y="100.0">2016</text><line stroke="#e1ed5e" stroke-width="0.3" x1="100.0" x2="100.0" y1="15.0" y2="10.0" /><path d="M 100.0 14.0 a86.0,86.0 0 0,1 42.35913384403234,11.155469271406648" fill="none" id="id25" stroke="none" /><text fill="#e1ed5e" style="font-size:6.75px; font-family:Arial;" text-anchor="middle"><textPath startOffset="22.145653131862478" xlink:href="#id25">January</textPath></text><path d="M 100.0 79.0 l 0.0 -9.126317394338479 a30.12631739433848,30.12631739433848 0 0,0 0.5171582986861909,0.004439182007143525 l -0.15666537383733606 9.12497261052577" fill="#ff6209" stroke="none" /><path d="M 100.36049292484886 79.00309439819443 l 1.0577698476667832 -61.60979067538627 a82.61887035734708,82.61887035734708 0 0,0 1.4178448039668274,0.03651865270842266 l -2.115227965704352 61.582554305327804" fill="#4bdfff" stroke="none" /><path d="M 100.72087961077811 79.0123766808444 l 0.24795808609137748 -7.219029130547006 a28.223286288120136,28.223286288120136 0 0,0 0.48406193676992937,0.020787702355222978 l -0.37184578346214314 7.213708859765952" fill="#ff4806" stroke="none" /><path d="M 101.08105385017728 79.02784411241856 l 0.3817166577095815 -7.405201183141004 a28.4150328502014,28.4150328502014 0 0,0 0.4869195264517423,0.029291869583489165 l -0.5087805362937862 7.397557335732822" fill="#ff4a06" stroke="none" /><path d="M 101.44090949804482 79.04949213459386 l 0.4847557036321706 -7.0482415415589195 a28.06489185482416,28.06489185482416 0 0,0 0.4803520138525624,0.0371822838306447 l -0.6056767122599664 7.038881490733221" fill="#ff4506" stroke="none" /><path d="M 102.51750503828377 79.15144685158666 l 1.7233587605593625 -14.271882743797573 a35.375555727355504,35.375555727355504 0 0,0 0.6022640826413247,0.07797514324491377 l -1.968100665091479 14.240196004352262" fill="#ffaa0f" stroke="none" /><path d="M 102.87502721639298 79.19773525538626 l 2.774048512440726 -20.071633145300336 a41.26242340562682,41.26242340562682 0 0,0 0.7008224052653836,0.1029967594290491 l -3.1181960233137915 20.021055312572404" fill="#fff617" stroke="none" /><path d="M 103.23170211078529 79.25015418208739 l 2.2611520433212537 -14.518218159152351 a35.69324562783039,35.69324562783039 0 0,0 0.6046138313748525,0.09948897587018585 l -2.510043377749177 14.477263184786498" fill="#ffae10" stroke="none" /><path d="M 103.94208987418118 79.37332000966035 l 2.2548758316958994 -11.798463171264755 a33.01200225691192,33.01200225691192 0 0,0 0.5557075627370641,0.11115707604539511 l -2.45707987996392 11.758016698556501" fill="#ff8a0c" stroke="none" /><path d="M 108.07796709384702 80.6158196554323 l 3.316144287676471 -7.957539090483699 a29.62086082205631,29.62086082205631 0 0,0 0.467678023421536,0.19962393834436315 l -3.452257386268437 7.899440502479934" fill="#ff5b08" stroke="none" /><line stroke="#e1ed5e" stroke-width="0.3" x1="143.13028292997686" x2="145.6673583964461" y1="26.7553504044142" y2="22.446841604673864" /><path d="M 143.63769802327073 25.89364864446614 a86.0,86.0 0 0,1 29.32050498858742,28.57503671076993" fill="none" id="id26" stroke="none" /><text fill="#e1ed5e" style="font-size:6.75px; font-family:Arial;" text-anchor="middle"><textPath startOffset="20.669276256404974" xlink:href="#id26">February</textPath></text><path d="M 110.65571695917076 81.90426304109057 l 3.5956483077811554 -6.106196910415979 a28.086206845839538,28.086206845839538 0 0,0 0.4133584061238736,0.24820984612571365 l -3.6999394704624633 6.043573063754344" fill="#ff4606" stroke="none" /><path d="M 111.5731344415666 82.4767994020092 l 7.98521104326496 -12.090627274306685 a35.48954323958107,35.48954323958107 0 0,0 0.5054787674619372,0.3401086735490316 l -8.191586098823898 11.951768926700536" fill="#ffac0f" stroke="none" /><path d="M 112.16784306229584 82.88440491214696 l 11.449392810655935 -16.105004834931535 a40.76005507244015,40.76005507244015 0 0,0 0.5667957190169237,0.410316390528802 l -11.724169540046827 15.906087673029656" fill="#fff016" stroke="none" /><path d="M 113.59037401385872 83.9905735841838 l 18.544354403501433 -21.8452028582088 a49.654946661247806,49.654946661247806 0 0,0 0.6450899228794786,0.5572133110892575 l -18.91662380614377 21.523645414654823" fill="#a4ff21" stroke="none" /><path d="M 114.39649973595853 84.71141617570332 l 14.309248964431658 -15.195926528517257 a41.87272835510928,41.87272835510928 0 0,0 0.5190772991772694,0.49726431060827775 l -14.567998749474238 14.948050087603399" fill="#fffe18" stroke="none" /><path d="M 115.6541949942343 86.00192230759917 l 5.387472215241066 -4.817510875670806 a28.227258671668046,28.227258671668046 0 0,0 0.3198940599350446,0.36398071806344195 l -5.4693773391347005 4.724317879796065" fill="#ff4806" stroke="none" /><path d="M 115.8921839302757 86.27271002978787 l 10.82628089941097 -9.351483588234872 a35.30589400960237,35.30589400960237 0 0,0 0.39224081012771017,0.4620586880549574 l -10.985216273045792 9.164258117730363" fill="#ffa90f" stroke="none" /><path d="M 117.42321728460499 88.27688183743584 l 6.1309276328318845 -4.1251617259761115 a28.389535364586855,28.389535364586855 0 0,0 0.2685860413018682,0.4066734991558387 l -6.200838113054477 4.019308348481214" fill="#ff4a06" stroke="none" /><path d="M 117.62189284568427 88.57770195909679 l 52.86567853705281 -34.26689412270966 a84.0,84.0 0 0,0 0.7739292334964403,1.2167453012853122 l -53.44612546217514 33.354335146745676" fill="#4dd2ff" stroke="none" /><line stroke="#e1ed5e" stroke-width="0.3" x1="172.87174338648825" x2="177.1583165268699" y1="56.24261187166439" y2="53.66864786411523" /><path d="M 173.72905801456457 55.72781907015455 a86.0,86.0 0 0,1 12.242430191666344,42.057860355516425" fill="none" id="id27" stroke="none" /><text fill="#e1ed5e" style="font-size:6.75px; font-family:Arial;" text-anchor="middle"><textPath startOffset="22.145653131862474" xlink:href="#id27">March</textPath></text><path d="M 118.53625476483649 90.13048839642627 l 2.0519470869612393 -1.0925462474275551 a23.324681515919277,23.324681515919277 0 0,0 0.18514458106823814,0.3550391464264126 l -2.070399737004422 1.0571608578966445" fill="#ff0000" stroke="none" /><path d="M 118.70294669586156 90.45014215332178 l 16.820116718376305 -8.58847144447952 a39.88592513414268,39.88592513414268 0 0,0 0.306134136892918,0.6124733449142192 l -16.965070768480963 8.29846624340155" fill="#ffe515" stroke="none" /><path d="M 118.8641267826498 90.77261029715802 l 6.079518829945067 -2.9737973082997367 a27.767866697454036,27.767866697454036 0 0,0 0.2057740962060974,0.42998871877784833 l -6.129672184111076 2.868996087456785" fill="#ff4106" stroke="none" /><path d="M 119.83427380445688 93.10060997987247 l 6.573780675375294 -2.2867021617902603 a27.960143615233374,27.960143615233374 0 0,0 0.15380020011856257,0.4546829631459123 l -6.612066297066221 2.1735175241701863" fill="#ff4406" stroke="none" /><line stroke="#e1ed5e" stroke-width="0.3" x1="184.99686870605535" x2="189.99668451229388" y1="99.2704041080226" y2="99.22748670261217" /><path d="M 185.99683186730306 99.26182062694052 a86.0,86.0 0 0,1 -10.086455211305974,41.156179273409016" fill="none" id="id28" stroke="none" /><text fill="#e1ed5e" style="font-size:6.75px; font-family:Arial;" text-anchor="middle"><textPath startOffset="21.40746469413373" xlink:href="#id28">April</textPath></text><line stroke="#e1ed5e" stroke-width="0.3" x1="174.33088141563837" x2="178.70328620479359" y1="141.23008692659167" y2="143.65538615756765" /><path d="M 175.20536237346943 141.71514677278685 a86.0,86.0 0 0,1 -30.301960400862466,31.631185727798858" fill="none" id="id29" stroke="none" /><text fill="#e1ed5e" style="font-size:6.75px; font-family:Arial;" text-anchor="middle"><textPath startOffset="22.145653131862474" xlink:href="#id29">May</textPath></text><path d="M 118.36410011445183 110.18625677009912 l 26.6739389733694 14.795584306299409 a51.50259555054042,51.50259555054042 0 0,0 -0.4354829802178284,0.7694566988716716 l -26.41602262813019 -15.251297775270203" fill="#8fff24" stroke="none" /><line stroke="#e1ed5e" stroke-width="0.3" x1="143.1302829299769" x2="145.66735839644613" y1="173.24464959558577" y2="177.55315839532614" /><path d="M 143.63769802327073 174.10635135553383 a86.0,86.0 0 0,1 -40.68552437913181,11.842963189579606" fill="none" id="id30" stroke="none" /><text fill="#e1ed5e" style="font-size:6.75px; font-family:Arial;" text-anchor="middle"><textPath startOffset="21.407464694133747" xlink:href="#id30">June</textPath></text><path d="M 103.58742460773223 120.69131181640829 l 1.3925071239037914 8.031611046309086 a29.151432517620258,29.151432517620258 0 0,0 -0.49380096974989246,0.08125476165903515 l -1.2544286511008267 -8.054331806463791" fill="#ff5507" stroke="none" /><path d="M 101.08105385017728 120.97215588758144 l 0.3817741296756937 7.406316123929791 a28.416149271264167,28.416149271264167 0 0,0 -0.4873697595443268,0.020929754497840618 l -0.25457860953053735 -7.4117784468534635" fill="#ff4a06" stroke="none" /><line stroke="#e1ed5e" stroke-width="0.3" x1="101.45913802915013" x2="101.54496967792366" y1="184.9874750549273" y2="189.98673829345242" /><path d="M 101.47630435890484 185.9873277026323 a86.0,86.0 0 0,1 -42.54439059252881,-10.42667462771756" fill="none" id="id31" stroke="none" /><text fill="#e1ed5e" style="font-size:6.75px; font-family:Arial;" text-anchor="middle"><textPath startOffset="22.145653131862474" xlink:href="#id31">July</textPath></text><path d="M 100.0 121.0 l 1.6660251213741039e-15 13.604127512798428 a34.60412751279843,34.60412751279843 0 0,0 -0.5940258637586353,-0.0050989976045523275 l 0.23353293890978147 -13.60212291338831" fill="#ffa00e" stroke="none" /><path d="M 99.27912038922189 120.98762331915562 l -0.1901360009021544 5.5356022096918025 a26.53886662800106,26.53886662800106 0 0,0 -0.4551721953455269,-0.019547052553555596 l 0.28513395684852005 -5.531522588712418" fill="#ff2f04" stroke="none" /><path d="M 97.84075906011543 120.88869738790638 l -1.7666095709082736 17.09034505952578 a38.18140866255389,38.18140866255389 0 0,0 -0.6513822833381573,-0.07298874350146577 l 2.0597277558472302 -17.057500555517343" fill="#ffcf13" stroke="none" /><path d="M 96.76829788921471 120.74984581791261 l -1.5843476909074843 10.172648709972743 a31.29528724136408,31.29528724136408 0 0,0 -0.5301160819128397,-0.08723039954592836 l 1.7587412758733876 -10.143952311931146" fill="#ff730a" stroke="none" /><path d="M 95.70440661134978 120.55596938700252 l -2.327343826397101 11.137182717259218 a32.37775760701054,32.37775760701054 0 0,0 -0.5430791949897507,-0.11836158287571877 l 2.5181854380059883 -11.095589676249782" fill="#ff820b" stroke="none" /><path d="M 94.6519064749342 120.30758222061772 l -3.197434312796233 12.141178888851767 a33.555150775508295,33.555150775508295 0 0,0 -0.5557669301982083,-0.15147674821128174 l 3.405382643929136 -12.08450164649634" fill="#ff920d" stroke="none" /><path d="M 93.95794788825049 120.11202640906438 l -3.90087630749446 12.984748536388448 a34.55804301953691,34.55804301953691 0 0,0 -0.5666850392096471,-0.17556047371661007 l 4.12320197957574 -12.915871474865188" fill="#ff9f0e" stroke="none" /><path d="M 93.61358852112213 120.00534299687104 l -3.114991534002239 9.757666613898419 a31.2428135785483,31.2428135785483 0 0,0 -0.5095215839315774,-0.16748986502292273 l 3.28203585558156 -9.702755827473474" fill="#ff720a" stroke="none" /><path d="M 93.27111125876986 119.89276391827306 l -2.2742123704283603 6.7233047721156085 a28.09752555223029,28.09752555223029 0 0,0 -0.45557358430247263,-0.15847214130239223 l 2.3892917267758547 -6.683274198244626" fill="#ff4606" stroke="none" /><path d="M 92.93061703081489 119.77432235084164 l -3.8262265493658405 10.702636638064345 a32.366021318540156,32.366021318540156 0 0,0 -0.5215720348565738,-0.19152847572479373 l 4.009387735876533 -10.635377313330832" fill="#ff820b" stroke="none" /><path d="M 92.59220618246901 119.65005319985036 l -3.7489464139553395 9.944525764644434 a31.627708685242816,31.627708685242816 0 0,0 -0.5063863301787133,-0.19588111093048316 l 3.9191050066275808 -9.878704765575911" fill="#ff770b" stroke="none" /><path d="M 90.93487009805054 118.94263497670748 l -4.567014211149871 9.54330319267056 a31.579804092329923,31.579804092329923 0 0,0 -0.4869902802672763,-0.23821134947287675 l 4.730164740679217 -9.463498093100462" fill="#ff770a" stroke="none" /><path d="M 90.6110303473126 118.78422872680471 l -6.095719465592055 12.195522291771676 a34.634095487867825,34.634095487867825 0 0,0 -0.5295269172250859,-0.27038021696379194 l 6.304173604530723 -12.089084123135049" fill="#ffa00e" stroke="none" /><path d="M 90.28995756902619 118.62028667847754 l -3.8603177735443968 7.402668332748985 a29.348745519982472,29.348745519982472 0 0,0 -0.44471900319487906,-0.23678782030380272 l 3.986825592525838 -7.3353100447226085" fill="#ff5808" stroke="none" /><line stroke="#e1ed5e" stroke-width="0.3" x1="58.13341422392154" x2="55.67067388415222" y1="173.97424548756322" y2="178.32567169271397" /><path d="M 57.64086615596768 174.84453072859336 a86.0,86.0 0 0,1 -31.369924170532247,-30.572349798747897" fill="none" id="id32" stroke="none" /><text fill="#e1ed5e" style="font-size:6.75px; font-family:Arial;" text-anchor="middle"><textPath startOffset="22.145653131862474" xlink:href="#id32">August</textPath></text><path d="M 89.65649057296885 118.27599006163327 l -5.791169894515382 10.232442304426987 a32.757573059971534,32.757573059971534 0 0,0 -0.48700766875887463,-0.28117400865535047 l 5.965970031134656 -10.131521398495465" fill="#ff870c" stroke="none" /><path d="M 83.8745106332314 113.45245675266167 l -5.970561458028525 4.980854718664115 a28.775378952342727,28.775378952342727 0 0,0 -0.3131763993891291,-0.38202428548449036 l 6.055184676656284 -4.8776281514811295" fill="#ff4f07" stroke="none" /><path d="M 82.98947788004972 112.3143062007846 l -6.524869986187391 4.723502686374661 a29.055147792861263,29.055147792861263 0 0,0 -0.2890086516147265,-0.40652686204113 l 6.604993736332078 -4.610798597624027" fill="#ff5307" stroke="none" /><line stroke="#e1ed5e" stroke-width="0.3" x1="26.387840678322732" x2="22.057713659400548" y1="142.50000000000003" y2="145.00000000000006" /><path d="M 25.521815274538298 143.00000000000003 a86.0,86.0 0 0,1 -11.493303480769221,-40.785679425670985" fill="none" id="id33" stroke="none" /><text fill="#e1ed5e" style="font-size:6.75px; font-family:Arial;" text-anchor="middle"><textPath startOffset="21.40746469413373" xlink:href="#id33">September</textPath></text><path d="M 81.29705330413844 109.54985784667822 l -28.01909022323048 14.306747111903515 a52.46033105136514,52.46033105136514 0 0,0 -0.4026457481809544,-0.8055612180556553 l 28.260555884623173 -13.823654037684108" fill="#84ff25" stroke="none" /><path d="M 80.16572619554312 106.89939002012753 l -10.184963908930301 3.542859145810656 a31.783568090074223,31.783568090074223 0 0,0 -0.17483168899289916,-0.5168588229522293 l 10.244281019495569 -3.367498648384265" fill="#ff7a0b" stroke="none" /><path d="M 80.05021161711548 106.5578916946017 l -6.751673145820216 2.2194090682999885 a28.10709975168789,28.10709975168789 0 0,0 -0.14673951761682627,-0.45965944894545796 l 6.788777379214297 -2.103180585663139" fill="#ff4606" stroke="none" /><path d="M 79.64726062577567 105.17358676015961 l -59.697010865376676 15.174746718633667 a82.59550344169276,82.59550344169276 0 0,0 -0.3375106880458879,-1.377158783031923 l 59.94870907993886 -14.147732110993644" fill="#4bdfff" stroke="none" /><path d="M 79.407916724674 104.11899336999214 l -11.995780663552567 2.3994920941417326 a33.233409828739916,33.233409828739916 0 0,0 -0.10709657443892566,-0.5603745321692113 l 12.03520353027365 -2.193214996939207" fill="#ff8d0d" stroke="none" /><path d="M 79.22317932658666 103.0534771498775 l -7.04953585518839 1.036039006613013 a28.12526017748197,28.12526017748197 0 0,0 -0.06610170538428817,-0.47827901163301645 l 7.066282077127891 -0.9148716867799108" fill="#ff4606" stroke="none" /><path d="M 79.17382384314188 102.69636545807758 l -35.34806663281648 4.576514918566306 a56.643096154485434,56.643096154485434 0 0,0 -0.11657125921858386,-0.9653772510631535 l 35.42141997829473 -3.9690439905797534" fill="#58ff2a" stroke="none" /><line stroke="#e1ed5e" stroke-width="0.3" x1="15.003131293944662" x2="10.003315487706104" y1="100.72959589197737" y2="100.7725132973878" /><path d="M 14.003168132696942 100.73817937305945 a86.0,86.0 0 0,1 10.791469493833604,-42.45332614584628" fill="none" id="id34" stroke="none" /><text fill="#e1ed5e" style="font-size:6.75px; font-family:Arial;" text-anchor="middle"><textPath startOffset="22.145653131862435" xlink:href="#id34">October</textPath></text><path d="M 79.00696218219943 99.45929381324524 l -7.352234414167391 -0.1893674783380196 a28.35467272709802,28.35467272709802 0 0,0 0.016709426195224076,-0.4864767120908329 l 7.347900300975317 0.315550454992991" fill="#ff4906" stroke="none" /><path d="M 79.01933749520258 99.09900007780938 l -7.805474765266936 -0.3352006713114173 a28.81266892945468,28.81266892945468 0 0,0 0.025462730421178092,-0.49397016774771907 l 7.7985704453891875 0.46914263243584836" fill="#ff5007" stroke="none" /><path d="M 79.03789590574601 98.7389718711861 l -14.959067149122584 -0.8999003330505608 a35.9861105888547,35.9861105888547 0 0,0 0.042388277573534305,-0.6163162529710129 l 14.941414910383985 1.1565600101758986" fill="#ffb210" stroke="none" /><path d="M 79.06263194458094 98.37931529534042 l -6.36506541659602 -0.4926963187316619 a27.38410584342384,27.38410584342384 0 0,0 0.040302071775323536,-0.46837116454259414 l 6.355669722122954 0.6018885306499367" fill="#ff3c05" stroke="none" /><path d="M 79.17382384314186 97.30363454192245 l -13.599179617223697 -1.7606860665105495 a34.712683970919656,34.712683970919656 0 0,0 0.08158387138338219,-0.5903002523700731 l 13.566951229285108 1.9938746270806895" fill="#ffa10e" stroke="none" /><path d="M 79.34024301695615 96.23510406497455 l -3.6343892054652156 -0.6623067811100842 a24.69424351784049,24.69424351784049 0 0,0 0.07957861991140577,-0.41638896610047704 l 3.6224842932716506 0.7245983122438757" fill="#ff1402" stroke="none" /><path d="M 80.41425534168474 92.42381321644754 l -13.587873263820542 -5.2560812792092255 a35.569031891217165,35.569031891217165 0 0,0 0.22517115379953992,-0.5675784002592621 l 13.49564343505487 5.48856069668207" fill="#ffad10" stroke="none" /><path d="M 80.83023694016515 91.42560881287825 l -6.4265538447205435 -2.8745157922786495 a28.040130351005708,28.040130351005708 0 0,0 0.20030738857811273,-0.43770779377126023 l 6.376261991287384 2.984412568264581" fill="#ff4506" stroke="none" /><path d="M 81.29705330413844 90.45014215332179 l -12.423879415128216 -6.343721353010074 a34.949751980816096,34.949751980816096 0 0,0 0.27742103078710256,-0.531991405868299 l 12.313150315366173 6.5560590019828595" fill="#ffa40f" stroke="none" /><line stroke="#e1ed5e" stroke-width="0.3" x1="26.387840678322718" x2="22.05771365940052" y1="57.49999999999999" y2="54.99999999999999" /><path d="M 25.521815274538284 56.99999999999999 a86.0,86.0 0 0,1 29.574782752854787,-30.34633250058573" fill="none" id="id35" stroke="none" /><text fill="#e1ed5e" style="font-size:6.75px; font-family:Arial;" text-anchor="middle"><textPath startOffset="21.40746469413373" xlink:href="#id35">November</textPath></text><path d="M 81.81346652052679 89.5 l -5.9413045280361265 -3.4302137685992014 a27.8604275371984,27.8604275371984 0 0,0 0.2426859354084682,-0.41213377453677413 l 5.881544882497879 3.531698711429548" fill="#ff4206" stroke="none" /><path d="M 81.99639281039701 89.18935116829357 l -12.854281332358216 -7.718626606579972 a35.993656834248846,35.993656834248846 0 0,0 0.3226266329811769,-0.5269863586419857 l 12.719886734921646 7.9381500813465005" fill="#ffb210" stroke="none" /><path d="M 82.37810715431573 88.57770195909679 l -9.375426685746287 -6.077038307009021 a32.17269081844918,32.17269081844918 0 0,0 0.3043774952278715,-0.46086632219836465 l 9.269724751597687 6.237084507546447" fill="#ff7f0b" stroke="none" /><path d="M 82.576782715395 88.27688183743585 l -20.886683171497356 -14.05349258083679 a46.17447492255093,46.17447492255093 0 0,0 0.4481348517323723,-0.6538421413498283 l 20.642358582949672 14.409969457256654" fill="#ccff1d" stroke="none" /><path d="M 83.2033758604659 87.39550010848427 l -22.928580226581943 -17.206034056470713 a49.666485643678655,49.666485643678655 0 0,0 0.5175910559466564,-0.6775433071302758 l 22.62983719328098 17.597098276841873" fill="#a4ff21" stroke="none" /><path d="M 84.58840730492382 85.73525988315684 l -10.029899033914127 -9.28352480809279 a34.66684702091107,34.66684702091107 0 0,0 0.407986143046442,-0.4332671455921568 l 9.869057057131414 9.454333413629458" fill="#ffa10e" stroke="none" /><path d="M 85.86807049272753 84.46653392183569 l -24.8304320974538 -27.292994526577075 a57.89793908030678,57.89793908030678 0 0,0 0.7409143383679586,-0.6625301700731548 l 24.35825273226245 27.71522022653363" fill="#4bff2c" stroke="none" /><path d="M 87.83215693770416 82.88440491214696 l -9.508565055531866 -13.37498754083087 a37.41045706653726,37.41045706653726 0 0,0 0.5266054643000719,-0.36761151232284267 l 9.277564500058029 13.53624386895884" fill="#ffc512" stroke="none" /><path d="M 88.12776184653039 82.6780497279521 l -4.108063589573584 -5.993787548155624 a28.26647614930412,28.26647614930412 0 0,0 0.40260037803213244,-0.2708875018240188 l 4.004566923444463 6.063424724036752" fill="#ff4806" stroke="none" /><path d="M 89.03521579738668 82.08984904055464 l -4.413512759788668 -7.209141404754098 a29.452858373033187,29.452858373033187 0 0,0 0.43347208327893616,-0.26028753134444105 l 4.289107919952298 7.283842936634462" fill="#ff5908" stroke="none" /><line stroke="#e1ed5e" stroke-width="0.3" x1="56.869717070023135" x2="54.33264160355391" y1="26.7553504044142" y2="22.446841604673864" /><path d="M 56.362301976729285 25.89364864446614 a86.0,86.0 0 0,1 42.16139366436587,-11.88097634709845" fill="none" id="id36" stroke="none" /><text fill="#e1ed5e" style="font-size:6.75px; font-family:Arial;" text-anchor="middle"><textPath startOffset="22.145653131862474" xlink:href="#id36">December</textPath></text><path d="M 92.592206182469 80.34994680014964 l -6.364252599488332 -16.88193613883725 a39.041714966872554,39.041714966872554 0 0,0 0.629149518229386,-0.23103241772270133 l 6.073513929604819 16.988699405568674" fill="#ffda14" stroke="none" /><path d="M 94.30408787586887 79.78721728523814 l -1.9405134283587735 -6.886197579545122 a28.15439092237584,28.15439092237584 0 0,0 0.4663152765789616,-0.12709630224352134 l 1.8220167508451341 6.918494375932783" fill="#ff4706" stroke="none" /><path d="M 94.6519064749342 79.69241777938228 l -9.489573008904241 -36.03345439148922 a58.26206960536221,58.26206960536221 0 0,0 0.9693551774213399,-0.24640629546657208 l 8.869612538257524 36.19104591879106" fill="#47ff2c" stroke="none" /><path d="M 96.05791012581881 79.37332000966035 l -1.9365172090578624 -10.13267633207347 a31.3160665251606,31.3160665251606 0 0,0 0.5288914799180708,-0.0963816459432428 l 1.762290995588753 10.164426151948073" fill="#ff730a" stroke="none" /><path d="M 97.12497278360702 79.19773525538626 l -0.8548838938789927 -6.185513996172992 a27.24431019960297,27.24431019960297 0 0,0 0.46383072017356713,-0.06005217294099656 l 0.7485753518146314 6.199277765314384" fill="#ff3a05" stroke="none" /><path d="M 97.48249496171623 79.15144685158666 l -1.7243564765860513 -14.280145263750082 a35.38387826742663,35.38387826742663 0 0,0 0.6036558688260321,-0.0676408992076078 l 1.47896470615922 14.307641923464661" fill="#ffaa0f" stroke="none" /><path d="M 99.63950707515114 79.00309439819443 l -0.12185266390033873 -7.09730678436105 a28.09835274292825,28.09835274292825 0 0,0 0.48234558874918915,-0.004140356761633924 l 1.738594993169183e-15 7.098352742928249" fill="#ff4606" stroke="none" /></svg>